<svg width="31" height="33" viewBox="0 0 31 33" fill="none" xmlns="http://www.w3.org/2000/svg">
<path d="M14.6359 0.567578L11.585 12.0908C11.5269 12.3101 11.3285 12.4628 11.1017 12.4628H0.738348C0.236405 12.4628 0.0474602 13.1198 0.472697 13.3864L9.07207 18.7795C9.20673 18.8639 9.29322 19.0074 9.30503 19.1659L10.1833 30.9531C10.2212 31.4617 10.907 31.5938 11.131 31.1356L14.6246 23.9926C14.8032 23.6275 15.3197 23.6167 15.5133 23.974L20.1281 32.488C20.3666 32.928 21.0319 32.7836 21.0665 32.2843L21.9766 19.1472C21.9869 18.9993 22.0622 18.8636 22.1823 18.7767L30.7492 12.5775C31.142 12.2933 30.941 11.6724 30.4561 11.6724H19.8782C19.6662 11.6724 19.4773 11.5387 19.4067 11.3389L15.5907 0.529109C15.4269 0.0650941 14.7619 0.091889 14.6359 0.567578Z" fill="black"/>
</svg>
