<svg width="46" height="52" viewBox="0 0 46 52" fill="none" xmlns="http://www.w3.org/2000/svg">
<path d="M21.4193 1.31607L16.1325 17.1559C16.0308 17.4605 15.6724 17.5917 15.3982 17.4246L4.3257 10.6826C3.84197 10.388 3.31848 10.9979 3.68296 11.4314L11.6284 20.881C11.8313 21.1224 11.7629 21.489 11.4866 21.641L0.492003 27.6866C0.0331593 27.9389 0.221636 28.6374 0.745118 28.6246L11.5314 28.3614C11.8626 28.3533 12.11 28.6638 12.0281 28.9848L8.58052 42.4995C8.45165 43.0047 9.08514 43.3452 9.43537 42.959L17.1404 34.463C17.4193 34.1555 17.9298 34.3022 18.0029 34.7109L20.8995 50.9003C20.9938 51.4275 21.7389 51.4575 21.8752 50.9395L26.1883 34.5532C26.2652 34.2612 26.5815 34.1034 26.861 34.2177L40.2007 39.67C40.7059 39.8766 41.1294 39.2396 40.7434 38.8536L32.7382 30.8486C32.4964 30.6069 32.5631 30.1993 32.8693 30.0472L45.628 23.7097C46.0678 23.4912 45.962 22.8357 45.4757 22.7668L32.6751 20.9531C32.3449 20.9063 32.1522 20.5555 32.2898 20.2517L37.6878 8.33628C37.9106 7.8445 37.3037 7.39757 36.9002 7.75625L26.5683 16.9403C26.2828 17.1941 25.8298 17.047 25.7478 16.674L22.3819 1.36698C22.2729 0.871234 21.58 0.834583 21.4193 1.31607Z" fill="black"/>
</svg>
