<svg width="33" height="41" viewBox="0 0 33 41" fill="none" xmlns="http://www.w3.org/2000/svg">
<path d="M16.3836 0.779747L13.1517 14.2836C13.086 14.5579 12.8066 14.7237 12.5344 14.6498L0.797511 11.4628C0.304071 11.3288 -0.0485746 11.9343 0.31143 12.2973L9.48396 21.5484C9.66104 21.727 9.6779 22.0093 9.52334 22.2077L5.02315 27.9843C4.70743 28.3896 5.1349 28.9504 5.60936 28.7533L12.486 25.8975C12.7716 25.7789 13.0952 25.9453 13.1649 26.2466L16.3828 40.1557C16.4986 40.656 17.2028 40.6777 17.3492 40.1856L21.4995 26.2329C21.5872 25.938 21.9179 25.7915 22.1952 25.9247L31.3682 30.3302C31.8257 30.5499 32.2816 30.0272 32.0018 29.6038L25.6538 20.0002C25.53 19.813 25.5461 19.5663 25.6932 19.3968L31.7971 12.3612C32.1309 11.9765 31.7429 11.3973 31.2601 11.5596L22.153 14.6213C21.8865 14.7109 21.5985 14.5632 21.5158 14.2944L17.3477 0.749075C17.198 0.26263 16.502 0.284771 16.3836 0.779747Z" fill="black"/>
</svg>
