<svg width="53" height="55" viewBox="0 0 53 55" fill="none" xmlns="http://www.w3.org/2000/svg">
<path d="M26.3505 0.473404L19.7441 17.7753C19.6173 18.1074 19.1941 18.2048 18.9348 17.9615L8.48345 8.15503C8.08548 7.78161 7.46239 8.22493 7.68469 8.72333L13.3818 21.4963C13.5293 21.827 13.2873 22.2 12.9252 22.2H0.795574C0.237565 22.2 0.0988467 22.9756 0.622263 23.169L12.9397 27.7206C13.2876 27.8492 13.3793 28.2986 13.1096 28.5532L1.90444 39.131C1.49164 39.5207 1.94461 40.1877 2.45906 39.9477L16.4327 33.4288C16.819 33.2486 17.2392 33.6035 17.1262 34.0145L11.5815 54.1745C11.4323 54.7169 12.1538 55.0543 12.4744 54.5921L23.6261 38.5132C23.8207 38.2327 24.233 38.2254 24.4374 38.4988L34.9831 52.6019C35.3074 53.0356 35.9935 52.7163 35.8704 52.1889L32.0729 35.9145C31.9841 35.5335 32.3474 35.2026 32.7184 35.3267L48.3054 40.538C48.8135 40.7078 49.1968 40.0679 48.8072 39.7002L37.0342 28.5864C36.7563 28.324 36.8636 27.8594 37.2285 27.7455L51.8681 23.1773C52.4149 23.0067 52.2919 22.2 51.7192 22.2H37.4363C37.02 22.2 36.786 21.7211 37.0418 21.3928L44.9447 11.2466C45.2902 10.8031 44.7539 10.215 44.2805 10.5184L32.453 18.0976C32.1658 18.2816 31.7828 18.1305 31.6986 17.8L27.3021 0.528418C27.1817 0.0554836 26.5245 0.0174925 26.3505 0.473404Z" fill="black"/>
</svg>
