<svg width="38" height="43" viewBox="0 0 38 43" fill="none" xmlns="http://www.w3.org/2000/svg">
<path d="M17.5195 0.967603L14.372 15.4407C14.3123 15.7151 14.0384 15.8866 13.7654 15.8203L0.912675 12.6997C0.408828 12.5774 0.0747653 13.2083 0.459139 13.5562L9.15596 21.4294C9.36055 21.6146 9.37639 21.9306 9.19134 22.1353L0.637412 31.6C0.272655 32.0036 0.723676 32.6171 1.2177 32.3893L10.6766 28.0285C11.0591 27.8522 11.4749 28.1988 11.3703 28.6068L8.06091 41.506C7.92431 42.0384 8.6219 42.3693 8.94783 41.9267L17.5721 30.2154C17.7636 29.9554 18.1476 29.9424 18.3563 30.1888L28.5428 42.2172C28.8912 42.6286 29.5543 42.2734 29.4048 41.7554L25.5001 28.2269C25.4078 27.9072 25.6478 27.5882 25.9805 27.5882H36.893C37.42 27.5882 37.5885 26.8783 37.1177 26.6416L27.9769 22.0443C27.6914 21.9007 27.612 21.5299 27.8136 21.2821L35.6566 11.6399C35.9835 11.238 35.5585 10.6653 35.0791 10.8617L23.2041 15.7281C22.9273 15.8416 22.6135 15.6882 22.5329 15.4001L18.4896 0.939217C18.3492 0.437104 17.6303 0.45814 17.5195 0.967603Z" fill="black"/>
</svg>
