<svg width="300" height="484" viewBox="0 0 300 484" fill="none" xmlns="http://www.w3.org/2000/svg">
<path d="M86.7572 89.117C100.553 121.905 137.438 137.64 169.123 124.307C200.808 110.975 215.347 73.6034 201.552 40.8157C187.756 8.02805 150.871 -7.70679 119.186 5.62525C87.5004 18.9573 72.9614 56.3293 86.7572 89.117Z" fill="#E7A600" stroke="black"/>
<path d="M186.366 250.105C188.623 254.545 191.691 261.754 193.213 266.488C194.735 271.221 195.483 276.311 194.644 281.233C194.268 283.472 193.483 285.75 191.791 287.267C190.055 288.807 187.601 289.287 185.305 289.157C180.804 288.907 176.509 286.42 174.033 282.665C170.828 277.771 170.85 271.455 171.706 265.651C172.305 261.596 173.301 257.479 175.698 254.168C178.095 250.858 182.167 248.498 186.202 249.147L186.366 250.105Z" fill="#FFD942" stroke="black" stroke-miterlimit="10"/>
<path d="M137.264 190.096C145.747 168.852 175.077 152.386 186.668 132.642C198.258 112.897 207.051 89.8025 202.095 67.4018C197.048 44.5665 178.356 26.5866 157.402 15.7595C149.817 11.8401 141.548 8.614 133.027 8.9031C118.489 9.42099 106.263 20.1747 98.383 32.2417C90.8416 43.8093 85.9632 57.5451 87.0366 71.3353C88.1101 85.1255 95.85 98.8186 108.336 105.039C120.822 111.26 137.859 108.375 145.891 97.1166C150.083 91.2145 151.6 83.7476 151.354 76.5024C151.131 69.6695 149.04 62.265 143.496 58.213C142.045 57.1414 140.22 56.7604 138.492 56.2335C123.292 51.4496 116.276 71.8713 124.685 80.1058C127.011 82.3687 130.395 83.8814 133.551 83.067C136.706 82.2525 139.022 78.5358 137.596 75.6235C136.553 73.5174 133.477 73.0405 131.621 74.1184C130.238 74.9172 128.364 74.3686 128.07 72.8057C127.624 70.4346 128.59 67.6539 130.775 66.428C134.159 64.4965 138.142 66.7829 140.823 69.6154C143.45 72.3797 144.266 81.6053 140.834 85.9275C135.695 92.3878 123.818 90.5912 117.111 85.6865C110.404 80.7818 108.512 69.3128 110.049 61.2195C112.406 48.8805 124.604 36.6721 137.264 37.7821C146.288 38.5654 157.677 43.4136 162.294 51.1699C166.91 58.9263 171.5 71.5329 170.677 80.437C167.037 119.386 133.339 146.977 128.07 185.735" fill="#FFD942"/>
<path d="M137.264 190.096C145.747 168.852 175.077 152.386 186.668 132.642C198.258 112.897 207.051 89.8025 202.095 67.4018C197.048 44.5665 178.356 26.5866 157.402 15.7595C149.817 11.8401 141.548 8.614 133.027 8.9031C118.489 9.42099 106.263 20.1747 98.383 32.2417C90.8416 43.8093 85.9632 57.5451 87.0366 71.3353C88.1101 85.1255 95.85 98.8186 108.336 105.039C120.822 111.26 137.859 108.375 145.891 97.1166C150.083 91.2145 151.6 83.7476 151.354 76.5024C151.131 69.6695 149.04 62.265 143.496 58.213C142.045 57.1414 140.22 56.7604 138.492 56.2335C123.292 51.4496 116.276 71.8713 124.685 80.1058C127.011 82.3687 130.395 83.8814 133.551 83.067C136.706 82.2525 139.022 78.5358 137.596 75.6235C136.553 73.5174 133.477 73.0405 131.621 74.1184C130.238 74.9172 128.364 74.3686 128.07 72.8057C127.624 70.4346 128.59 67.6539 130.775 66.428C134.159 64.4965 138.142 66.7829 140.823 69.6154C143.45 72.3797 144.266 81.6053 140.834 85.9275C135.695 92.3878 123.818 90.5912 117.111 85.6865C110.404 80.7818 108.512 69.3128 110.049 61.2195C112.406 48.8805 124.604 36.6721 137.264 37.7821C146.288 38.5654 157.677 43.4136 162.294 51.1699C166.91 58.9263 171.5 71.5329 170.677 80.437C167.037 119.386 133.339 146.977 128.07 185.735" stroke="black" stroke-miterlimit="10"/>
<path d="M152.887 314.71C155.812 305.679 157.211 303.616 160.946 294.882C164.41 286.76 167.533 280.058 171.34 272.102L181.789 258.645C184.155 255.608 186.006 252.236 187.628 248.753C189.052 245.717 191.381 242.97 192.633 239.822C196.222 230.72 190.158 220.911 184.384 213.025C180.279 207.409 176.088 201.709 170.496 197.619C165.041 193.629 158.533 191.341 152.096 189.245C135.863 183.941 117.828 179.44 102.09 186.091C96.1172 188.617 90.8829 192.605 86.0789 196.958C77.2462 204.949 69.506 214.535 65.5737 225.773C63.0642 232.973 62.1789 240.636 61.52 248.239C59.8626 267.338 59.473 286.541 60.3662 305.682C61.0353 320.335 62.4653 334.967 62.2485 349.619C61.8843 374.757 56.7679 399.545 53.2545 424.449C52.7308 428.151 52.2782 432.102 53.8125 435.499C55.6676 439.603 59.1914 444.561 63.1861 446.631C66.5007 448.351 71.316 447.796 74.5229 445.726C75.8982 444.844 76.9499 443.501 77.602 441.992C82.8309 429.942 86.7352 417.317 89.1878 404.399C91.4863 392.375 94.4603 377.471 110.499 378.371C113.704 378.547 116.794 379.554 119.674 380.984C124.713 383.501 130.552 385.406 134.729 389.44C138.676 393.25 140.745 398.574 142.703 403.711C146.966 414.907 151.212 426.098 155.48 437.277C158.436 445.074 161.559 453.112 169.242 457.796C172.446 459.745 176.321 460.362 179.963 459.525C181.022 459.279 182.091 458.884 182.877 458.135C184.096 456.977 186.221 451.863 186.474 450.188C188.361 437.919 186.393 428.683 184.168 416.478C179.599 391.499 166.692 368.895 159.285 344.595C151.163 317.933 149.808 289.623 151.282 261.782" fill="#FFD942"/>
<path d="M152.887 314.71C155.812 305.679 157.211 303.616 160.946 294.882C164.41 286.76 167.533 280.058 171.34 272.102L181.789 258.645C184.155 255.608 186.006 252.236 187.628 248.753C189.052 245.717 191.381 242.97 192.633 239.822C196.222 230.72 190.158 220.911 184.384 213.025C180.279 207.409 176.088 201.709 170.496 197.619C165.041 193.629 158.533 191.341 152.096 189.245C135.863 183.941 117.828 179.44 102.09 186.091C96.1172 188.617 90.8829 192.605 86.0789 196.958C77.2462 204.949 69.506 214.535 65.5737 225.773C63.0642 232.973 62.1789 240.636 61.52 248.239C59.8626 267.338 59.473 286.541 60.3662 305.682C61.0353 320.335 62.4653 334.967 62.2485 349.619C61.8843 374.757 56.7679 399.545 53.2545 424.449C52.7308 428.151 52.2782 432.102 53.8125 435.499C55.6676 439.603 59.1914 444.561 63.1861 446.631C66.5007 448.351 71.316 447.796 74.5229 445.726C75.8982 444.844 76.9499 443.501 77.602 441.992C82.8309 429.942 86.7352 417.317 89.1878 404.399C91.4863 392.375 94.4603 377.471 110.499 378.371C113.704 378.547 116.794 379.554 119.674 380.984C124.713 383.501 130.552 385.406 134.729 389.44C138.676 393.25 140.745 398.574 142.703 403.711C146.966 414.907 151.212 426.098 155.48 437.277C158.436 445.074 161.559 453.112 169.242 457.796C172.446 459.745 176.321 460.362 179.963 459.525C181.022 459.279 182.091 458.884 182.877 458.135C184.096 456.977 186.221 451.863 186.474 450.188C188.361 437.919 186.393 428.683 184.168 416.478C179.599 391.499 166.692 368.895 159.285 344.595C151.163 317.933 149.808 289.623 151.282 261.782" stroke="black" stroke-miterlimit="10"/>
<path d="M141.289 330.951C143.844 320.953 143.181 310.172 139.511 300.543C138.462 297.81 134.875 297.117 132.907 299.262C127.402 305.278 122.787 312.107 119.245 319.468C118.586 320.824 117.268 321.761 115.763 321.752C111.271 321.769 106.775 322.502 102.499 323.966C101.272 324.385 99.9485 324.868 98.6842 324.577C97.8242 324.378 97.1134 323.83 96.4142 323.304C89.3465 317.874 82.7571 311.596 75.066 307.23C72.4985 305.768 69.2259 307.571 69.1531 310.511C69.0886 312.718 69.2061 314.945 69.4823 317.147C69.9253 320.478 70.7543 323.782 70.6582 327.149C70.4709 332.864 67.603 338.119 66.278 343.679C64.6552 350.464 65.3709 357.601 66.5491 364.471C67.5872 370.54 69.076 376.792 72.9665 381.546C76.8221 386.233 82.5676 388.9 88.2768 390.915C92.8853 392.539 97.649 393.855 102.511 394.333C109.772 395.032 117.073 393.836 124.26 392.643C131.805 391.393 139.891 389.864 145.215 384.356C146.707 382.814 147.907 381.008 148.952 379.153C156.282 366.133 156.068 349.172 148.424 336.347C146.853 333.712 144.669 331.051 141.637 330.685" fill="#FFD942"/>
<path d="M141.289 330.951C143.844 320.953 143.181 310.172 139.511 300.543C138.462 297.81 134.875 297.117 132.907 299.262C127.402 305.278 122.787 312.107 119.245 319.468C118.586 320.824 117.268 321.761 115.763 321.752C111.271 321.769 106.775 322.502 102.499 323.966C101.272 324.385 99.9485 324.868 98.6842 324.577C97.8242 324.378 97.1134 323.83 96.4142 323.304C89.3465 317.874 82.7571 311.596 75.066 307.23C72.4985 305.768 69.2259 307.571 69.1531 310.511C69.0886 312.718 69.2061 314.945 69.4823 317.147C69.9253 320.478 70.7543 323.782 70.6582 327.149C70.4709 332.864 67.603 338.119 66.278 343.679C64.6552 350.464 65.3709 357.601 66.5491 364.471C67.5872 370.54 69.076 376.792 72.9665 381.546C76.8221 386.233 82.5676 388.9 88.2768 390.915C92.8853 392.539 97.649 393.855 102.511 394.333C109.772 395.032 117.073 393.836 124.26 392.643C131.805 391.393 139.891 389.864 145.215 384.356C146.707 382.814 147.907 381.008 148.952 379.153C156.282 366.133 156.068 349.172 148.424 336.347C146.853 333.712 144.669 331.051 141.637 330.685" stroke="black" stroke-miterlimit="10"/>
<path d="M89.9728 376.636C82.051 377.073 75.3474 372.312 75 366.003C74.6526 359.694 80.7928 354.226 88.7146 353.79C96.6365 353.354 103.34 358.114 103.687 364.423C104.035 370.732 97.8946 376.2 89.9728 376.636Z" fill="white" stroke="black" stroke-miterlimit="10"/>
<path fill-rule="evenodd" clip-rule="evenodd" d="M86.0908 354.127C90.2244 355.929 93.0925 359.354 93.3166 363.423C93.6246 369.015 88.8352 373.947 82.2259 375.299C78.0923 373.497 75.2242 370.072 75.0001 366.003C74.6922 360.411 79.4816 355.479 86.0908 354.127Z" fill="black"/>
<path d="M86.0908 354.127L85.9906 353.637L86.1456 353.606L86.2906 353.669L86.0908 354.127ZM93.3166 363.423L93.8158 363.396L93.3166 363.423ZM82.2259 375.299L82.3262 375.789L82.1712 375.821L82.0261 375.757L82.2259 375.299ZM75.0001 366.003L74.5009 366.031L74.5009 366.031L75.0001 366.003ZM86.2906 353.669C90.5496 355.526 93.5788 359.091 93.8158 363.396L92.8173 363.451C92.6062 359.617 89.8992 356.333 85.891 354.586L86.2906 353.669ZM93.8158 363.396C94.142 369.318 89.0871 374.406 82.3262 375.789L82.1257 374.809C88.5832 373.488 93.1071 368.713 92.8173 363.451L93.8158 363.396ZM82.0261 375.757C77.7671 373.901 74.738 370.335 74.5009 366.031L75.4994 365.976C75.7105 369.809 78.4175 373.093 82.4258 374.841L82.0261 375.757ZM74.5009 366.031C74.1748 360.108 79.2297 355.021 85.9906 353.637L86.191 354.617C79.7335 355.938 75.2096 360.714 75.4994 365.976L74.5009 366.031Z" fill="black"/>
<path d="M88.8965 354.231L87.388 344.915" stroke="black" stroke-miterlimit="10"/>
<path d="M81.698 355.402L75.693 348.122" stroke="black" stroke-miterlimit="10"/>
<path d="M96.5494 354.885L99.4292 345.878" stroke="black" stroke-miterlimit="10"/>
<path d="M132.58 374.721C124.658 375.157 117.954 370.397 117.607 364.088C117.26 357.779 123.4 352.311 131.322 351.875C139.243 351.438 145.947 356.199 146.294 362.508C146.642 368.817 140.502 374.285 132.58 374.721Z" fill="white" stroke="black" stroke-miterlimit="10"/>
<path fill-rule="evenodd" clip-rule="evenodd" d="M128.698 352.212C132.831 354.014 135.699 357.439 135.924 361.508C136.231 367.1 131.442 372.032 124.833 373.384C120.699 371.582 117.831 368.157 117.607 364.088C117.299 358.495 122.089 353.564 128.698 352.212Z" fill="black"/>
<path d="M128.698 352.212L128.598 351.722L128.753 351.69L128.898 351.753L128.698 352.212ZM135.924 361.508L136.423 361.48L135.924 361.508ZM124.833 373.384L124.933 373.874L124.778 373.905L124.633 373.842L124.833 373.384ZM117.607 364.088L117.108 364.115L117.108 364.115L117.607 364.088ZM128.898 351.753C133.157 353.61 136.186 357.176 136.423 361.48L135.424 361.535C135.213 357.702 132.506 354.418 128.498 352.67L128.898 351.753ZM136.423 361.48C136.749 367.403 131.694 372.49 124.933 373.874L124.733 372.894C131.19 371.573 135.714 366.797 135.424 361.535L136.423 361.48ZM124.633 373.842C120.374 371.985 117.345 368.42 117.108 364.115L118.106 364.06C118.317 367.893 121.024 371.178 125.033 372.925L124.633 373.842ZM117.108 364.115C116.782 358.193 121.837 353.105 128.598 351.722L128.798 352.702C122.34 354.023 117.817 358.798 118.106 364.06L117.108 364.115Z" fill="black"/>
<path d="M131.503 352.315L129.995 343" stroke="black" stroke-miterlimit="10"/>
<path d="M124.305 353.487L118.3 346.207" stroke="black" stroke-miterlimit="10"/>
<path d="M139.156 352.97L142.036 343.962" stroke="black" stroke-miterlimit="10"/>
<path d="M106.934 391.243C109.604 393.847 113.201 393.604 114.797 390.732" stroke="black" stroke-miterlimit="10"/>
<path d="M104.152 387.292C104.286 389.185 107.254 391.894 110.66 391.653C114.067 391.411 116.623 388.311 116.489 386.418C116.355 384.526 113.484 383.187 110.078 383.428C106.671 383.67 104.018 385.399 104.152 387.292Z" fill="black"/>
<path d="M80.8247 379.982L46.4707 369.676" stroke="black"/>
<path d="M81.5229 384.517L45.7726 381.631" stroke="black"/>
<path d="M140.647 378.564L173.503 364.18" stroke="black"/>
<path d="M140.503 383.15L175.642 375.962" stroke="black"/>
<ellipse cx="8.04006" cy="5.69504" rx="8.04006" ry="5.69504" transform="matrix(-0.926849 0.375433 0.375433 0.926849 137.513 374)" fill="#FF6F92"/>
<ellipse cx="90.1485" cy="383.387" rx="8.04006" ry="5.69504" transform="rotate(22.0511 90.1485 383.387)" fill="#FF6F92"/>
</svg>
