<svg width="300" height="484" viewBox="0 0 300 484" fill="none" xmlns="http://www.w3.org/2000/svg">
<path d="M87.2846 89.117C101.08 121.905 137.965 137.64 169.65 124.307C201.336 110.975 215.875 73.6034 202.079 40.8157C188.283 8.02805 151.398 -7.70679 119.713 5.62525C88.0278 18.9573 73.4887 56.3293 87.2846 89.117Z" fill="#E7A600" stroke="black"/>
<path d="M186.894 250.105C189.15 254.545 192.218 261.754 193.74 266.488C195.262 271.221 196.01 276.311 195.172 281.233C194.795 283.472 194.01 285.75 192.319 287.267C190.582 288.807 188.129 289.287 185.833 289.157C181.331 288.907 177.036 286.42 174.561 282.665C171.356 277.771 171.377 271.455 172.233 265.651C172.832 261.596 173.828 257.479 176.225 254.168C178.622 250.858 182.694 248.498 186.729 249.147L186.894 250.105Z" fill="#FFD942" stroke="black" stroke-miterlimit="10"/>
<path d="M137.791 190.096C146.274 168.852 175.605 152.386 187.195 132.642C198.785 112.897 207.579 89.8024 202.623 67.4017C197.575 44.5665 178.883 26.5866 157.929 15.7594C150.344 11.84 142.076 8.61394 133.554 8.90304C119.016 9.42093 106.791 20.1746 98.9103 32.2416C91.369 43.8092 86.4905 57.5451 87.564 71.3353C88.6374 85.1254 96.3773 98.8186 108.863 105.039C121.349 111.26 138.386 108.375 146.418 97.1165C150.611 91.2144 152.127 83.7475 151.882 76.5024C151.658 69.6694 149.568 62.2649 144.023 58.2129C142.572 57.1413 140.747 56.7604 139.02 56.2334C123.82 51.4496 116.804 71.8712 125.213 80.1058C127.538 82.3686 130.923 83.8814 134.078 83.0669C137.234 82.2524 139.549 78.5358 138.123 75.6235C137.08 73.5173 134.005 73.0404 132.148 74.1184C130.766 74.9172 128.892 74.3686 128.597 72.8056C128.151 70.4345 129.117 67.6539 131.302 66.4279C134.687 64.4965 138.67 66.7829 141.351 69.6154C143.977 72.3796 144.793 81.6053 141.362 85.9274C136.222 92.3878 124.345 90.5911 117.638 85.6864C110.932 80.7817 109.039 69.3127 110.576 61.2194C112.933 48.8805 125.132 36.672 137.791 37.7821C146.815 38.5653 158.204 43.4135 162.821 51.1699C167.438 58.9263 172.028 71.5328 171.205 80.437C167.565 119.386 133.867 146.977 128.597 185.735" fill="#FFD942"/>
<path d="M137.791 190.096C146.274 168.852 175.605 152.386 187.195 132.642C198.785 112.897 207.579 89.8024 202.623 67.4017C197.575 44.5665 178.883 26.5866 157.929 15.7594C150.344 11.84 142.076 8.61394 133.554 8.90304C119.016 9.42093 106.791 20.1746 98.9103 32.2416C91.369 43.8092 86.4905 57.5451 87.564 71.3353C88.6374 85.1254 96.3773 98.8186 108.863 105.039C121.349 111.26 138.386 108.375 146.418 97.1165C150.611 91.2144 152.127 83.7475 151.882 76.5024C151.658 69.6694 149.568 62.2649 144.023 58.2129C142.572 57.1413 140.747 56.7604 139.02 56.2334C123.82 51.4496 116.804 71.8712 125.213 80.1058C127.538 82.3686 130.923 83.8814 134.078 83.0669C137.234 82.2524 139.549 78.5358 138.123 75.6235C137.08 73.5173 134.005 73.0404 132.148 74.1184C130.766 74.9172 128.892 74.3686 128.597 72.8056C128.151 70.4345 129.117 67.6539 131.302 66.4279C134.687 64.4965 138.67 66.7829 141.351 69.6154C143.977 72.3796 144.793 81.6053 141.362 85.9274C136.222 92.3878 124.345 90.5911 117.638 85.6864C110.932 80.7817 109.039 69.3127 110.576 61.2194C112.933 48.8805 125.132 36.672 137.791 37.7821C146.815 38.5653 158.204 43.4135 162.821 51.1699C167.438 58.9263 172.028 71.5328 171.205 80.437C167.565 119.386 133.867 146.977 128.597 185.735" stroke="black" stroke-miterlimit="10"/>
<path d="M153.414 314.71C156.339 305.679 157.738 303.616 161.473 294.882C164.938 286.76 168.061 280.058 171.867 272.102L182.316 258.645C184.682 255.608 186.533 252.236 188.156 248.753C189.579 245.717 191.909 242.97 193.16 239.822C196.749 230.72 190.685 220.911 184.912 213.025C180.806 207.409 176.615 201.709 171.023 197.619C165.568 193.629 159.061 191.341 152.624 189.245C136.391 183.941 118.356 179.44 102.618 186.091C96.6445 188.617 91.4102 192.605 86.6062 196.958C77.7735 204.949 70.0333 214.535 66.101 225.773C63.5915 232.973 62.7062 240.636 62.0473 248.239C60.3899 267.338 60.0003 286.541 60.8935 305.682C61.5627 320.335 62.9927 334.967 62.7759 349.619C62.4117 374.757 57.2953 399.545 53.7819 424.449C53.2581 428.151 52.8055 432.102 54.3398 435.499C56.1949 439.603 59.7187 444.561 63.7134 446.631C67.0281 448.351 71.8433 447.796 75.0502 445.726C76.4255 444.844 77.4772 443.501 78.1294 441.992C83.3582 429.942 87.2626 417.317 89.7151 404.399C92.0136 392.375 94.9877 377.471 111.026 378.371C114.231 378.547 117.322 379.554 120.201 380.984C125.241 383.501 131.079 385.406 135.256 389.44C139.204 393.25 141.272 398.574 143.231 403.711C147.493 414.907 151.739 426.098 156.007 437.277C158.963 445.074 162.086 453.112 169.77 457.796C172.973 459.745 176.849 460.362 180.49 459.525C181.55 459.279 182.618 458.884 183.404 458.135C184.623 456.977 186.749 451.863 187.001 450.188C188.888 437.919 186.92 428.683 184.696 416.478C180.126 391.499 167.219 368.895 159.813 344.595C151.69 317.933 150.336 289.623 151.809 261.782" fill="#FFD942"/>
<path d="M153.414 314.71C156.339 305.679 157.738 303.616 161.473 294.882C164.938 286.76 168.061 280.058 171.867 272.102L182.316 258.645C184.682 255.608 186.533 252.236 188.156 248.753C189.579 245.717 191.909 242.97 193.16 239.822C196.749 230.72 190.685 220.911 184.912 213.025C180.806 207.409 176.615 201.709 171.023 197.619C165.568 193.629 159.061 191.341 152.624 189.245C136.391 183.941 118.356 179.44 102.618 186.091C96.6445 188.617 91.4102 192.605 86.6062 196.958C77.7735 204.949 70.0333 214.535 66.101 225.773C63.5915 232.973 62.7062 240.636 62.0473 248.239C60.3899 267.338 60.0003 286.541 60.8935 305.682C61.5627 320.335 62.9927 334.967 62.7759 349.619C62.4117 374.757 57.2953 399.545 53.7819 424.449C53.2581 428.151 52.8055 432.102 54.3398 435.499C56.1949 439.603 59.7187 444.561 63.7134 446.631C67.0281 448.351 71.8433 447.796 75.0502 445.726C76.4255 444.844 77.4772 443.501 78.1294 441.992C83.3582 429.942 87.2626 417.317 89.7151 404.399C92.0136 392.375 94.9877 377.471 111.026 378.371C114.231 378.547 117.322 379.554 120.201 380.984C125.241 383.501 131.079 385.406 135.256 389.44C139.204 393.25 141.272 398.574 143.231 403.711C147.493 414.907 151.739 426.098 156.007 437.277C158.963 445.074 162.086 453.112 169.77 457.796C172.973 459.745 176.849 460.362 180.49 459.525C181.55 459.279 182.618 458.884 183.404 458.135C184.623 456.977 186.749 451.863 187.001 450.188C188.888 437.919 186.92 428.683 184.696 416.478C180.126 391.499 167.219 368.895 159.813 344.595C151.69 317.933 150.336 289.623 151.809 261.782" stroke="black" stroke-miterlimit="10"/>
<path d="M141.816 330.951C144.371 320.953 143.709 310.172 140.038 300.543C138.989 297.81 135.403 297.116 133.435 299.262C127.929 305.278 123.314 312.107 119.773 319.468C119.113 320.824 117.795 321.761 116.29 321.752C111.798 321.769 107.303 322.502 103.027 323.966C101.799 324.385 100.476 324.868 99.2116 324.577C98.3516 324.378 97.6408 323.83 96.9416 323.304C89.8739 317.873 83.2845 311.595 75.5934 307.23C73.0258 305.767 69.7532 307.571 69.6804 310.511C69.6159 312.718 69.7334 314.945 70.0096 317.147C70.4527 320.478 71.2816 323.782 71.1855 327.149C70.9982 332.864 68.1304 338.119 66.8053 343.679C65.1825 350.464 65.8982 357.601 67.0765 364.47C68.1145 370.54 69.6034 376.792 73.4939 381.546C77.3494 386.233 83.0949 388.9 88.8042 390.915C93.4126 392.539 98.1764 393.854 103.038 394.333C110.299 395.031 117.6 393.836 124.787 392.642C132.332 391.393 140.418 389.864 145.742 384.356C147.235 382.814 148.434 381.008 149.48 379.153C156.81 366.133 156.596 349.172 148.951 336.347C147.381 333.712 145.196 331.05 142.165 330.685" fill="#FFD942"/>
<path d="M141.816 330.951C144.371 320.953 143.709 310.172 140.038 300.543C138.989 297.81 135.403 297.116 133.435 299.262C127.929 305.278 123.314 312.107 119.773 319.468C119.113 320.824 117.795 321.761 116.29 321.752C111.798 321.769 107.303 322.502 103.027 323.966C101.799 324.385 100.476 324.868 99.2116 324.577C98.3516 324.378 97.6408 323.83 96.9416 323.304C89.8739 317.873 83.2845 311.595 75.5934 307.23C73.0258 305.767 69.7532 307.571 69.6804 310.511C69.6159 312.718 69.7334 314.945 70.0096 317.147C70.4527 320.478 71.2816 323.782 71.1855 327.149C70.9982 332.864 68.1304 338.119 66.8053 343.679C65.1825 350.464 65.8982 357.601 67.0765 364.47C68.1145 370.54 69.6034 376.792 73.4939 381.546C77.3494 386.233 83.0949 388.9 88.8042 390.915C93.4126 392.539 98.1764 393.854 103.038 394.333C110.299 395.031 117.6 393.836 124.787 392.642C132.332 391.393 140.418 389.864 145.742 384.356C147.235 382.814 148.434 381.008 149.48 379.153C156.81 366.133 156.596 349.172 148.951 336.347C147.381 333.712 145.196 331.05 142.165 330.685" stroke="black" stroke-miterlimit="10"/>
<path d="M127.018 372.518C119.461 370.102 115.296 362.01 117.715 354.444C120.134 346.879 128.221 342.704 135.778 345.12C143.335 347.536 147.5 355.628 145.081 363.194C142.662 370.76 134.575 374.934 127.018 372.518Z" fill="white" stroke="black" stroke-miterlimit="10"/>
<path d="M130.547 344.203L129.039 334.887" stroke="black" stroke-miterlimit="10"/>
<path d="M123.332 346.369L117.344 339.094" stroke="black" stroke-miterlimit="10"/>
<path d="M138.188 345.834L141.063 336.844" stroke="black" stroke-miterlimit="10"/>
<path d="M84.8942 374.546C77.3372 372.13 73.1721 364.038 75.591 356.472C78.01 348.907 86.0971 344.732 93.6541 347.148C101.211 349.564 105.376 357.656 102.957 365.222C100.538 372.788 92.4512 376.962 84.8942 374.546Z" fill="white" stroke="black" stroke-miterlimit="10"/>
<path d="M91.1178 366.656C88.4037 369.957 84.5051 371.726 80.5374 371.881C80.3985 371.767 80.2482 371.667 80.1093 371.553C73.9714 366.506 73.0825 357.453 78.1231 351.322C80.8373 348.021 84.7359 346.252 88.7036 346.096C88.8425 346.211 88.9927 346.311 89.1316 346.425C95.2696 351.472 96.1584 360.525 91.1178 366.656Z" fill="black"/>
<path d="M133.118 364.656C130.404 367.957 126.505 369.726 122.537 369.881C122.398 369.767 122.248 369.667 122.109 369.553C115.971 364.506 115.083 355.453 120.123 349.322C122.837 346.021 126.736 344.252 130.704 344.097C130.842 344.211 130.993 344.311 131.132 344.425C137.27 349.472 138.158 358.525 133.118 364.656Z" fill="black"/>
<path d="M88.4238 346.231L86.9154 336.915" stroke="black" stroke-miterlimit="10"/>
<path d="M81.2254 348.402L75.2204 341.122" stroke="black" stroke-miterlimit="10"/>
<path d="M96.0767 347.885L98.9565 338.878" stroke="black" stroke-miterlimit="10"/>
<path d="M107.461 391.243C110.131 393.847 113.729 393.604 115.324 390.732" stroke="black" stroke-miterlimit="10"/>
<path d="M104.68 387.292C104.814 389.184 107.781 391.894 111.188 391.652C114.594 391.411 117.15 388.311 117.016 386.418C116.882 384.525 114.012 383.187 110.605 383.428C107.199 383.669 104.546 385.399 104.68 387.292Z" fill="black"/>
<path d="M81.3521 379.982L46.998 369.676" stroke="black"/>
<path d="M82.0503 384.517L46.2999 381.631" stroke="black"/>
<path d="M141.175 378.564L174.031 364.179" stroke="black"/>
<path d="M141.03 383.15L176.169 375.962" stroke="black"/>
<ellipse cx="8.04006" cy="5.69504" rx="8.04006" ry="5.69504" transform="matrix(-0.926849 0.375433 0.375433 0.926849 138.041 374)" fill="#FF6F92"/>
<ellipse cx="90.6759" cy="383.387" rx="8.04006" ry="5.69504" transform="rotate(22.0511 90.6759 383.387)" fill="#FF6F92"/>
<path d="M140 370L143 375" stroke="black"/>
<path d="M133.11 373.025L133.914 378.8" stroke="black"/>
<path d="M126.844 372L124.919 377.504" stroke="black"/>
<path d="M96.4631 372.842L98.8629 378.156" stroke="black"/>
<path d="M89.2683 375.047L89.3968 380.877" stroke="black"/>
<path d="M83.1636 373.302L80.6136 378.546" stroke="black"/>
</svg>
