<svg width="300" height="484" viewBox="0 0 300 484" fill="none" xmlns="http://www.w3.org/2000/svg">
<path d="M86.7572 89.117C100.553 121.905 137.438 137.64 169.123 124.307C200.808 110.975 215.347 73.6034 201.552 40.8157C187.756 8.02805 150.871 -7.70679 119.186 5.62525C87.5004 18.9573 72.9614 56.3293 86.7572 89.117Z" fill="#E7A600" stroke="black"/>
<path d="M186.366 250.105C188.623 254.545 191.691 261.754 193.213 266.488C194.735 271.221 195.483 276.311 194.644 281.233C194.268 283.472 193.483 285.75 191.791 287.267C190.055 288.807 187.601 289.287 185.305 289.157C180.804 288.907 176.509 286.42 174.033 282.665C170.828 277.771 170.85 271.455 171.706 265.651C172.305 261.596 173.301 257.479 175.698 254.168C178.095 250.858 182.167 248.498 186.202 249.147L186.366 250.105Z" fill="#FFD942" stroke="black" stroke-miterlimit="10"/>
<path d="M137.264 190.096C145.747 168.852 175.077 152.386 186.668 132.642C198.258 112.897 207.051 89.8025 202.095 67.4018C197.048 44.5665 178.356 26.5866 157.402 15.7595C149.817 11.8401 141.548 8.614 133.027 8.9031C118.489 9.42099 106.263 20.1747 98.383 32.2417C90.8416 43.8093 85.9632 57.5451 87.0366 71.3353C88.1101 85.1255 95.85 98.8186 108.336 105.039C120.822 111.26 137.859 108.375 145.891 97.1166C150.083 91.2145 151.6 83.7476 151.354 76.5024C151.131 69.6695 149.04 62.265 143.496 58.213C142.045 57.1414 140.22 56.7604 138.492 56.2335C123.292 51.4496 116.276 71.8713 124.685 80.1058C127.011 82.3687 130.395 83.8814 133.551 83.067C136.706 82.2525 139.022 78.5358 137.596 75.6235C136.553 73.5174 133.477 73.0405 131.621 74.1184C130.238 74.9172 128.364 74.3686 128.07 72.8057C127.624 70.4346 128.59 67.6539 130.775 66.428C134.159 64.4965 138.142 66.7829 140.823 69.6154C143.45 72.3797 144.266 81.6053 140.834 85.9275C135.695 92.3878 123.818 90.5912 117.111 85.6865C110.404 80.7818 108.512 69.3128 110.049 61.2195C112.406 48.8805 124.604 36.6721 137.264 37.7821C146.288 38.5654 157.677 43.4136 162.294 51.1699C166.91 58.9263 171.5 71.5329 170.677 80.437C167.037 119.386 133.339 146.977 128.07 185.735" fill="#FFD942"/>
<path d="M137.264 190.096C145.747 168.852 175.077 152.386 186.668 132.642C198.258 112.897 207.051 89.8025 202.095 67.4018C197.048 44.5665 178.356 26.5866 157.402 15.7595C149.817 11.8401 141.548 8.614 133.027 8.9031C118.489 9.42099 106.263 20.1747 98.383 32.2417C90.8416 43.8093 85.9632 57.5451 87.0366 71.3353C88.1101 85.1255 95.85 98.8186 108.336 105.039C120.822 111.26 137.859 108.375 145.891 97.1166C150.083 91.2145 151.6 83.7476 151.354 76.5024C151.131 69.6695 149.04 62.265 143.496 58.213C142.045 57.1414 140.22 56.7604 138.492 56.2335C123.292 51.4496 116.276 71.8713 124.685 80.1058C127.011 82.3687 130.395 83.8814 133.551 83.067C136.706 82.2525 139.022 78.5358 137.596 75.6235C136.553 73.5174 133.477 73.0405 131.621 74.1184C130.238 74.9172 128.364 74.3686 128.07 72.8057C127.624 70.4346 128.59 67.6539 130.775 66.428C134.159 64.4965 138.142 66.7829 140.823 69.6154C143.45 72.3797 144.266 81.6053 140.834 85.9275C135.695 92.3878 123.818 90.5912 117.111 85.6865C110.404 80.7818 108.512 69.3128 110.049 61.2195C112.406 48.8805 124.604 36.6721 137.264 37.7821C146.288 38.5654 157.677 43.4136 162.294 51.1699C166.91 58.9263 171.5 71.5329 170.677 80.437C167.037 119.386 133.339 146.977 128.07 185.735" stroke="black" stroke-miterlimit="10"/>
<path d="M152.887 314.71C155.812 305.679 157.211 303.616 160.946 294.882C164.41 286.76 167.533 280.058 171.34 272.102L181.789 258.645C184.155 255.608 186.006 252.236 187.628 248.753C189.052 245.717 191.381 242.97 192.633 239.822C196.222 230.72 190.158 220.911 184.384 213.025C180.279 207.409 176.088 201.709 170.496 197.619C165.041 193.629 158.533 191.341 152.096 189.245C135.863 183.941 117.828 179.44 102.09 186.091C96.1172 188.617 90.8829 192.605 86.0789 196.958C77.2462 204.949 69.506 214.535 65.5737 225.773C63.0642 232.973 62.1789 240.636 61.52 248.239C59.8626 267.338 59.473 286.541 60.3662 305.682C61.0353 320.335 62.4653 334.967 62.2485 349.619C61.8843 374.757 56.7679 399.545 53.2545 424.449C52.7308 428.151 52.2782 432.102 53.8125 435.499C55.6676 439.603 59.1914 444.561 63.1861 446.631C66.5007 448.351 71.316 447.796 74.5229 445.726C75.8982 444.844 76.9499 443.501 77.602 441.992C82.8309 429.942 86.7352 417.317 89.1878 404.399C91.4863 392.375 94.4603 377.471 110.499 378.371C113.704 378.547 116.794 379.554 119.674 380.984C124.713 383.501 130.552 385.406 134.729 389.44C138.676 393.25 140.745 398.574 142.703 403.711C146.966 414.907 151.212 426.098 155.48 437.277C158.436 445.074 161.559 453.112 169.242 457.796C172.446 459.745 176.321 460.362 179.963 459.525C181.022 459.279 182.091 458.884 182.877 458.135C184.096 456.977 186.221 451.863 186.474 450.188C188.361 437.919 186.393 428.683 184.168 416.478C179.599 391.499 166.692 368.895 159.285 344.595C151.163 317.933 149.808 289.623 151.282 261.782" fill="#FFD942"/>
<path d="M152.887 314.71C155.812 305.679 157.211 303.616 160.946 294.882C164.41 286.76 167.533 280.058 171.34 272.102L181.789 258.645C184.155 255.608 186.006 252.236 187.628 248.753C189.052 245.717 191.381 242.97 192.633 239.822C196.222 230.72 190.158 220.911 184.384 213.025C180.279 207.409 176.088 201.709 170.496 197.619C165.041 193.629 158.533 191.341 152.096 189.245C135.863 183.941 117.828 179.44 102.09 186.091C96.1172 188.617 90.8829 192.605 86.0789 196.958C77.2462 204.949 69.506 214.535 65.5737 225.773C63.0642 232.973 62.1789 240.636 61.52 248.239C59.8626 267.338 59.473 286.541 60.3662 305.682C61.0353 320.335 62.4653 334.967 62.2485 349.619C61.8843 374.757 56.7679 399.545 53.2545 424.449C52.7308 428.151 52.2782 432.102 53.8125 435.499C55.6676 439.603 59.1914 444.561 63.1861 446.631C66.5007 448.351 71.316 447.796 74.5229 445.726C75.8982 444.844 76.9499 443.501 77.602 441.992C82.8309 429.942 86.7352 417.317 89.1878 404.399C91.4863 392.375 94.4603 377.471 110.499 378.371C113.704 378.547 116.794 379.554 119.674 380.984C124.713 383.501 130.552 385.406 134.729 389.44C138.676 393.25 140.745 398.574 142.703 403.711C146.966 414.907 151.212 426.098 155.48 437.277C158.436 445.074 161.559 453.112 169.242 457.796C172.446 459.745 176.321 460.362 179.963 459.525C181.022 459.279 182.091 458.884 182.877 458.135C184.096 456.977 186.221 451.863 186.474 450.188C188.361 437.919 186.393 428.683 184.168 416.478C179.599 391.499 166.692 368.895 159.285 344.595C151.163 317.933 149.808 289.623 151.282 261.782" stroke="black" stroke-miterlimit="10"/>
<path d="M141.289 330.951C143.844 320.953 143.181 310.172 139.511 300.543C138.462 297.81 134.875 297.116 132.907 299.262C127.402 305.278 122.787 312.107 119.245 319.468C118.586 320.824 117.268 321.761 115.763 321.752C111.271 321.769 106.775 322.502 102.499 323.966C101.272 324.385 99.9485 324.868 98.6842 324.577C97.8242 324.378 97.1134 323.83 96.4142 323.304C89.3465 317.873 82.7571 311.595 75.066 307.23C72.4985 305.767 69.2259 307.571 69.1531 310.511C69.0886 312.718 69.2061 314.945 69.4823 317.147C69.9253 320.478 70.7543 323.782 70.6582 327.149C70.4709 332.864 67.603 338.119 66.278 343.679C64.6552 350.464 65.3709 357.601 66.5491 364.47C67.5872 370.54 69.076 376.792 72.9665 381.546C76.8221 386.233 82.5676 388.9 88.2768 390.915C92.8853 392.539 97.649 393.854 102.511 394.333C109.772 395.031 117.073 393.836 124.26 392.642C131.805 391.393 139.891 389.864 145.215 384.356C146.707 382.814 147.907 381.008 148.952 379.153C156.282 366.133 156.068 349.172 148.424 336.347C146.853 333.712 144.669 331.05 141.637 330.685" fill="#FFD942"/>
<path d="M141.289 330.951C143.844 320.953 143.181 310.172 139.511 300.543C138.462 297.81 134.875 297.116 132.907 299.262C127.402 305.278 122.787 312.107 119.245 319.468C118.586 320.824 117.268 321.761 115.763 321.752C111.271 321.769 106.775 322.502 102.499 323.966C101.272 324.385 99.9485 324.868 98.6842 324.577C97.8242 324.378 97.1134 323.83 96.4142 323.304C89.3465 317.873 82.7571 311.595 75.066 307.23C72.4985 305.767 69.2259 307.571 69.1531 310.511C69.0886 312.718 69.2061 314.945 69.4823 317.147C69.9253 320.478 70.7543 323.782 70.6582 327.149C70.4709 332.864 67.603 338.119 66.278 343.679C64.6552 350.464 65.3709 357.601 66.5491 364.47C67.5872 370.54 69.076 376.792 72.9665 381.546C76.8221 386.233 82.5676 388.9 88.2768 390.915C92.8853 392.539 97.649 393.854 102.511 394.333C109.772 395.031 117.073 393.836 124.26 392.642C131.805 391.393 139.891 389.864 145.215 384.356C146.707 382.814 147.907 381.008 148.952 379.153C156.282 366.133 156.068 349.172 148.424 336.347C146.853 333.712 144.669 331.05 141.637 330.685" stroke="black" stroke-miterlimit="10"/>
<path d="M89.9727 369.362C82.0509 369.798 75.5238 368.241 75.394 365.884C75.2642 363.527 81.5809 361.263 89.5027 360.827C97.4245 360.391 103.952 361.948 104.081 364.304C104.211 366.661 97.8945 368.925 89.9727 369.362Z" fill="white" stroke="black" stroke-miterlimit="10"/>
<path fill-rule="evenodd" clip-rule="evenodd" d="M90.052 360.8C91.2811 361.786 92.0161 362.963 92.0873 364.256C92.1927 366.17 90.8233 367.992 88.5005 369.42C81.2577 369.599 75.5158 368.093 75.3941 365.884C75.2643 363.527 81.581 361.263 89.5028 360.827C89.6867 360.817 89.8697 360.808 90.052 360.8Z" fill="black"/>
<path d="M90.052 360.8L90.0301 360.3L90.2182 360.292L90.365 360.41L90.052 360.8ZM92.0873 364.256L91.588 364.283L91.588 364.283L92.0873 364.256ZM88.5005 369.42L88.7624 369.846L88.6476 369.917L88.5128 369.92L88.5005 369.42ZM75.3941 365.884L74.8949 365.912L74.8949 365.912L75.3941 365.884ZM89.5028 360.827L89.4754 360.328L89.4754 360.328L89.5028 360.827ZM90.365 360.41C91.6656 361.454 92.5051 362.751 92.5865 364.228L91.588 364.283C91.5271 363.176 90.8965 362.119 89.739 361.19L90.365 360.41ZM92.5865 364.228C92.7071 366.418 91.1426 368.383 88.7624 369.846L88.2386 368.994C90.5039 367.601 91.6783 365.922 91.588 364.283L92.5865 364.228ZM88.5128 369.92C84.8597 370.011 81.5631 369.677 79.1477 369.031C77.9429 368.708 76.9287 368.301 76.196 367.809C75.4725 367.323 74.9379 366.693 74.8949 365.912L75.8934 365.857C75.9112 366.18 76.1399 366.567 76.7536 366.979C77.3581 367.385 78.2548 367.757 79.4061 368.065C81.7027 368.679 84.8985 369.009 88.4881 368.921L88.5128 369.92ZM74.8949 365.912C74.849 365.078 75.376 364.356 76.1202 363.768C76.8774 363.171 77.9585 362.631 79.2604 362.165C81.8705 361.229 85.4802 360.548 89.4754 360.328L89.5303 361.326C85.6037 361.542 82.0941 362.211 79.5979 363.106C78.3466 363.555 77.3777 364.05 76.7396 364.554C76.0883 365.067 75.8744 365.511 75.8934 365.857L74.8949 365.912ZM89.4754 360.328C89.661 360.317 89.846 360.308 90.0301 360.3L90.0739 361.299C89.8935 361.307 89.7123 361.316 89.5303 361.326L89.4754 360.328Z" fill="black"/>
<path d="M89.5177 360.39L88.5755 351" stroke="black" stroke-miterlimit="10"/>
<path d="M82.5853 361.519L76.5973 354.244" stroke="black" stroke-miterlimit="10"/>
<path d="M97.4421 360.984L100.316 351.994" stroke="black" stroke-miterlimit="10"/>
<path d="M132.08 367.362C124.159 367.798 117.631 366.241 117.502 363.884C117.372 361.527 123.689 359.263 131.61 358.827C139.532 358.391 146.059 359.948 146.189 362.304C146.319 364.661 140.002 366.925 132.08 367.362Z" fill="white" stroke="black" stroke-miterlimit="10"/>
<path fill-rule="evenodd" clip-rule="evenodd" d="M132.159 358.8C133.388 359.786 134.124 360.963 134.195 362.256C134.3 364.17 132.931 365.992 130.608 367.42C123.365 367.599 117.623 366.093 117.502 363.884C117.372 361.527 123.688 359.263 131.61 358.827C131.794 358.817 131.977 358.808 132.159 358.8Z" fill="black"/>
<path d="M132.159 358.8L132.138 358.3L132.326 358.292L132.472 358.41L132.159 358.8ZM134.195 362.256L133.695 362.283L133.695 362.283L134.195 362.256ZM130.608 367.42L130.87 367.846L130.755 367.917L130.62 367.92L130.608 367.42ZM117.502 363.884L117.002 363.912L117.002 363.912L117.502 363.884ZM131.61 358.827L131.638 359.326L131.61 358.827ZM132.472 358.41C133.773 359.454 134.613 360.751 134.694 362.228L133.695 362.283C133.634 361.176 133.004 360.119 131.846 359.19L132.472 358.41ZM134.694 362.228C134.815 364.418 133.25 366.383 130.87 367.846L130.346 366.994C132.611 365.601 133.786 363.922 133.695 362.283L134.694 362.228ZM130.62 367.92C126.967 368.011 123.671 367.677 121.255 367.031C120.05 366.708 119.036 366.301 118.303 365.809C117.58 365.323 117.045 364.693 117.002 363.912L118.001 363.857C118.019 364.18 118.247 364.567 118.861 364.979C119.466 365.385 120.362 365.757 121.514 366.065C123.81 366.679 127.006 367.009 130.596 366.921L130.62 367.92ZM117.002 363.912C116.956 363.078 117.483 362.356 118.228 361.768C118.985 361.171 120.066 360.631 121.368 360.165C123.978 359.229 127.588 358.548 131.583 358.328L131.638 359.326C127.711 359.542 124.202 360.211 121.705 361.106C120.454 361.555 119.485 362.05 118.847 362.554C118.196 363.067 117.982 363.511 118.001 363.857L117.002 363.912ZM131.583 358.328C131.768 358.317 131.953 358.308 132.138 358.3L132.181 359.299C132.001 359.307 131.82 359.316 131.638 359.326L131.583 358.328Z" fill="black"/>
<path d="M131.625 358.39L130.683 349" stroke="black" stroke-miterlimit="10"/>
<path d="M124.693 359.519L118.705 352.244" stroke="black" stroke-miterlimit="10"/>
<path d="M139.549 358.984L142.424 349.994" stroke="black" stroke-miterlimit="10"/>
<path d="M106.934 391.243C109.604 393.847 113.201 393.604 114.797 390.732" stroke="black" stroke-miterlimit="10"/>
<path d="M104.152 387.292C104.286 389.184 107.254 391.894 110.66 391.652C114.067 391.411 116.623 388.311 116.489 386.418C116.355 384.525 113.484 383.187 110.078 383.428C106.671 383.669 104.018 385.399 104.152 387.292Z" fill="black"/>
<path d="M80.8247 379.982L46.4707 369.676" stroke="black"/>
<path d="M81.5229 384.517L45.7726 381.631" stroke="black"/>
<path d="M140.647 378.564L173.503 364.179" stroke="black"/>
<path d="M140.503 383.15L175.642 375.962" stroke="black"/>
<ellipse cx="8.04006" cy="5.69504" rx="8.04006" ry="5.69504" transform="matrix(-0.926849 0.375433 0.375433 0.926849 137.513 374)" fill="#FF6F92"/>
<ellipse cx="90.1485" cy="383.387" rx="8.04006" ry="5.69504" transform="rotate(22.0511 90.1485 383.387)" fill="#FF6F92"/>
</svg>
