<?xml version="1.0" encoding="UTF-8"?><svg id="Layer_1" xmlns="http://www.w3.org/2000/svg" viewBox="0 0 431.74 244.74"><defs><style>.cls-1{fill:beige;font-family:Tropiline-Bold, Tropiline;font-size:60px;font-weight:700;}</style></defs><text class="cls-1" transform="translate(58.78 157.56) rotate(-41.33)"><tspan x="0" y="0">c</tspan></text><text class="cls-1" transform="translate(81.82 136.88) rotate(-32.09)"><tspan x="0" y="0">h</tspan></text><text class="cls-1" transform="translate(111.99 118) rotate(-22.95)"><tspan x="0" y="0">a</tspan></text><text class="cls-1" transform="translate(139.81 104.84) rotate(-12.28)"><tspan x="0" y="0">m</tspan></text><text class="cls-1" transform="translate(192.07 94.18) rotate(-1.19)"><tspan x="0" y="0">b</tspan></text><text class="cls-1" transform="translate(228.22 93.39) rotate(7.45)"><tspan x="0" y="0">e</tspan></text><text class="cls-1" transform="translate(262.1 97.96) rotate(15.2)"><tspan x="0" y="0">r</tspan></text><text class="cls-1" transform="translate(288.46 105.37) rotate(20.79)"><tspan x="0" y="0">l</tspan></text><text class="cls-1" transform="translate(303.24 110.39) rotate(27.2)"><tspan x="0" y="0">a</tspan></text><text class="cls-1" transform="translate(331.83 125.52) rotate(33.69)"><tspan x="0" y="0">i</tspan></text><text class="cls-1" transform="translate(345.24 133.61) rotate(40.89)"><tspan x="0" y="0">n</tspan></text><text class="cls-1" transform="translate(129.22 177.09) rotate(-18.2)"><tspan x="0" y="0">c</tspan></text><text class="cls-1" transform="translate(159.25 167) rotate(-9.73)"><tspan x="0" y="0">o</tspan></text><text class="cls-1" transform="translate(193.13 160.96) rotate(-.83)"><tspan x="0" y="0">ff</tspan></text><text class="cls-1" transform="translate(235.84 160.78) rotate(9.27)"><tspan x="0" y="0">e</tspan></text><text class="cls-1" transform="translate(269.45 166.14) rotate(17.95)"><tspan x="0" y="0">e</tspan></text></svg>