<?xml version="1.0" encoding="UTF-8"?><svg id="Layer_1" xmlns="http://www.w3.org/2000/svg" viewBox="0 0 386 241"><defs><style>.cls-1{fill:beige;font-family:Tropiline-Bold, Tropiline;font-size:34px;font-weight:700;}</style></defs><text class="cls-1" transform="translate(53.41 134.99) rotate(38.23)"><tspan x="0" y="0">i</tspan></text><text class="cls-1" transform="translate(61.73 141.77) rotate(33.65)"><tspan x="0" y="0">n</tspan></text><text class="cls-1" transform="translate(80.13 153.68) rotate(29.31)"><tspan x="0" y="0"> </tspan></text><text class="cls-1" transform="translate(88.62 158.73) rotate(24.68)"><tspan x="0" y="0">C</tspan></text><text class="cls-1" transform="translate(111.45 169) rotate(18.66)"><tspan x="0" y="0">a</tspan></text><text class="cls-1" transform="translate(130.35 175.18) rotate(14.78)"><tspan x="0" y="0">l</tspan></text><text class="cls-1" transform="translate(140.14 177.75) rotate(12.18)"><tspan x="0" y="0">i</tspan></text><text class="cls-1" transform="translate(150.25 179.96) rotate(9.1)"><tspan x="0" y="0">f</tspan></text><text class="cls-1" transform="translate(164.02 182.28) rotate(4.71)"><tspan x="0" y="0">o</tspan></text><text class="cls-1" transform="translate(185.58 184.02) rotate(-.83)"><tspan x="0" y="0">r</tspan></text><text class="cls-1" transform="translate(202.81 183.94) rotate(-4.87)"><tspan x="0" y="0">n</tspan></text><text class="cls-1" transform="translate(224.34 181.88) rotate(-8.87)"><tspan x="0" y="0">i</tspan></text><text class="cls-1" transform="translate(234.79 180.39) rotate(-12.76)"><tspan x="0" y="0">a</tspan></text><text class="cls-1" transform="translate(254.49 175.72) rotate(-16.76)"><tspan x="0" y="0">,</tspan></text><text class="cls-1" transform="translate(264.56 172.66) rotate(-19.33)"><tspan x="0" y="0"> </tspan></text><text class="cls-1" transform="translate(273.87 169.63) rotate(-23.69)"><tspan x="0" y="0">U</tspan></text><text class="cls-1" transform="translate(295.82 159.92) rotate(-30.22)"><tspan x="0" y="0">S</tspan></text><text class="cls-1" transform="translate(317.16 147.38) rotate(-37.1)"><tspan x="0" y="0">A</tspan></text><text class="cls-1" transform="translate(51.03 90.89) rotate(37.91)"><tspan x="0" y="0">r</tspan></text><text class="cls-1" transform="translate(64.82 101.67) rotate(32.41)"><tspan x="0" y="0">o</tspan></text><text class="cls-1" transform="translate(83.25 113.26) rotate(26.68)"><tspan x="0" y="0">a</tspan></text><text class="cls-1" transform="translate(102.11 122.6) rotate(21.23)"><tspan x="0" y="0">s</tspan></text><text class="cls-1" transform="translate(120 129.41) rotate(16.87)"><tspan x="0" y="0">t</tspan></text><text class="cls-1" transform="translate(133.94 133.73) rotate(12.27)"><tspan x="0" y="0">e</tspan></text><text class="cls-1" transform="translate(155.04 138.28) rotate(6.64)"><tspan x="0" y="0">d</tspan></text><text class="cls-1" transform="translate(177.59 140.64) rotate(2.63)"><tspan x="0" y="0"> </tspan></text><text class="cls-1" transform="translate(187.28 141.41) rotate(-1.95)"><tspan x="0" y="0">w</tspan></text><text class="cls-1" transform="translate(215.26 140.04) rotate(-6.75)"><tspan x="0" y="0">i</tspan></text><text class="cls-1" transform="translate(225.53 138.86) rotate(-9.83)"><tspan x="0" y="0">t</tspan></text><text class="cls-1" transform="translate(239.95 136.47) rotate(-14.51)"><tspan x="0" y="0">h</tspan></text><text class="cls-1" transform="translate(261.21 130.7) rotate(-18.61)"><tspan x="0" y="0"> </tspan></text><text class="cls-1" transform="translate(270.04 127.72) rotate(-21.14)"><tspan x="0" y="0">l</tspan></text><text class="cls-1" transform="translate(279.95 124.07) rotate(-25.39)"><tspan x="0" y="0">o</tspan></text><text class="cls-1" transform="translate(299.69 114.57) rotate(-30.99)"><tspan x="0" y="0">v</tspan></text><text class="cls-1" transform="translate(316.2 104.65) rotate(-36.59)"><tspan x="0" y="0">e</tspan></text></svg>