<svg width="236" height="315" viewBox="0 0 236 315" fill="none" xmlns="http://www.w3.org/2000/svg">
<g clip-path="url(#clip0_133_2912)">
<path d="M168.966 34.0964L196.674 20.2604C198.574 19.3046 200.897 20.1194 201.777 22.0624L234.854 92.2452C235.655 93.9845 235.011 96.0528 233.362 97.04L206.8 110.437C204.916 111.565 202.452 110.845 201.478 108.87L167.239 39.1106C166.329 37.2616 167.082 35.0209 168.935 34.0964H168.966Z" fill="#702929" stroke="black" stroke-miterlimit="10"/>
<path d="M209.579 36.8229L175.042 54.8426" stroke="black"/>
<path d="M218.213 56.4095L183.676 74.4292" stroke="black"/>
<path d="M227.633 75.2126L193.095 93.2323" stroke="black"/>
<path d="M31.8527 229.571C26.8291 240.21 23.6109 251.696 22.3393 263.385C21.0834 275.075 21.8997 287.406 27.6455 297.67C33.3912 307.933 44.9298 315.533 56.6097 314.028C58.7919 313.746 61.1624 313.01 62.2613 311.114C64.2865 307.635 60.5815 303.42 56.7667 302.167C52.9519 300.913 48.5406 300.929 45.3851 298.422C59.2942 291.794 73.4075 281.922 77.081 266.989C79.9695 255.284 75.1343 242.059 65.3854 234.946C55.6364 227.832 41.5389 227.283 31.2405 233.598L31.837 229.602L31.8527 229.571Z" fill="#B25C5C" stroke="black" stroke-miterlimit="10"/>
<path d="M90.9588 223.366C100.582 220.859 111.147 222.144 119.892 226.907C128.636 231.671 135.418 239.85 138.51 249.283C135.779 245.193 140.818 239.286 145.653 240.116C150.489 240.947 153.534 246.274 153.456 251.179C153.377 256.083 151.007 260.643 148.62 264.937C145.795 269.998 142.765 275.122 138.259 278.788C133.754 282.455 127.411 284.382 122.011 282.251C117.725 280.559 114.727 276.673 110.802 274.244C103.675 269.825 94.648 270.734 86.2805 270.28C67.7402 269.246 49.7494 260.33 37.7241 246.212C25.6989 232.094 19.7647 212.946 21.7114 194.519C18.6972 200.536 9.27791 201.319 4.50548 196.571C-0.266953 191.824 -0.235556 183.55 3.59495 178.019C6.02826 174.525 9.89017 171.924 14.1288 171.532C18.3675 171.14 22.8888 173.224 24.8825 176.985C36.9392 143.891 56.5941 113.587 81.9162 89.0643C101.053 70.5118 132.765 70.9506 158.793 76.7639C164.884 78.1271 171.164 80.0388 177.255 78.6912C182.467 77.5474 187.208 74.0531 192.546 74.2725C200.207 74.5859 205.497 82.5615 206.518 90.1455C208.37 103.919 200.709 117.128 192.075 128.034C178.071 145.693 160.677 160.673 141.101 171.877C145.591 199.314 146.642 213.118 129.515 235.04" fill="#B25C5C"/>
<path d="M90.9588 223.366C100.582 220.859 111.147 222.144 119.892 226.907C128.636 231.671 135.418 239.85 138.51 249.283C135.779 245.193 140.818 239.286 145.653 240.116C150.489 240.947 153.534 246.274 153.456 251.179C153.377 256.083 151.007 260.643 148.62 264.937C145.795 269.998 142.765 275.122 138.259 278.788C133.754 282.455 127.411 284.382 122.011 282.251C117.725 280.559 114.727 276.673 110.802 274.244C103.675 269.825 94.648 270.734 86.2805 270.28C67.7402 269.246 49.7494 260.33 37.7241 246.212C25.6989 232.094 19.7647 212.946 21.7114 194.519C18.6972 200.536 9.27791 201.319 4.50548 196.571C-0.266953 191.824 -0.235556 183.55 3.59495 178.019C6.02826 174.525 9.89017 171.924 14.1288 171.532C18.3675 171.14 22.8888 173.224 24.8825 176.985C36.9392 143.891 56.5941 113.587 81.9162 89.0643C101.053 70.5118 132.765 70.9506 158.793 76.7639C164.884 78.1271 171.164 80.0388 177.255 78.6912C182.467 77.5474 187.208 74.0531 192.546 74.2725C200.207 74.5859 205.497 82.5615 206.518 90.1455C208.37 103.919 200.709 117.128 192.075 128.034C178.071 145.693 160.677 160.673 141.101 171.877C145.591 199.314 146.642 213.118 129.515 235.04" stroke="black" stroke-miterlimit="10"/>
<path d="M66.7198 96.8676C58.2268 89.9418 56.7668 80.1798 56.2487 69.2583C55.7307 58.3368 60.0635 47.2586 67.8658 39.5649C56.8924 32.2944 55.715 14.1337 65.668 5.51555C75.6211 -3.10257 93.4549 0.579721 99.1221 12.4571C110.253 2.41303 127.207 -0.642485 141.164 4.85744C155.12 10.3574 165.387 24.1777 166.611 39.0949C169.814 35.1775 176.454 35.726 180.159 39.1732C183.864 42.6205 185.136 47.9794 185.261 53.0249C185.701 70.9349 173.739 87.5287 158.26 96.5699C142.78 105.611 124.287 108.149 106.344 108.212C91.7123 108.259 75.6838 108.416 66.7198 96.8676Z" fill="#B25C5C" stroke="black" stroke-miterlimit="10"/>
<path d="M123.381 59.1935C125.982 62.0325 134.033 58.8894 141.362 52.1732C148.691 45.457 152.524 37.7109 149.922 34.8719C147.321 32.0329 139.27 35.176 131.941 41.8922C124.612 48.6084 120.779 56.3545 123.381 59.1935Z" fill="white" stroke="black" stroke-miterlimit="10"/>
<path fill-rule="evenodd" clip-rule="evenodd" d="M139.776 53.5627C137.224 52.7923 134.884 51.3816 133.003 49.3291C131.544 47.7365 130.493 45.9022 129.841 43.9412C130.504 43.2518 131.205 42.5668 131.941 41.8922C139.27 35.176 147.321 32.0329 149.922 34.8719C152.524 37.7109 148.691 45.4569 141.362 52.1732C140.836 52.655 140.307 53.1185 139.776 53.5627Z" fill="black"/>
<path d="M133.003 49.3291L132.635 49.6669L132.635 49.6669L133.003 49.3291ZM139.776 53.5627L139.631 54.0414L139.889 54.1194L140.096 53.9462L139.776 53.5627ZM129.841 43.9412L129.481 43.5947L129.272 43.8124L129.367 44.099L129.841 43.9412ZM131.941 41.8922L132.279 42.2608L132.279 42.2608L131.941 41.8922ZM149.922 34.8719L149.554 35.2097L149.554 35.2097L149.922 34.8719ZM141.362 52.1732L141.7 52.5418L141.7 52.5418L141.362 52.1732ZM132.635 49.6669C134.579 51.789 136.998 53.2463 139.631 54.0414L139.92 53.0841C137.45 52.3383 135.189 50.9743 133.372 48.9913L132.635 49.6669ZM129.367 44.099C130.04 46.1245 131.126 48.0207 132.635 49.6669L133.372 48.9913C131.962 47.4523 130.946 45.6799 130.316 43.7834L129.367 44.099ZM131.603 41.5236C130.859 42.2053 130.151 42.8976 129.481 43.5947L130.202 44.2877C130.857 43.606 131.55 42.9284 132.279 42.2608L131.603 41.5236ZM150.291 34.5341C149.514 33.6858 148.365 33.3263 147.046 33.3267C145.727 33.3271 144.184 33.6847 142.523 34.3331C139.198 35.6312 135.302 38.1346 131.603 41.5236L132.279 42.2608C135.91 38.9336 139.703 36.5074 142.886 35.2646C144.48 34.6426 145.895 34.327 147.046 34.3267C148.197 34.3263 149.03 34.6385 149.554 35.2097L150.291 34.5341ZM141.7 52.5418C145.398 49.1528 148.232 45.4894 149.814 42.2903C150.605 40.6923 151.096 39.1859 151.211 37.8722C151.326 36.558 151.068 35.3824 150.291 34.5341L149.554 35.2097C150.077 35.7809 150.316 36.6382 150.215 37.7848C150.114 38.9318 149.677 40.3139 148.918 41.8468C147.403 44.9096 144.655 48.4773 141.024 51.8045L141.7 52.5418ZM140.096 53.9462C140.633 53.4972 141.168 53.0287 141.7 52.5418L141.024 51.8045C140.504 52.2813 139.98 52.7399 139.455 53.1792L140.096 53.9462Z" fill="black"/>
<path d="M126.349 47.6081L112.131 43.9606" stroke="black" stroke-miterlimit="10"/>
<path d="M132.159 41.9839L120.573 32.9897" stroke="black" stroke-miterlimit="10"/>
<path d="M138.548 38.437L133.022 24.8517" stroke="black" stroke-miterlimit="10"/>
<path d="M185.152 56.4095C182.483 58.2899 178.856 58.7129 175.826 57.4907" stroke="black" stroke-miterlimit="10"/>
<path d="M182.467 27.4369L220.27 103.652" stroke="black" stroke-miterlimit="10"/>
<path d="M180.536 40.7403C178.966 44.6577 176.237 47.0081 171.902 47.0081C167.567 47.0081 165.622 45.7688 165.622 42.3073C165.622 38.8457 169.137 36.0396 173.472 36.0396C177.807 36.0396 180.536 37.2788 180.536 40.7403Z" fill="black"/>
<ellipse cx="11.056" cy="8.23062" rx="11.056" ry="8.23062" transform="matrix(0.834671 -0.55075 0.472093 0.881549 144 72.1781)" fill="#FF6F92"/>
</g>
<defs>
<clipPath id="clip0_133_2912">
<rect width="236" height="315" fill="white"/>
</clipPath>
</defs>
</svg>
