<svg width="236" height="315" viewBox="0 0 236 315" fill="none" xmlns="http://www.w3.org/2000/svg">
<g clip-path="url(#clip0_133_2936)">
<path d="M168.966 34.0965L196.674 20.2605C198.574 19.3047 200.897 20.1195 201.777 22.0625L234.854 92.2453C235.655 93.9846 235.011 96.0529 233.362 97.0401L206.8 110.437C204.916 111.566 202.452 110.845 201.478 108.87L167.239 39.1107C166.329 37.2617 167.082 35.021 168.935 34.0965H168.966Z" fill="#702929" stroke="black" stroke-miterlimit="10"/>
<path d="M209.579 36.8228L175.042 54.8425" stroke="black"/>
<path d="M218.213 56.4094L183.676 74.4291" stroke="black"/>
<path d="M227.633 75.2126L193.095 93.2323" stroke="black"/>
<path d="M31.8527 229.571C26.8291 240.21 23.6109 251.696 22.3393 263.385C21.0834 275.075 21.8997 287.406 27.6455 297.67C33.3912 307.933 44.9298 315.533 56.6097 314.028C58.7919 313.746 61.1624 313.01 62.2613 311.114C64.2865 307.635 60.5815 303.42 56.7667 302.167C52.9519 300.913 48.5406 300.929 45.3851 298.422C59.2942 291.794 73.4075 281.922 77.081 266.989C79.9695 255.284 75.1343 242.059 65.3854 234.946C55.6364 227.832 41.5389 227.283 31.2405 233.598L31.837 229.602L31.8527 229.571Z" fill="#B25C5C" stroke="black" stroke-miterlimit="10"/>
<path d="M90.9588 223.366C100.582 220.859 111.147 222.144 119.892 226.907C128.636 231.671 135.418 239.85 138.51 249.283C135.779 245.193 140.818 239.286 145.653 240.117C150.489 240.947 153.534 246.275 153.456 251.179C153.377 256.084 151.007 260.643 148.62 264.937C145.795 269.998 142.765 275.122 138.259 278.788C133.754 282.455 127.411 284.382 122.011 282.251C117.725 280.559 114.727 276.673 110.802 274.244C103.675 269.826 94.648 270.734 86.2805 270.28C67.7402 269.246 49.7494 260.33 37.7241 246.212C25.6989 232.094 19.7647 212.946 21.7114 194.519C18.6972 200.536 9.27791 201.319 4.50548 196.572C-0.266953 191.824 -0.235556 183.55 3.59495 178.019C6.02826 174.525 9.89017 171.924 14.1288 171.532C18.3675 171.14 22.8888 173.224 24.8825 176.985C36.9392 143.891 56.5941 113.587 81.9162 89.0644C101.053 70.512 132.765 70.9507 158.793 76.764C164.884 78.1273 171.164 80.0389 177.255 78.6913C182.467 77.5475 187.208 74.0532 192.546 74.2726C200.207 74.586 205.497 82.5617 206.518 90.1456C208.37 103.919 200.709 117.128 192.075 128.034C178.071 145.693 160.677 160.673 141.101 171.877C145.591 199.314 146.642 213.118 129.515 235.04" fill="#B25C5C"/>
<path d="M90.9588 223.366C100.582 220.859 111.147 222.144 119.892 226.907C128.636 231.671 135.418 239.85 138.51 249.283C135.779 245.193 140.818 239.286 145.653 240.117C150.489 240.947 153.534 246.275 153.456 251.179C153.377 256.084 151.007 260.643 148.62 264.937C145.795 269.998 142.765 275.122 138.259 278.788C133.754 282.455 127.411 284.382 122.011 282.251C117.725 280.559 114.727 276.673 110.802 274.244C103.675 269.826 94.648 270.734 86.2805 270.28C67.7402 269.246 49.7494 260.33 37.7241 246.212C25.6989 232.094 19.7647 212.946 21.7114 194.519C18.6972 200.536 9.27791 201.319 4.50548 196.572C-0.266953 191.824 -0.235556 183.55 3.59495 178.019C6.02826 174.525 9.89017 171.924 14.1288 171.532C18.3675 171.14 22.8888 173.224 24.8825 176.985C36.9392 143.891 56.5941 113.587 81.9162 89.0644C101.053 70.512 132.765 70.9507 158.793 76.764C164.884 78.1273 171.164 80.0389 177.255 78.6913C182.467 77.5475 187.208 74.0532 192.546 74.2726C200.207 74.586 205.497 82.5617 206.518 90.1456C208.37 103.919 200.709 117.128 192.075 128.034C178.071 145.693 160.677 160.673 141.101 171.877C145.591 199.314 146.642 213.118 129.515 235.04" stroke="black" stroke-miterlimit="10"/>
<path d="M66.7198 96.8676C58.2268 89.9418 56.7668 80.1798 56.2487 69.2583C55.7307 58.3368 60.0635 47.2586 67.8658 39.5649C56.8924 32.2944 55.715 14.1337 65.668 5.51555C75.6211 -3.10257 93.4549 0.579721 99.1221 12.4571C110.253 2.41303 127.207 -0.642485 141.164 4.85744C155.12 10.3574 165.387 24.1777 166.611 39.0949C169.814 35.1775 176.454 35.726 180.159 39.1732C183.864 42.6205 185.136 47.9794 185.261 53.0249C185.701 70.9349 173.739 87.5287 158.26 96.5699C142.78 105.611 124.287 108.149 106.344 108.212C91.7123 108.259 75.6838 108.416 66.7198 96.8676Z" fill="#B25C5C" stroke="black" stroke-miterlimit="10"/>
<path d="M185.152 56.4094C182.483 58.2897 178.856 58.7128 175.826 57.4906" stroke="black" stroke-miterlimit="10"/>
<path d="M182.467 27.437L220.27 103.653" stroke="black" stroke-miterlimit="10"/>
<path d="M180.536 40.7403C178.966 44.6577 176.237 47.0081 171.902 47.0081C167.567 47.0081 165.622 45.7688 165.622 42.3073C165.622 38.8457 169.137 36.0396 173.472 36.0396C177.807 36.0396 180.536 37.2788 180.536 40.7403Z" fill="black"/>
<ellipse cx="11.056" cy="8.23062" rx="11.056" ry="8.23062" transform="matrix(0.834671 -0.55075 0.472093 0.881549 144 72.1782)" fill="#FF6F92"/>
<path d="M145.219 52.9773L150.171 57.9248" stroke="black" stroke-miterlimit="10"/>
<path d="M135.953 57.9994L137.371 65.0698" stroke="black" stroke-miterlimit="10"/>
<path d="M150.089 45.2651L157.161 46.6762" stroke="black" stroke-miterlimit="10"/>
<path fill-rule="evenodd" clip-rule="evenodd" d="M128 57.4707C133.292 60.3963 140.503 58.7902 145.642 53.646C150.782 48.5017 152.382 41.2894 149.451 36L148.709 36.7432C151.181 41.5433 149.774 48.0958 144.935 52.9392C140.096 57.7826 133.545 59.1954 128.742 56.7276L128 57.4707Z" fill="black"/>
</g>
<defs>
<clipPath id="clip0_133_2936">
<rect width="236" height="315" fill="white"/>
</clipPath>
</defs>
</svg>
