<svg width="236" height="315" viewBox="0 0 236 315" fill="none" xmlns="http://www.w3.org/2000/svg">
<g clip-path="url(#clip0_127_641)">
<path d="M168.966 34.0964L196.674 20.2604C198.574 19.3046 200.897 20.1194 201.777 22.0624L234.854 92.2452C235.655 93.9845 235.011 96.0528 233.362 97.04L206.8 110.437C204.916 111.565 202.452 110.845 201.478 108.87L167.239 39.1106C166.329 37.2616 167.082 35.0209 168.935 34.0964H168.966Z" fill="#702929" stroke="black" stroke-miterlimit="10"/>
<path d="M209.579 36.8229L175.042 54.8426" stroke="black"/>
<path d="M218.213 56.4095L183.676 74.4292" stroke="black"/>
<path d="M227.633 75.2126L193.095 93.2323" stroke="black"/>
<path d="M31.8527 229.571C26.8291 240.21 23.6109 251.696 22.3393 263.385C21.0834 275.075 21.8997 287.406 27.6455 297.67C33.3912 307.933 44.9298 315.533 56.6097 314.028C58.7919 313.746 61.1624 313.01 62.2613 311.114C64.2865 307.635 60.5815 303.42 56.7667 302.167C52.9519 300.913 48.5406 300.929 45.3851 298.422C59.2942 291.794 73.4075 281.922 77.081 266.989C79.9695 255.284 75.1343 242.059 65.3854 234.946C55.6364 227.832 41.5389 227.283 31.2405 233.598L31.837 229.602L31.8527 229.571Z" fill="#B25C5C" stroke="black" stroke-miterlimit="10"/>
<path d="M90.9588 223.366C100.582 220.859 111.147 222.144 119.892 226.907C128.636 231.671 135.418 239.85 138.51 249.283C135.779 245.193 140.818 239.286 145.653 240.116C150.489 240.947 153.534 246.274 153.456 251.179C153.377 256.083 151.007 260.643 148.62 264.937C145.795 269.998 142.765 275.122 138.259 278.788C133.754 282.455 127.411 284.382 122.011 282.251C117.725 280.559 114.727 276.673 110.802 274.244C103.675 269.825 94.648 270.734 86.2805 270.28C67.7402 269.246 49.7494 260.33 37.7241 246.212C25.6989 232.094 19.7647 212.946 21.7114 194.519C18.6972 200.536 9.27791 201.319 4.50548 196.571C-0.266953 191.824 -0.235556 183.55 3.59495 178.019C6.02826 174.525 9.89017 171.924 14.1288 171.532C18.3675 171.14 22.8888 173.224 24.8825 176.985C36.9392 143.891 56.5941 113.587 81.9162 89.0643C101.053 70.5118 132.765 70.9506 158.793 76.7639C164.884 78.1271 171.164 80.0388 177.255 78.6912C182.467 77.5474 187.208 74.0531 192.546 74.2725C200.207 74.5859 205.497 82.5615 206.518 90.1455C208.37 103.919 200.709 117.128 192.075 128.034C178.071 145.693 160.677 160.673 141.101 171.877C145.591 199.314 146.642 213.118 129.515 235.04" fill="#B25C5C"/>
<path d="M90.9588 223.366C100.582 220.859 111.147 222.144 119.892 226.907C128.636 231.671 135.418 239.85 138.51 249.283C135.779 245.193 140.818 239.286 145.653 240.116C150.489 240.947 153.534 246.274 153.456 251.179C153.377 256.083 151.007 260.643 148.62 264.937C145.795 269.998 142.765 275.122 138.259 278.788C133.754 282.455 127.411 284.382 122.011 282.251C117.725 280.559 114.727 276.673 110.802 274.244C103.675 269.825 94.648 270.734 86.2805 270.28C67.7402 269.246 49.7494 260.33 37.7241 246.212C25.6989 232.094 19.7647 212.946 21.7114 194.519C18.6972 200.536 9.27791 201.319 4.50548 196.571C-0.266953 191.824 -0.235556 183.55 3.59495 178.019C6.02826 174.525 9.89017 171.924 14.1288 171.532C18.3675 171.14 22.8888 173.224 24.8825 176.985C36.9392 143.891 56.5941 113.587 81.9162 89.0643C101.053 70.5118 132.765 70.9506 158.793 76.7639C164.884 78.1271 171.164 80.0388 177.255 78.6912C182.467 77.5474 187.208 74.0531 192.546 74.2725C200.207 74.5859 205.497 82.5615 206.518 90.1455C208.37 103.919 200.709 117.128 192.075 128.034C178.071 145.693 160.677 160.673 141.101 171.877C145.591 199.314 146.642 213.118 129.515 235.04" stroke="black" stroke-miterlimit="10"/>
<path d="M66.7198 96.8676C58.2268 89.9418 56.7668 80.1798 56.2487 69.2583C55.7307 58.3368 60.0635 47.2586 67.8658 39.565C56.8924 32.2944 55.715 14.1337 65.668 5.51561C75.6211 -3.1025 93.4549 0.579782 99.1221 12.4571C110.253 2.41309 127.207 -0.642424 141.164 4.8575C155.12 10.3574 165.387 24.1778 166.611 39.0949C169.814 35.1776 176.454 35.726 180.159 39.1733C183.864 42.6205 185.136 47.9794 185.261 53.0249C185.701 70.935 173.739 87.5287 158.26 96.5699C142.78 105.611 124.287 108.15 106.344 108.212C91.7123 108.259 75.6838 108.416 66.7198 96.8676Z" fill="#B25C5C" stroke="black" stroke-miterlimit="10"/>
<path d="M133.44 62.4109C143.411 62.4109 151.493 54.3432 151.493 44.3912C151.493 34.4392 143.411 26.3715 133.44 26.3715C123.469 26.3715 115.386 34.4392 115.386 44.3912C115.386 54.3432 123.469 62.4109 133.44 62.4109Z" fill="white" stroke="black" stroke-miterlimit="10"/>
<path d="M135.324 26.4655C131.76 29.756 129.515 34.4568 129.515 39.6903C129.515 48.9979 136.595 56.6602 145.685 57.616C149.249 54.3255 151.493 49.6247 151.493 44.3911C151.493 35.0836 144.413 27.4213 135.324 26.4655Z" fill="black" stroke="black" stroke-miterlimit="10"/>
<path d="M116.579 39.7844H101.901" stroke="black" stroke-miterlimit="10"/>
<path d="M120.159 32.9839L108.573 23.9897" stroke="black" stroke-miterlimit="10"/>
<path d="M126.548 27.437L121.022 13.8517" stroke="black" stroke-miterlimit="10"/>
<path d="M185.152 56.4095C182.483 58.2899 178.856 58.7129 175.826 57.4907" stroke="black" stroke-miterlimit="10"/>
<path d="M182.467 27.437L220.27 103.652" stroke="black" stroke-miterlimit="10"/>
<path d="M180.536 40.7403C178.966 44.6577 176.237 47.0081 171.902 47.0081C167.567 47.0081 165.622 45.7688 165.622 42.3073C165.622 38.8457 169.137 36.0396 173.472 36.0396C177.807 36.0396 180.536 37.2788 180.536 40.7403Z" fill="black"/>
<path d="M137.195 62.4229L139.805 69.5772" stroke="black"/>
<path d="M144 58.8628L148.886 64.7043" stroke="black"/>
<path d="M148 53.9657L154.853 57.288" stroke="black"/>
<ellipse cx="11.056" cy="8.23062" rx="11.056" ry="8.23062" transform="matrix(0.834671 -0.55075 0.472093 0.881549 144 72.1781)" fill="#FF6F92"/>
</g>
<defs>
<clipPath id="clip0_127_641">
<rect width="236" height="315" fill="white"/>
</clipPath>
</defs>
</svg>
