<svg width="347" height="790" viewBox="0 0 347 790" fill="none" xmlns="http://www.w3.org/2000/svg">
<g clip-path="url(#clip0_127_931)">
<path d="M287.546 412.559C295.255 411.458 310.671 408.153 318.005 408.263C326.088 408.384 332.398 410.599 336.406 417.748C341.318 426.517 337.871 448.328 336.263 458.254C325.736 523.259 308.139 586.215 287.513 648.621L259.675 648.808L254.499 647.2L287.535 412.559H287.546Z" fill="#FFD1C7" stroke="black" stroke-miterlimit="10"/>
<path d="M166.832 243.453C170.295 256.493 20.4138 498.434 8.25903 512.695L45.1493 541.435C45.1493 541.435 164.125 494.516 233.455 431.463C256.58 373.442 310.586 310.746 281.908 312.34C222.443 315.644 225.417 296.89 233.455 252.266L166.832 243.453Z" fill="#FFD1C7" stroke="black" stroke-miterlimit="10"/>
<path d="M256.536 644.358C266.888 645.647 277.239 646.946 287.59 648.235C284.055 656.927 278.439 666.291 280.697 675.39C286.72 699.713 298.118 722.252 316.453 739.326C318.952 741.662 324.877 743.909 326.859 746.696C328.841 749.483 330.174 752.909 329.711 756.291C329.249 759.673 323.324 762.879 319.933 763.275L311.784 763.958L274.343 751.841L243.509 676.932L256.547 644.347L256.536 644.358Z" fill="#503939" stroke="black" stroke-miterlimit="10"/>
<path d="M149.213 335.437L156.371 290.822H132.144L58.9143 445.596V491.313H149.213L242.815 415.302L253.277 311.752L242.815 307.897L231.253 344.8C204.824 358.019 165.547 344.066 149.213 335.437Z" fill="#503939" stroke="black"/>
<path d="M201.102 560.724C178.505 575.86 155.897 590.985 133.301 606.121L67.1843 579.782L115.758 463.233L199.89 422.243L212.664 423.575L213.501 422.97C231.561 414.961 251.184 410.511 270.929 409.949C278.296 409.739 286.566 410.466 291.411 416.018C296.312 421.626 295.86 429.976 295.078 437.378C287.447 509.258 274.31 580.553 255.853 650.428L207.323 655.153C192.644 592.384 199.89 524.702 227.541 466.483" fill="#FFD1C7"/>
<path d="M201.102 560.724C178.505 575.86 155.897 590.985 133.301 606.121L67.1843 579.782L115.758 463.233L199.89 422.243L212.664 423.575L213.501 422.97C231.561 414.961 251.184 410.511 270.929 409.949C278.296 409.739 286.566 410.466 291.411 416.018C296.312 421.626 295.86 429.976 295.078 437.378C287.447 509.258 274.31 580.553 255.853 650.428L207.323 655.153C192.644 592.384 199.89 524.702 227.541 466.483" stroke="black" stroke-miterlimit="10"/>
<path d="M30.6025 493.538C21.3083 498.121 13.1264 505.116 7.6644 513.928C2.20243 522.741 -0.440453 533.383 0.892003 543.661C2.04827 552.683 6.11171 561.055 10.2963 569.13C22.4205 592.505 36.549 615.562 57.0423 632.075C61.9317 636.019 67.6469 639.709 73.9238 639.5C78.703 639.345 83.0858 636.944 87.2483 634.609C101.234 626.776 115.208 618.933 129.193 611.1C130.878 610.153 132.684 609.084 133.433 607.3C134.204 605.471 133.664 603.378 133.124 601.472C122.454 563.247 118.269 523.226 120.813 483.624C90.5629 481.211 59.8504 484.923 31.0429 494.452L30.6025 493.549V493.538Z" fill="#503939" stroke="black" stroke-miterlimit="10"/>
<path d="M302.677 347.058C304.835 344.051 307.092 340.956 310.297 339.094C313.501 337.232 317.917 336.935 320.67 339.413C323.203 341.683 323.599 345.439 323.743 348.843C323.952 353.745 323.974 358.724 322.719 363.472C321.463 368.22 318.798 372.759 314.647 375.358C310.55 377.925 304.119 377.771 301.906 373.475C300.992 371.701 300.981 369.63 300.992 367.636C301.036 360.322 301.08 353.007 301.124 345.692C301.774 345.748 302.434 345.792 303.084 345.847L302.666 347.069L302.677 347.058Z" fill="#FFD1C7" stroke="black" stroke-miterlimit="10"/>
<path d="M251.206 679.146C260.269 704.461 270.125 725.138 286.874 746.167C291.059 751.422 295.783 756.721 302.159 758.847C307.081 760.488 312.852 760.18 316.882 763.441C321.188 766.922 321.849 773.685 319.283 778.599C316.706 783.512 311.574 786.662 306.233 788.105C300.882 789.548 295.265 789.493 289.726 789.438C281.522 789.35 273.021 789.185 265.61 785.66C258.287 782.179 252.847 775.8 247.033 770.149C233.136 756.644 216.221 742.191 202.115 728.905C197.258 724.334 194.175 721.415 192.16 716.248C190.145 711.082 190.431 704.626 194.318 700.682C197.093 697.862 201.267 696.706 203.888 693.731C206.123 691.209 206.894 687.739 207.434 684.412C209.096 674.123 208.689 665.233 207.169 654.933C206.916 653.226 206.498 651 207.83 649.921C208.535 649.348 209.515 649.26 210.429 649.205C225.394 648.257 240.393 649.326 255.347 650.406C253.871 657.335 252.396 664.264 250.909 671.193C250.391 673.638 249.874 676.238 250.7 678.595L251.206 679.179V679.146Z" fill="#503939" stroke="black" stroke-miterlimit="10"/>
<path d="M214.481 28.256C211.64 23.5632 207.665 19.5093 202.974 16.535C199.571 20.5999 196.796 25.1164 194.483 29.8533" stroke="black" stroke-miterlimit="10"/>
<path d="M189.539 261.641C192.27 259.614 194.197 258.909 197.501 258.115C213.832 254.216 231.66 257.047 245.976 265.816L240.943 266.609C242.969 275.939 246.262 286.57 240.943 294.501C235.624 302.433 226.98 308.029 217.576 309.67C230.471 313.305 244.797 311.543 256.415 304.889C246.196 319.937 231.66 332.022 214.999 339.314C236.693 337.915 258.496 334.302 278.428 325.61C298.36 316.919 316.387 302.785 327.013 283.816C335.129 269.341 342.188 255.967 343.917 239.465C348.112 199.488 347.088 158.972 340.877 119.248C337.232 95.9382 331.704 72.5953 320.461 51.8522C309.218 31.1202 291.731 13.0429 269.597 4.89112C247.462 -3.2607 220.593 -0.110135 203.293 15.9181L202.753 15.9842C183.097 4.68182 161.293 3.02942 139.302 8.49335C117.3 13.9573 97.6107 28.1899 85.5195 47.3798C74.2982 65.1816 69.7502 86.3323 66.6008 107.141C59.9385 151.161 58.6281 195.985 62.7025 240.325C65.2023 267.49 70.6312 296.352 89.7261 315.839C103.513 329.907 122.971 337.276 142.474 339.931C161.976 342.586 181.787 340.923 201.41 339.248C181.566 332.738 165.213 316.952 158.893 297.046C169.321 306.057 186.621 305.616 196.576 296.077C181.875 294.402 169.288 281.359 168.121 266.609C175.036 265.441 181.522 262.808 188.438 261.641H189.539Z" fill="#503939" stroke="black" stroke-miterlimit="10"/>
<path d="M114.657 154.786C116.86 141.566 120.901 128.314 129.38 118.312C137.849 108.32 149.202 101.05 161.249 95.9051C181.654 87.1915 204.658 84.4265 226.418 88.7888C253.409 94.1866 266.623 101.898 281.897 122.982C301.091 149.465 304.791 190.334 288.636 220.87C272.482 251.407 248.233 271.753 213.754 273.747C196.245 274.761 169.057 270.839 156.029 259.096C147.858 251.737 146.581 249.49 139.974 240.699C130.041 227.491 108.039 196.635 114.646 154.775L114.657 154.786Z" fill="#FFD1C7" stroke="black" stroke-miterlimit="10"/>
<path d="M166 212C182.016 212 195 206.627 195 200C195 193.373 182.016 188 166 188C149.984 188 137 193.373 137 200C137 206.627 149.984 212 166 212Z" fill="white" stroke="black" stroke-miterlimit="10"/>
<path fill-rule="evenodd" clip-rule="evenodd" d="M156.333 211.317C161.965 209.67 166 205.225 166 200C166 194.775 161.965 190.33 156.333 188.683C145.07 190.33 137 194.775 137 200C137 205.225 145.07 209.67 156.333 211.317Z" fill="black"/>
<path d="M156.333 211.317L156.261 211.812L156.369 211.828L156.474 211.797L156.333 211.317ZM156.333 188.683L156.474 188.203L156.369 188.172L156.261 188.188L156.333 188.683ZM156.474 211.797C162.258 210.105 166.5 205.504 166.5 200H165.5C165.5 204.945 161.672 209.235 156.193 210.837L156.474 211.797ZM166.5 200C166.5 194.496 162.258 189.895 156.474 188.203L156.193 189.163C161.672 190.766 165.5 195.055 165.5 200H166.5ZM156.261 188.188C150.59 189.018 145.69 190.555 142.194 192.566C138.722 194.563 136.5 197.111 136.5 200H137.5C137.5 197.664 139.313 195.377 142.692 193.433C146.046 191.504 150.814 189.995 156.406 189.178L156.261 188.188ZM136.5 200C136.5 202.889 138.722 205.437 142.194 207.434C145.69 209.445 150.59 210.982 156.261 211.812L156.406 210.822C150.814 210.005 146.046 208.496 142.692 206.567C139.313 204.623 137.5 202.336 137.5 200H136.5Z" fill="black"/>
<path d="M250 212C266.016 212 279 206.627 279 200C279 193.373 266.016 188 250 188C233.984 188 221 193.373 221 200C221 206.627 233.984 212 250 212Z" fill="white" stroke="black" stroke-miterlimit="10"/>
<path fill-rule="evenodd" clip-rule="evenodd" d="M240.333 211.317C245.965 209.67 250 205.225 250 200C250 194.775 245.965 190.33 240.333 188.683C229.07 190.33 221 194.775 221 200C221 205.225 229.07 209.67 240.333 211.317Z" fill="black"/>
<path d="M240.333 211.317L240.261 211.812L240.369 211.828L240.474 211.797L240.333 211.317ZM240.333 188.683L240.474 188.203L240.369 188.172L240.261 188.188L240.333 188.683ZM240.474 211.797C246.258 210.105 250.5 205.504 250.5 200H249.5C249.5 204.945 245.672 209.235 240.193 210.837L240.474 211.797ZM250.5 200C250.5 194.496 246.258 189.895 240.474 188.203L240.193 189.163C245.672 190.766 249.5 195.055 249.5 200H250.5ZM240.261 188.188C234.59 189.018 229.69 190.555 226.194 192.566C222.722 194.563 220.5 197.111 220.5 200H221.5C221.5 197.664 223.313 195.377 226.692 193.433C230.046 191.504 234.814 189.995 240.406 189.178L240.261 188.188ZM220.5 200C220.5 202.889 222.722 205.437 226.194 207.434C229.69 209.445 234.59 210.982 240.261 211.812L240.406 210.822C234.814 210.005 230.046 208.496 226.692 206.567C223.313 204.623 221.5 202.336 221.5 200H220.5Z" fill="black"/>
<path d="M165.962 188.111V174" stroke="black" stroke-miterlimit="10"/>
<path d="M147.495 191.203L139.203 179.78" stroke="black" stroke-miterlimit="10"/>
<path d="M184.198 191.06L192.49 179.636" stroke="black" stroke-miterlimit="10"/>
<path d="M250.546 188.111V174" stroke="black" stroke-miterlimit="10"/>
<path d="M232.078 191.203L223.786 179.78" stroke="black" stroke-miterlimit="10"/>
<path d="M268.782 191.06L277.074 179.636" stroke="black" stroke-miterlimit="10"/>
<path d="M189.001 241.21C188.697 244.314 190.673 247.351 193.369 248.9C196.065 250.449 199.362 250.695 202.444 250.261C204.663 249.945 207.074 249.096 208.088 247.101C209.191 244.955 208.184 242.19 206.358 240.61C204.532 239.031 202.11 238.368 199.745 237.888C197.807 237.499 195.82 237.202 193.867 237.521C191.914 237.839 190.002 238.884 189.057 240.621L188.991 241.222L189.001 241.21Z" fill="#FF6F92" stroke="black" stroke-miterlimit="10"/>
<path d="M114.173 148.022C141.075 146.887 167.966 145.752 194.869 144.618C199.34 144.43 203.877 144.232 208.127 142.8C212.378 141.368 216.342 128.515 218.071 124.395C218.919 126.829 219.756 139.264 220.604 141.699C230.548 142.04 240.503 142.371 250.447 142.712L249.455 137.843C263.903 145.301 281.743 145.819 296.609 139.231C294.561 113.299 276.875 89.2294 252.748 79.5464C233.367 71.7691 211.695 72.9919 190.86 74.3468C173.825 75.4484 155.457 77.0788 142.573 88.282C138.256 92.0385 134.809 96.6872 131.594 101.424C122.079 115.458 114.261 130.65 108.369 146.557C110.274 147.03 112.169 147.493 114.074 147.967" fill="#503939"/>
<path d="M114.173 148.022C141.075 146.887 167.966 145.752 194.869 144.618C199.34 144.43 203.877 144.232 208.127 142.8C212.378 141.368 216.342 128.515 218.071 124.395C218.919 126.829 219.756 139.264 220.604 141.699C230.548 142.04 240.503 142.371 250.447 142.712L249.455 137.843C263.903 145.301 281.743 145.819 296.609 139.231C294.561 113.299 276.875 89.2294 252.748 79.5464C233.367 71.7691 211.695 72.9919 190.86 74.3468C173.825 75.4484 155.457 77.0788 142.573 88.282C138.256 92.0385 134.809 96.6872 131.594 101.424C122.079 115.458 114.261 130.65 108.369 146.557C110.274 147.03 112.169 147.493 114.074 147.967" stroke="black" stroke-miterlimit="10"/>
<path d="M185.888 237.88C193.46 244.829 203.892 247.693 213.376 245.413" stroke="black" stroke-miterlimit="10"/>
<path d="M234.776 317.811C247.011 315.927 273.968 312.248 289.98 312.017C295.53 311.94 300.133 316.258 300.452 321.799L304.604 393.876C304.934 399.693 299.979 404.936 294.318 406.313C282.668 409.156 262.802 411.061 247.33 410.555C241.406 410.356 236.56 407.977 233.785 402.072L226.396 325.765C228.224 321.898 230.933 318.406 234.776 317.822V317.811Z" fill="#F5F5DC" stroke="black" stroke-miterlimit="10"/>
<path d="M79.9693 464.885C101.784 424.225 120.086 382.343 134.897 338.741C127.84 337.56 123.658 336.432 115.626 333.233C108.798 330.314 100.545 324.63 90.2986 317.26C74.8818 343.776 72.2306 352.006 60.5661 380.25C52.9137 398.779 44.0922 422.066 41.174 441.19C37.5951 464.643 29.5232 485.254 35.6679 508.167C39.1037 520.99 54.3223 527.654 67.4927 525.969C80.6631 524.284 92.1156 516.44 102.885 508.685C140.458 481.586 172.415 452.525 209.845 425.239C222.619 415.919 233.884 404.716 243.113 392.125C247.55 386.066 251.581 379.567 253.387 372.362C255.193 365.158 254.51 357.127 250.127 351.024C245.744 344.921 237.232 341.374 229.92 343.776C224.491 345.56 220.615 350.077 217.036 354.373C209.867 362.999 202.709 371.624 195.541 380.25L195.596 381.164C148.728 409.861 104.625 442.534 64.0019 478.655L79.9693 464.885Z" fill="#FFD1C7" stroke="black" stroke-miterlimit="10"/>
<path d="M234.061 341.595C229.832 340.086 224.678 340.912 221.232 343.787C219.36 345.34 218.512 347.852 218.424 350.286C218.336 352.721 218.941 355.111 219.536 357.469C220.846 362.668 222.179 367.912 224.59 372.704C227.002 377.496 232.794 385.196 237.64 387.487C244.819 390.88 247.969 387.245 251.449 384.171C253.233 384.304 254.818 384.491 256.602 384.623C254.169 393.315 244.082 399.021 235.382 396.642C228.599 394.78 223.621 389.03 219.778 383.147C215.032 375.876 211.332 367.923 208.81 359.617C207.456 355.155 206.454 350.374 207.643 345.869C209.14 340.218 214.316 335.745 220.108 335.073C225.901 334.401 231.968 335.371 234.721 340.526L234.05 341.595H234.061Z" fill="#FFF9E9" stroke="black" stroke-miterlimit="10"/>
<ellipse cx="151.313" cy="230.383" rx="12" ry="8.5" transform="rotate(22.0511 151.313 230.383)" fill="#FF6F92"/>
<ellipse cx="12" cy="8.5" rx="12" ry="8.5" transform="matrix(-0.926849 0.375433 0.375433 0.926849 269.244 220)" fill="#FF6F92"/>
</g>
<defs>
<clipPath id="clip0_127_931">
<rect width="347" height="790" fill="white"/>
</clipPath>
</defs>
</svg>
