<svg width="244" height="152" viewBox="0 0 244 152" fill="none" xmlns="http://www.w3.org/2000/svg">
<g clip-path="url(#clip0_127_622)">
<path d="M203.837 83.019C202.371 78.6089 202.71 72.5494 207.309 71.8784V71.8784C209.709 71.5283 212.248 72.4334 213.859 74.2159C214.957 73.2651 216.07 72.2976 217.429 71.7574C218.789 71.2173 220.417 71.1822 221.593 72.0433C222.619 72.7869 223.11 74.1 223.123 75.3629C223.136 76.6259 222.704 77.8525 222.156 78.9913C220.217 83.0416 216.714 86.3333 212.527 88.0076C210.92 88.6575 209.077 89.053 207.484 88.3593C205.452 87.471 204.535 85.1253 203.837 83.019V83.019Z" fill="#FF6B6B" stroke="black" stroke-miterlimit="10"/>
<path d="M199.834 87.0689C203.152 80.5569 210.639 76.4258 217.921 77.0722C220.227 77.2772 222.581 77.971 224.318 79.5162C226.419 81.3926 227.351 84.3253 227.304 87.1477C227.225 91.8623 224.46 96.4506 220.322 98.7527C216.183 101.055 210.828 100.96 206.769 98.532C202.709 96.1038 200.103 91.4365 200.166 86.7063" fill="#FFA34D"/>
<path d="M199.834 87.0689C203.152 80.5569 210.639 76.4258 217.921 77.0722C220.227 77.2772 222.581 77.971 224.318 79.5162C226.419 81.3926 227.351 84.3253 227.304 87.1477C227.225 91.8623 224.46 96.4506 220.322 98.7527C216.183 101.055 210.828 100.96 206.769 98.532C202.709 96.1038 200.103 91.4365 200.166 86.7063" stroke="black" stroke-miterlimit="10"/>
<path d="M191.667 79.0373C192.68 78.4226 194.001 78.1051 194.617 79.1159C194.527 77.992 195.278 76.8378 196.357 76.4731C197.436 76.1084 198.729 76.5254 199.358 77.4669C199.566 76.5518 200.759 76.116 201.62 76.4991C202.481 76.8822 202.946 77.8563 202.978 78.7966C203.01 79.7368 202.642 80.6278 202.223 81.4803C202.597 82.8822 202.296 84.4615 201.434 85.6301C202.565 85.922 202.84 87.6065 202.077 88.4924C201.313 89.3784 199.984 89.5507 198.835 89.2838C196.944 88.8655 195.314 87.4129 194.68 85.5725C193.821 87.0217 191.43 87.1742 190.402 85.846C189.373 84.5178 190.122 82.2282 191.743 81.7821C191.221 81.5799 190.674 81.3585 190.284 80.9593C189.894 80.5601 189.716 79.8861 190.038 79.4171C190.38 78.9231 191.091 78.8534 191.667 79.0373Z" fill="#52E461" stroke="black" stroke-miterlimit="10"/>
<path d="M190.783 41.1219C199.345 49.6995 207.906 58.2929 216.468 66.8705C203.341 69.2514 189.994 69.4091 176.693 68.6522C179.742 59.7908 183.612 51.1975 188.256 43.0456L190.783 41.1377V41.1219Z" fill="#FFA34D" stroke="black" stroke-miterlimit="10"/>
<path d="M190.831 59.9485L216.278 66.6182" stroke="black" stroke-miterlimit="10"/>
<path d="M185.081 26.5211C175.809 13.6548 161.419 4.58837 145.797 1.76596C132.37 -0.662255 118.185 1.54521 106.07 7.80496C97.4452 9.82322 88.0624 8.48297 80.4013 4.02073C80.6067 10.722 85.535 16.966 91.9324 18.9211C86.0563 26.3004 83.0393 35.2564 77.2579 44.2913C69.2494 56.795 55.5069 69.8664 45.208 80.5884C34.909 91.2946 21.0718 99.6041 6.19198 99.6041L1.78491 98.9892C10.3147 110.184 24.7996 118.131 38.8264 116.87C47.4352 116.097 55.9018 112.675 64.4632 113.905C72.0927 114.993 78.648 119.629 85.4876 123.145C98.7562 129.973 114.205 132.827 128.895 130.225C143.585 127.623 157.375 119.361 165.826 107.078C171.528 98.7842 174.687 89.0083 179.821 80.3518C184.449 72.5469 190.783 65.4514 192.868 56.6373C195.333 46.2465 191.336 35.2249 185.081 26.5527V26.5211Z" fill="#FF98DB" stroke="black" stroke-miterlimit="10"/>
<path d="M155.29 65.1992C164.886 65.1992 172.665 57.4338 172.665 47.8548C172.665 38.2757 164.886 30.5104 155.29 30.5104C145.694 30.5104 137.914 38.2757 137.914 47.8548C137.914 57.4338 145.694 65.1992 155.29 65.1992Z" fill="white" stroke="black" stroke-miterlimit="10"/>
<path d="M172.269 51.164C168.06 46.4588 161.436 44.2203 154.926 45.9378C148.416 47.6553 143.758 52.8703 142.418 59.0396C146.627 63.7449 153.251 65.9833 159.761 64.2658C166.271 62.5483 170.929 57.3334 172.269 51.164Z" fill="black" stroke="black" stroke-miterlimit="10"/>
<path d="M155.085 30.2108V20.6083" stroke="black" stroke-miterlimit="10"/>
<path d="M163.93 32.8033L167.469 23.863" stroke="black" stroke-miterlimit="10"/>
<path d="M145.496 33.317L141.658 24.5029" stroke="black" stroke-miterlimit="10"/>
<path d="M96.0709 104.634C79.7221 116.523 62.8047 127.639 45.4133 137.935" stroke="black" stroke-miterlimit="10"/>
<path d="M38.6843 150.849C40.88 146.308 43.2809 141.861 45.8715 137.525C49.7257 140.395 53.7537 143.028 57.908 145.441" stroke="black" stroke-miterlimit="10"/>
<path d="M145.433 124.659C158.228 137.683 174.261 145.898 190.831 147.9" stroke="black" stroke-miterlimit="10"/>
<path d="M195.491 143.47L190.641 147.853C192.711 149.004 194.796 150.155 196.865 151.306" stroke="black" stroke-miterlimit="10"/>
<path d="M140.126 75.6689C166.805 79.9577 193.469 84.2308 220.148 88.5196C222.217 88.8507 224.366 89.2133 226.119 90.3486C228.615 91.9727 229.926 94.937 230.384 97.8855C231.663 106.085 226.988 114.41 220.259 119.282C213.53 124.154 205.079 126.062 196.786 126.709C184.655 127.655 172.223 126.11 160.992 121.427C149.761 116.744 139.778 108.813 133.365 98.4847" fill="#FF98DB"/>
<path d="M140.126 75.6689C166.805 79.9577 193.469 84.2308 220.148 88.5196C222.217 88.8507 224.366 89.2133 226.119 90.3486C228.615 91.9727 229.926 94.937 230.384 97.8855C231.663 106.085 226.988 114.41 220.259 119.282C213.53 124.154 205.079 126.062 196.786 126.709C184.655 127.655 172.223 126.11 160.992 121.427C149.761 116.744 139.778 108.813 133.365 98.4847" stroke="black" stroke-miterlimit="10"/>
<path d="M228.315 75.8423C230.258 73.8083 233.132 72.7045 235.928 72.9095C238.724 73.1145 241.425 74.6282 243.052 76.9145C241.757 78.9801 240.051 80.8406 237.855 81.9128C235.66 82.985 232.959 83.1742 230.826 82.0232C228.694 80.8722 227.32 78.2232 228.015 75.8896" fill="#FF98DB"/>
<path d="M228.315 75.8423C230.258 73.8083 233.132 72.7045 235.928 72.9095C238.724 73.1145 241.425 74.6282 243.052 76.9145C241.757 78.9801 240.051 80.8406 237.855 81.9128C235.66 82.985 232.959 83.1742 230.826 82.0232C228.694 80.8722 227.32 78.2232 228.015 75.8896" stroke="black" stroke-miterlimit="10"/>
<path d="M223.718 79.2009C224.887 79.3743 226.072 78.8067 226.877 77.9868C227.683 77.1669 228.141 76.1104 228.536 75.054C229.989 71.1594 230.573 66.9652 230.242 62.8499" stroke="black" stroke-miterlimit="10"/>
<ellipse cx="8.91505" cy="6.33917" rx="8.91505" ry="6.33917" transform="matrix(0.997632 -0.0687731 0.0682434 0.997669 155.768 65.7443)" fill="#FF6F92"/>
<path d="M148 62L145 69" stroke="black"/>
<path d="M164.347 60.3589L168.653 66.641" stroke="black"/>
<path d="M156.629 64L157.374 71.5792" stroke="black"/>
</g>
<defs>
<clipPath id="clip0_127_622">
<rect width="244" height="152" fill="white"/>
</clipPath>
</defs>
</svg>
