<svg width="247" height="236" viewBox="0 0 247 236" fill="none" xmlns="http://www.w3.org/2000/svg">
<mask id="path-1-inside-1_195_6612" fill="white">
<path fill-rule="evenodd" clip-rule="evenodd" d="M114.85 222.22C116.937 223.455 118.304 225.891 118.189 228.634C118.028 232.496 114.99 235.506 111.403 235.356C107.816 235.206 105.039 231.954 105.201 228.091C105.321 225.222 107.028 222.823 109.369 221.841C110.92 218.381 105.109 213.288 101.896 213.478L127.5 207.5C121.913 208.937 112.944 218.975 114.85 222.22Z"/>
</mask>
<path fill-rule="evenodd" clip-rule="evenodd" d="M114.85 222.22C116.937 223.455 118.304 225.891 118.189 228.634C118.028 232.496 114.99 235.506 111.403 235.356C107.816 235.206 105.039 231.954 105.201 228.091C105.321 225.222 107.028 222.823 109.369 221.841C110.92 218.381 105.109 213.288 101.896 213.478L127.5 207.5C121.913 208.937 112.944 218.975 114.85 222.22Z" fill="#FFCF54"/>
<path d="M114.85 222.22L113.988 222.727L114.119 222.949L114.341 223.081L114.85 222.22ZM109.369 221.841L109.756 222.763L110.12 222.61L110.281 222.25L109.369 221.841ZM101.896 213.478L101.669 212.505L101.955 214.477L101.896 213.478ZM127.5 207.5L127.749 208.468L127.273 206.526L127.5 207.5ZM114.341 223.081C116.099 224.122 117.29 226.204 117.19 228.592L119.189 228.676C119.318 225.578 117.774 222.789 115.359 221.36L114.341 223.081ZM117.19 228.592C117.049 231.974 114.411 234.481 111.445 234.357L111.361 236.355C115.568 236.531 119.007 233.019 119.189 228.676L117.19 228.592ZM111.445 234.357C108.478 234.233 106.059 231.515 106.2 228.133L104.202 228.049C104.02 232.393 107.154 236.18 111.361 236.355L111.445 234.357ZM106.2 228.133C106.304 225.633 107.788 223.589 109.756 222.763L108.981 220.919C106.268 222.058 104.337 224.81 104.202 228.049L106.2 228.133ZM110.281 222.25C110.811 221.067 110.679 219.808 110.238 218.683C109.798 217.561 109.026 216.496 108.131 215.588C107.231 214.678 106.169 213.887 105.098 213.331C104.046 212.785 102.893 212.418 101.837 212.48L101.955 214.477C102.505 214.444 103.284 214.642 104.177 215.106C105.051 215.56 105.946 216.223 106.707 216.994C107.472 217.768 108.062 218.613 108.376 219.413C108.689 220.209 108.701 220.885 108.456 221.431L110.281 222.25ZM102.123 214.452L127.727 208.474L127.273 206.526L101.669 212.505L102.123 214.452ZM127.251 206.532C125.673 206.937 123.943 207.92 122.3 209.149C120.642 210.389 119.005 211.928 117.612 213.524C116.224 215.114 115.043 216.797 114.33 218.331C113.974 219.098 113.716 219.865 113.625 220.59C113.534 221.314 113.602 222.069 113.988 222.727L115.712 221.714C115.622 221.56 115.553 221.291 115.61 220.839C115.666 220.388 115.84 219.828 116.144 219.175C116.751 217.869 117.804 216.344 119.119 214.84C120.427 213.341 121.962 211.899 123.497 210.751C125.047 209.592 126.534 208.781 127.749 208.468L127.251 206.532Z" fill="black" mask="url(#path-1-inside-1_195_6612)"/>
<path d="M75.0773 78.2085C67.1334 68.8644 64.7284 55.1158 69.0526 43.6303C73.3767 32.1448 84.2358 23.409 96.3823 21.657C102.091 20.8296 108.286 21.584 112.95 24.9907C118.562 29.1031 120.991 36.1842 123.105 42.803C125.243 49.4461 127.332 56.8678 124.344 63.1703C120.894 70.5191 112.1 73.3418 104.278 75.4101C97.4998 77.2108 90.6977 79.0115 83.92 80.7879C81.9279 81.3232 79.8144 81.8342 77.8224 81.2989C75.8303 80.7636 74.0812 78.7439 74.6157 76.7242" fill="white"/>
<path d="M75.0773 78.2085C67.1334 68.8644 64.7284 55.1158 69.0526 43.6303C73.3767 32.1448 84.2358 23.409 96.3823 21.657C102.091 20.8296 108.286 21.584 112.95 24.9907C118.562 29.1031 120.991 36.1842 123.105 42.803C125.243 49.4461 127.332 56.8678 124.344 63.1703C120.894 70.5191 112.1 73.3418 104.278 75.4101C97.4998 77.2108 90.6977 79.0115 83.92 80.7879C81.9279 81.3232 79.8144 81.8342 77.8224 81.2989C75.8303 80.7636 74.0812 78.7439 74.6157 76.7242" stroke="black" stroke-miterlimit="10"/>
<path d="M29.5002 139.5C29.1477 154 30.9651 166.373 37.5 180C44.0349 193.627 57.9993 203.722 71.725 209.1C88.0986 215.524 106.367 214.039 123.445 210.073C151.261 203.6 177.643 190.655 200.114 172.477C211.411 163.328 222.027 152.426 227.177 138.581C236.092 114.685 228.586 82.029 206.843 69.9108C183.206 56.7219 161.148 56.5516 136.758 60.445C112.367 64.3627 89.7019 68.6698 68.7369 82.175C58.7038 88.6477 48.7436 95.7775 41.5772 105.535C34.4107 115.293 29.8042 126.984 29.5002 139.5Z" fill="#FFF174" stroke="black" stroke-miterlimit="10"/>
<path d="M217.654 84.365L235.606 79.7416C232.91 82.9293 230.213 86.117 227.541 89.3047C226.254 90.8378 224.699 92.4924 222.682 92.5411C220.836 92.5654 219.233 91.1298 218.504 89.4507C217.775 87.7717 217.702 85.8737 217.654 84.0243" fill="black"/>
<path d="M217.654 84.365L235.606 79.7416C232.91 82.9293 230.213 86.117 227.541 89.3047C226.254 90.8378 224.699 92.4924 222.682 92.5411C220.836 92.5654 219.233 91.1298 218.504 89.4507C217.775 87.7717 217.702 85.8737 217.654 84.0243" stroke="black" stroke-miterlimit="10"/>
<path d="M43.7406 122.818C44.2205 118.168 42.5055 113.451 39.771 109.63C37.0365 105.809 33.3569 102.766 29.5612 100.011C24.8688 96.6058 19.5772 93.4182 13.7846 93.2898C7.99195 93.1613 1.70308 97.1532 1.29079 102.943C1.10088 105.696 2.35334 108.58 4.66697 110.062C6.98059 111.544 10.3159 111.488 12.4105 109.692C14.5052 107.896 14.9992 104.418 13.2731 102.244C12.2694 100.988 10.5506 100.238 8.95732 100.651C7.36408 101.064 6.21704 102.781 6.62845 104.338C7.03986 105.896 9.19079 106.777 10.482 105.775" stroke="black" stroke-miterlimit="10"/>
<path d="M101 192.797C106.313 193.839 112.192 190.771 114 186" stroke="black" stroke-miterlimit="10"/>
<path d="M91.7162 97.421C85.6567 86.1643 83.2222 72.9405 84.904 60.235C85.388 56.6132 86.2429 52.9293 88.2424 49.8889C90.2419 46.8484 93.6618 44.5545 97.2674 44.6693C101.576 44.8287 105.41 48.8959 105.245 53.2798C105.091 57.0367 101.877 60.5422 98.1739 60.621C94.4713 60.6998 91.044 56.8867 91.7865 53.1957C92.2772 50.8014 94.6634 48.7842 97.0313 49.277C99.3992 49.7698 100.673 53.2749 98.8477 54.8996C97.5545 54.8175 96.3735 53.8579 96.0874 52.5842" stroke="black" stroke-miterlimit="10"/>
<path fill-rule="evenodd" clip-rule="evenodd" d="M152.351 59C146.707 59.3422 140.983 60.0429 135.125 60.9781C129.319 61.9107 123.611 62.8653 118 63.9608C139.464 79.2821 156.291 101.108 165.516 125.852C173.183 146.417 175.585 168.901 172.628 190.652C181.681 185.498 190.338 179.598 198.482 173.011C198.985 172.602 199.488 172.191 199.988 171.776C199.941 171.456 199.892 171.138 199.842 170.82C199.105 166.107 198.429 161.413 197.756 156.744C194.19 132.011 190.729 108.002 178.998 85.6281C173.838 75.7674 162.472 65.9244 152.351 59Z" fill="black"/>
<path d="M152.351 59L152.633 58.5873L152.492 58.4905L152.321 58.5009L152.351 59ZM135.125 60.9781L135.046 60.4843L135.046 60.4844L135.125 60.9781ZM118 63.9608L117.904 63.4701L116.764 63.6928L117.71 64.3678L118 63.9608ZM165.516 125.852L165.984 125.677L165.984 125.677L165.516 125.852ZM172.628 190.652L172.133 190.585L171.997 191.587L172.876 191.087L172.628 190.652ZM198.482 173.011L198.796 173.399L198.796 173.399L198.482 173.011ZM199.988 171.776L200.308 172.161L200.525 171.981L200.483 171.702L199.988 171.776ZM199.842 170.82L200.336 170.743L200.336 170.743L199.842 170.82ZM197.756 156.744L198.25 156.673L198.25 156.673L197.756 156.744ZM178.998 85.6281L178.555 85.8599L178.556 85.8602L178.998 85.6281ZM152.321 58.5009C146.657 58.8443 140.916 59.5473 135.046 60.4843L135.204 61.4718C141.051 60.5385 146.758 59.84 152.381 59.4991L152.321 58.5009ZM135.046 60.4844C129.238 61.4172 123.523 62.3729 117.904 63.4701L118.096 64.4516C123.698 63.3577 129.4 62.4041 135.204 61.4717L135.046 60.4844ZM117.71 64.3678C139.093 79.6317 155.858 101.377 165.047 126.026L165.984 125.677C156.724 100.839 139.835 78.9325 118.29 63.5539L117.71 64.3678ZM165.047 126.026C172.685 146.513 175.078 168.914 172.133 190.585L173.124 190.72C176.091 168.888 173.681 146.321 165.984 125.677L165.047 126.026ZM172.876 191.087C181.952 185.919 190.631 180.004 198.796 173.399L198.167 172.622C190.045 179.192 181.41 185.077 172.381 190.218L172.876 191.087ZM198.796 173.399C199.301 172.99 199.805 172.577 200.308 172.161L199.669 171.391C199.17 171.805 198.669 172.215 198.167 172.622L198.796 173.399ZM200.483 171.702C200.435 171.381 200.386 171.062 200.336 170.743L199.348 170.898C199.397 171.214 199.446 171.532 199.494 171.85L200.483 171.702ZM200.336 170.743C199.6 166.033 198.924 161.342 198.25 156.673L197.261 156.816C197.934 161.483 198.611 166.18 199.348 170.898L200.336 170.743ZM198.25 156.673C194.687 131.953 191.218 107.858 179.441 85.3959L178.556 85.8602C190.24 108.146 193.693 132.069 197.261 156.816L198.25 156.673ZM179.442 85.3962C174.222 75.4223 162.769 65.5222 152.633 58.5873L152.068 59.4127C162.174 66.3267 173.454 76.1124 178.555 85.8599L179.442 85.3962Z" fill="black"/>
<path fill-rule="evenodd" clip-rule="evenodd" d="M209.097 164.606C209.105 164.392 209.115 164.18 209.127 163.972C210.366 142.923 211.435 121.485 206.042 101.093C201.823 85.1401 192.979 69.7527 180 60C188.854 61.7295 197.719 64.8774 206.819 69.9545C228.561 82.0727 236.068 114.729 227.152 138.624C223.409 148.688 216.778 157.196 209.097 164.606Z" fill="black"/>
<path d="M117.028 159.045C128.885 153.767 137.002 146.129 135.157 141.985C133.312 137.84 122.205 138.759 110.348 144.037C98.4907 149.316 90.3742 156.954 92.219 161.098C94.0638 165.242 105.171 164.323 117.028 159.045Z" fill="white" stroke="black" stroke-miterlimit="10"/>
<path fill-rule="evenodd" clip-rule="evenodd" d="M127.034 152.666C124.184 154.524 120.781 156.375 117.028 158.045C105.171 163.323 94.3146 164.806 92.7795 161.358C92.541 160.822 92.5415 160.199 92.7569 159.509C95.4329 157.279 98.7296 155.221 102.469 153.557C112.531 149.078 122.564 148.887 127.034 152.666Z" fill="black"/>
<path d="M117.028 158.045L116.825 157.589L117.028 158.045ZM127.034 152.666L127.307 153.085L127.87 152.718L127.357 152.284L127.034 152.666ZM92.7795 161.358L92.3227 161.561L92.3227 161.561L92.7795 161.358ZM92.7569 159.509L92.4368 159.125L92.3235 159.219L92.2795 159.36L92.7569 159.509ZM102.469 153.557L102.672 154.014L102.672 154.014L102.469 153.557ZM117.231 158.502C121.006 156.822 124.433 154.959 127.307 153.085L126.761 152.247C123.935 154.09 120.556 155.928 116.825 157.589L117.231 158.502ZM92.3227 161.561C92.808 162.651 93.9834 163.255 95.4573 163.529C96.95 163.806 98.8808 163.773 101.101 163.469C105.548 162.862 111.272 161.155 117.231 158.502L116.825 157.589C110.927 160.214 105.295 161.887 100.965 162.479C98.7973 162.775 96.985 162.796 95.6399 162.546C94.2759 162.293 93.5186 161.789 93.2363 161.154L92.3227 161.561ZM92.2795 159.36C92.0391 160.13 92.0215 160.885 92.3227 161.561L93.2363 161.154C93.0606 160.76 93.0439 160.268 93.2342 159.658L92.2795 159.36ZM102.266 153.1C98.4872 154.782 95.1507 156.864 92.4368 159.125L93.0769 159.893C95.7151 157.695 98.972 155.661 102.672 154.014L102.266 153.1ZM127.357 152.284C124.987 150.28 121.215 149.378 116.833 149.515C112.435 149.652 107.347 150.838 102.266 153.1L102.672 154.014C107.652 151.797 112.613 150.647 116.864 150.514C121.131 150.381 124.611 151.272 126.711 153.048L127.357 152.284Z" fill="black"/>
<path d="M124 140L127 130" stroke="black"/>
<path d="M107.993 145L103.438 133.5" stroke="black"/>
<path d="M96.8227 152.511L85.5138 147.5" stroke="black"/>
<path d="M71.2321 182.083C81.3511 177.059 88.1306 170.119 86.3746 166.582C84.6186 163.045 74.9919 164.251 64.8729 169.275C54.7539 174.299 47.9743 181.239 49.7304 184.775C51.4864 188.312 61.113 187.107 71.2321 182.083Z" fill="white" stroke="black" stroke-miterlimit="10"/>
<path fill-rule="evenodd" clip-rule="evenodd" d="M79.7011 176.169C77.2902 177.889 74.3982 179.623 71.1956 181.213C61.0766 186.237 51.6889 187.924 50.2276 184.981C50.0006 184.524 49.9783 183.982 50.1403 183.373C52.3861 181.336 55.178 179.426 58.3692 177.842C66.956 173.578 75.675 173.045 79.7011 176.169Z" fill="black"/>
<path d="M71.1956 181.213L70.9732 180.765L70.9732 180.765L71.1956 181.213ZM79.7011 176.169L79.9915 176.576L80.5383 176.185L80.0076 175.773L79.7011 176.169ZM50.2276 184.981L50.6755 184.758L50.6755 184.758L50.2276 184.981ZM50.1403 183.373L49.8044 183.003L49.6952 183.102L49.6572 183.245L50.1403 183.373ZM58.3692 177.842L58.5916 178.29L58.5916 178.29L58.3692 177.842ZM71.4179 181.661C74.6419 180.06 77.557 178.313 79.9915 176.576L79.4106 175.762C77.0233 177.465 74.1544 179.186 70.9732 180.765L71.4179 181.661ZM49.7798 185.203C50.2561 186.162 51.3278 186.65 52.6268 186.835C53.9448 187.023 55.6304 186.922 57.5534 186.577C61.4062 185.884 66.3284 184.188 71.4179 181.661L70.9732 180.765C65.9437 183.262 61.1126 184.921 57.3765 185.592C55.505 185.929 53.9373 186.012 52.7679 185.845C51.5796 185.676 50.9298 185.271 50.6755 184.758L49.7798 185.203ZM49.6572 183.245C49.4735 183.934 49.4842 184.608 49.7798 185.203L50.6755 184.758C50.5171 184.439 50.4831 184.029 50.6235 183.502L49.6572 183.245ZM58.1469 177.394C54.9173 178.997 52.0867 180.933 49.8044 183.003L50.4762 183.744C52.6856 181.74 55.4386 179.855 58.5916 178.29L58.1469 177.394ZM80.0076 175.773C77.8548 174.103 74.5223 173.456 70.7088 173.736C66.8793 174.018 62.4901 175.237 58.1469 177.394L58.5916 178.29C62.8352 176.183 67.0989 175.004 70.782 174.734C74.4813 174.462 77.5212 175.11 79.3946 176.564L80.0076 175.773Z" fill="black"/>
<path d="M76.6626 165.557L78.2827 156.481" stroke="black"/>
<path d="M62.86 170.198L58.478 160.363" stroke="black"/>
<path d="M53.4202 177.139L43.4015 173.194" stroke="black"/>
<path d="M124.854 24.2607C131.097 15.1355 139.722 7.37307 150.095 3.57701C160.468 -0.219048 172.687 0.389295 181.894 6.49706C191.102 12.5805 196.397 23.5307 197.345 34.5295C198.292 45.5283 195.304 56.5759 190.64 66.6013C187.409 73.5365 183.231 80.3012 177.036 84.803C167.683 91.6164 154.978 92.2977 143.803 89.3534C136.296 87.358 129.3 83.9026 122.571 80.0579C120.238 78.7195 114.651 76.5782 113.193 74.2908C111.736 72.0034 112.27 67.453 112.295 64.8736C112.343 50.4924 116.716 36.1599 124.854 24.285V24.2607Z" fill="white" stroke="black" stroke-miterlimit="10"/>
<ellipse cx="9.88343" cy="7.35772" rx="9.88343" ry="7.35772" transform="matrix(0.838149 -0.545442 0.466489 0.884527 121.234 172.014)" fill="#FF6F92"/>
<ellipse cx="8.33638" cy="6.20602" rx="8.33638" ry="6.20602" transform="matrix(0.998672 0.0515102 -0.142644 0.989774 74.0991 192)" fill="#FF6F92"/>
</svg>
