<?xml version="1.0" encoding="UTF-8"?><svg id="Layer_1" xmlns="http://www.w3.org/2000/svg" viewBox="0 0 431.74 244.74"><defs><style>.cls-1{fill:beige;font-family:Tropiline-Bold, Tropiline;font-size:60px;font-weight:700;}</style></defs><text class="cls-1" transform="translate(55.49 160.5) rotate(-41.41)"><tspan x="0" y="0">C</tspan></text><text class="cls-1" transform="translate(85.24 134.35) rotate(-30.93)"><tspan x="0" y="0">h</tspan></text><text class="cls-1" transform="translate(115.78 116.08) rotate(-21.83)"><tspan x="0" y="0">a</tspan></text><text class="cls-1" transform="translate(143.85 103.47) rotate(-11.2)"><tspan x="0" y="0">m</tspan></text><text class="cls-1" transform="translate(196.23 94.02) rotate(-.83)"><tspan x="0" y="0">b</tspan></text><text class="cls-1" transform="translate(232.48 93.65) rotate(8.51)"><tspan x="0" y="0">e</tspan></text><text class="cls-1" transform="translate(266.25 98.85) rotate(16.29)"><tspan x="0" y="0">r</tspan></text><text class="cls-1" transform="translate(292.48 106.76) rotate(21.9)"><tspan x="0" y="0">l</tspan></text><text class="cls-1" transform="translate(307.14 112.07) rotate(28.34)"><tspan x="0" y="0">a</tspan></text><text class="cls-1" transform="translate(335.4 127.74) rotate(34.86)"><tspan x="0" y="0">i</tspan></text><text class="cls-1" transform="translate(348.66 136.11) rotate(42.11)"><tspan x="0" y="0">n</tspan></text><text class="cls-1" transform="translate(125.28 178.38) rotate(-18.2)"><tspan x="0" y="0">C</tspan></text><text class="cls-1" transform="translate(163.1 166.05) rotate(-8.73)"><tspan x="0" y="0">o</tspan></text><text class="cls-1" transform="translate(197.14 160.34) rotate(.83)"><tspan x="0" y="0">ff</tspan></text><text class="cls-1" transform="translate(239.8 161.15) rotate(10.27)"><tspan x="0" y="0">e</tspan></text><text class="cls-1" transform="translate(273.31 167.09) rotate(18.98)"><tspan x="0" y="0">e</tspan></text></svg>