<?xml version="1.0" encoding="UTF-8"?><svg id="Layer_1" xmlns="http://www.w3.org/2000/svg" viewBox="0 0 386 241"><defs><style>.cls-1{fill:beige;font-family:Tropiline-Bold, Tropiline;font-size:34px;font-weight:700;}</style></defs><text class="cls-1" transform="translate(53.1 134.74) rotate(38.23)"><tspan x="0" y="0">I</tspan></text><text class="cls-1" transform="translate(62.08 142.02) rotate(33.53)"><tspan x="0" y="0">n</tspan></text><text class="cls-1" transform="translate(80.49 153.89) rotate(29.19)"><tspan x="0" y="0"> </tspan></text><text class="cls-1" transform="translate(88.99 158.93) rotate(24.56)"><tspan x="0" y="0">C</tspan></text><text class="cls-1" transform="translate(111.83 169.15) rotate(18.55)"><tspan x="0" y="0">a</tspan></text><text class="cls-1" transform="translate(130.76 175.3) rotate(14.67)"><tspan x="0" y="0">l</tspan></text><text class="cls-1" transform="translate(140.54 177.85) rotate(12.07)"><tspan x="0" y="0">i</tspan></text><text class="cls-1" transform="translate(150.65 180.04) rotate(8.99)"><tspan x="0" y="0">f</tspan></text><text class="cls-1" transform="translate(164.42 182.33) rotate(4.61)"><tspan x="0" y="0">o</tspan></text><text class="cls-1" transform="translate(186.04 184.02) rotate(-.83)"><tspan x="0" y="0">r</tspan></text><text class="cls-1" transform="translate(203.21 183.93) rotate(-4.97)"><tspan x="0" y="0">n</tspan></text><text class="cls-1" transform="translate(224.76 181.83) rotate(-8.97)"><tspan x="0" y="0">i</tspan></text><text class="cls-1" transform="translate(235.22 180.31) rotate(-12.87)"><tspan x="0" y="0">a</tspan></text><text class="cls-1" transform="translate(254.89 175.61) rotate(-16.86)"><tspan x="0" y="0">,</tspan></text><text class="cls-1" transform="translate(264.96 172.53) rotate(-19.44)"><tspan x="0" y="0"> </tspan></text><text class="cls-1" transform="translate(274.26 169.48) rotate(-23.8)"><tspan x="0" y="0">U</tspan></text><text class="cls-1" transform="translate(296.19 159.73) rotate(-30.33)"><tspan x="0" y="0">S</tspan></text><text class="cls-1" transform="translate(317.5 147.16) rotate(-37.22)"><tspan x="0" y="0">A</tspan></text><text class="cls-1" transform="translate(43.13 84.18) rotate(39.52)"><tspan x="0" y="0">R</tspan></text><text class="cls-1" transform="translate(63.42 100.68) rotate(32.89)"><tspan x="0" y="0">o</tspan></text><text class="cls-1" transform="translate(81.75 112.41) rotate(27.14)"><tspan x="0" y="0">a</tspan></text><text class="cls-1" transform="translate(100.54 121.91) rotate(21.68)"><tspan x="0" y="0">s</tspan></text><text class="cls-1" transform="translate(118.39 128.86) rotate(17.31)"><tspan x="0" y="0">t</tspan></text><text class="cls-1" transform="translate(132.27 133.28) rotate(12.71)"><tspan x="0" y="0">e</tspan></text><text class="cls-1" transform="translate(153.35 138) rotate(7.07)"><tspan x="0" y="0">d</tspan></text><text class="cls-1" transform="translate(175.9 140.52) rotate(3.05)"><tspan x="0" y="0"> </tspan></text><text class="cls-1" transform="translate(185.56 141.36) rotate(-1.53)"><tspan x="0" y="0">w</tspan></text><text class="cls-1" transform="translate(213.57 140.2) rotate(-6.33)"><tspan x="0" y="0">i</tspan></text><text class="cls-1" transform="translate(223.85 139.09) rotate(-9.4)"><tspan x="0" y="0">t</tspan></text><text class="cls-1" transform="translate(238.27 136.81) rotate(-14.07)"><tspan x="0" y="0">h</tspan></text><text class="cls-1" transform="translate(259.58 131.21) rotate(-18.16)"><tspan x="0" y="0"> </tspan></text><text class="cls-1" transform="translate(268.9 128.35) rotate(-22.32)"><tspan x="0" y="0">L</tspan></text><text class="cls-1" transform="translate(289.72 119.71) rotate(-28.26)"><tspan x="0" y="0">o</tspan></text><text class="cls-1" transform="translate(308.99 109.21) rotate(-33.94)"><tspan x="0" y="0">v</tspan></text><text class="cls-1" transform="translate(324.99 98.43) rotate(-39.64)"><tspan x="0" y="0">e</tspan></text></svg>