<svg width="216" height="360" viewBox="0 0 216 360" fill="none" xmlns="http://www.w3.org/2000/svg">
<g clip-path="url(#clip0_133_2650)">
<path d="M178.435 295.402C176.887 302.698 178.566 310.438 182.261 316.944C185.957 323.45 191.565 328.749 197.831 332.943C198.371 333.302 199.043 333.661 199.613 333.359C200.138 333.086 200.255 332.412 200.314 331.823C201.424 319.4 199.963 306.762 196.078 294.885C195.202 292.185 194.165 289.485 192.398 287.245C190.63 285.004 188.031 283.266 185.153 283.108C184.438 283.065 183.664 283.152 183.138 283.625C182.714 283.999 182.524 284.559 182.349 285.09C180.932 289.427 179.516 293.765 178.099 298.102" fill="#ED6546"/>
<path d="M178.435 295.402C176.887 302.698 178.566 310.438 182.261 316.944C185.957 323.45 191.565 328.749 197.831 332.943C198.371 333.302 199.043 333.661 199.613 333.359C200.138 333.086 200.255 332.412 200.314 331.823C201.424 319.4 199.963 306.762 196.078 294.885C195.202 292.185 194.165 289.485 192.398 287.245C190.63 285.004 188.031 283.266 185.153 283.108C184.438 283.065 183.664 283.152 183.138 283.625C182.714 283.999 182.524 284.559 182.349 285.09C180.932 289.427 179.516 293.765 178.099 298.102" stroke="black" stroke-miterlimit="10"/>
<path d="M165.699 229.784C166.707 228.42 167.086 226.696 167.481 225.059C168.547 220.708 169.993 216.428 171.804 212.321C171.935 212.019 172.081 211.703 172.344 211.502C173.177 210.899 174.243 211.818 174.871 212.636C177.617 216.241 180.83 219.487 183.211 223.336C185.591 227.185 187.081 231.852 185.898 236.189C181.502 236.017 177.091 235.845 172.695 235.658C170.022 235.557 166.926 235.213 165.494 232.987C164.063 230.746 165.319 232.398 166.385 229.971L165.684 229.784H165.699Z" fill="#ED6546" stroke="black" stroke-miterlimit="10"/>
<path d="M30.1748 156.038C12.6191 138.976 5.22872 111.029 11.4945 87.5478C17.7602 64.0811 37.4337 44.5351 61.2406 38.1586C85.7047 31.5954 113.382 37.9862 135.86 26.4539C139.219 24.7306 142.535 22.4614 144.112 19.0865C145.689 15.7115 144.857 11.0009 141.483 9.32065C138.591 7.87013 135.13 9.01905 131.887 8.90416C128.645 8.78927 124.877 5.77335 126.483 3.00158C139.015 -2.97281 155.168 3.4037 162.705 14.9073C170.241 26.4252 170.3 41.4761 166.079 54.5163C159.638 74.3639 143.557 90.9515 123.708 98.2184C107.613 104.107 89.8527 104.02 73.3777 108.817C67.3895 110.555 61.4743 113.025 56.932 117.233C52.3897 121.441 43.6703 127.631 43.7433 133.763C43.8017 139.45 43.1737 142.15 55.4277 150.997L30.1894 156.038H30.1748Z" fill="#ED6546" stroke="black" stroke-miterlimit="10"/>
<path d="M29.1525 154.013C19.9657 154.128 11.5091 159.987 6.73315 167.699C1.95717 175.411 0.482014 184.732 0.759518 193.751C1.31047 211.329 8.39576 228.625 20.3723 241.689C20.5358 241.868 20.593 242.12 20.5207 242.35V242.35C20.4825 242.472 20.4803 242.603 20.5115 242.727C21.9452 248.413 19.6798 254.321 18.9287 260.159C18.1692 266.061 20.0387 273.4 25.8663 274.994C30.0727 276.143 34.5857 273.544 36.981 269.953C38.9048 267.07 39.764 263.677 40.3833 260.258C40.5453 259.363 41.7248 259.104 42.2506 259.845C58.589 282.887 86.0585 298 114.604 299.508C114.975 299.528 115.306 299.749 115.465 300.085C124.336 318.832 137.892 335.42 154.584 347.994C156.6 349.516 158.922 351.053 161.463 350.823C164.472 350.55 166.736 347.735 167.291 344.805C167.846 341.876 167.086 338.889 166.239 336.031C162.377 323.004 156.677 310.476 150.934 298.11C150.529 297.237 151.489 296.315 152.368 296.71C166.604 303.111 184.349 301.509 197.028 292.429C210.283 282.936 217.353 265.767 214.611 249.876C214.525 249.382 214.076 249.042 213.575 249.034C207.007 248.932 201.922 243.145 196.984 238.688C183.123 226.194 161.142 221.871 144.857 231.091C142.569 232.396 140.368 233.602 137.941 234.595C137.589 234.739 137.186 234.663 136.908 234.403C126.71 224.862 120.571 211.932 114.857 199.266C109.059 186.412 103.217 173.185 93.2997 163.061C83.4012 152.955 68.2937 146.483 54.6578 150.572C54.6066 150.587 54.554 150.598 54.501 150.605L29.1817 154.013H29.1525Z" fill="#ED6546" stroke="black" stroke-miterlimit="10"/>
<path d="M171.5 270C179.508 270 186 267.538 186 264.5C186 261.462 179.508 259 171.5 259C163.492 259 157 261.462 157 264.5C157 267.538 163.492 270 171.5 270Z" fill="white" stroke="black" stroke-miterlimit="10"/>
<path fill-rule="evenodd" clip-rule="evenodd" d="M186 264.5C186 267.538 179.508 270 171.5 270C170.74 270 169.994 269.978 169.265 269.935C169.092 269.315 169 268.667 169 268C169 263.582 173.029 260 178 260C181.477 260 184.493 261.753 185.992 264.318C185.997 264.378 186 264.439 186 264.5Z" fill="black"/>
<path d="M169.265 269.935L168.784 270.07L168.88 270.413L169.236 270.434L169.265 269.935ZM185.992 264.318L186.49 264.275L186.481 264.163L186.424 264.066L185.992 264.318ZM171.5 270.5C175.549 270.5 179.237 269.878 181.93 268.857C183.276 268.346 184.399 267.727 185.194 267.013C185.99 266.3 186.5 265.451 186.5 264.5H185.5C185.5 265.067 185.199 265.666 184.527 266.269C183.855 266.871 182.855 267.437 181.576 267.922C179.022 268.89 175.459 269.5 171.5 269.5V270.5ZM169.236 270.434C169.974 270.478 170.73 270.5 171.5 270.5V269.5C170.75 269.5 170.013 269.478 169.294 269.436L169.236 270.434ZM168.5 268C168.5 268.713 168.598 269.407 168.784 270.07L169.747 269.801C169.586 269.224 169.5 268.621 169.5 268H168.5ZM178 259.5C172.81 259.5 168.5 263.252 168.5 268H169.5C169.5 263.912 173.249 260.5 178 260.5V259.5ZM186.424 264.066C184.829 261.336 181.641 259.5 178 259.5V260.5C181.313 260.5 184.158 262.169 185.56 264.57L186.424 264.066ZM186.5 264.5C186.5 264.425 186.497 264.35 186.49 264.275L185.494 264.361C185.498 264.407 185.5 264.453 185.5 264.5H186.5Z" fill="black"/>
<path d="M161.438 334.753C163.308 328.321 171.363 322.968 180.756 321.899C190.149 320.831 200.29 324.096 205.095 329.756C206.404 331.309 207.367 333.051 207.396 334.842C207.468 338.404 203.987 341.541 200.089 343.886C191.228 349.21 178.555 351.941 167.321 349.546C164.574 348.962 161.855 348.032 160.057 346.479C157.569 344.332 157.267 341.284 158.288 338.632C159.309 335.98 161.481 333.615 163.639 331.3" fill="#A45115"/>
<path d="M161.438 334.753C163.308 328.321 171.363 322.968 180.756 321.899C190.149 320.831 200.29 324.096 205.095 329.756C206.404 331.309 207.367 333.051 207.396 334.842C207.468 338.404 203.987 341.541 200.089 343.886C191.228 349.21 178.555 351.941 167.321 349.546C164.574 348.962 161.855 348.032 160.057 346.479C157.569 344.332 157.267 341.284 158.288 338.632C159.309 335.98 161.481 333.615 163.639 331.3" stroke="black" stroke-miterlimit="10"/>
<path d="M170 258.985V251" stroke="black" stroke-miterlimit="10"/>
<path d="M177.828 259.484L180.092 251.815" stroke="black" stroke-miterlimit="10"/>
<path d="M162.997 260.495L159.083 253.501" stroke="black" stroke-miterlimit="10"/>
<path d="M194.384 284.214C196.691 286.182 200.021 286.943 202.972 286.139C203.454 286.01 204.038 285.651 203.892 285.191" stroke="black" stroke-miterlimit="10"/>
<path d="M142.427 239.249C140.981 230.848 141.623 222.102 144.282 214.002C144.501 213.356 144.866 212.594 145.552 212.551C146.18 212.523 146.633 213.097 146.954 213.628C151.628 220.938 156.302 228.248 160.976 235.558C155.119 237.339 148.517 238.574 142.427 239.249Z" fill="#ED6546" stroke="black" stroke-miterlimit="10"/>
<rect width="26.2584" height="4.31377" transform="matrix(0.964416 -0.264388 0.272782 0.962076 140.107 239.079)" fill="#ED6546"/>
<path d="M215.173 249.493C215.991 250.86 215.708 256.065 213.97 257.071C212.232 258.077 208.946 255.566 208.128 254.199C207.309 252.832 208.806 249.845 210.544 248.84C212.282 247.834 214.354 248.126 215.173 249.493Z" fill="black"/>
<ellipse cx="164.467" cy="286.304" rx="8.92818" ry="6.32412" transform="rotate(22.0511 164.467 286.304)" fill="#FF6F92"/>
</g>
<defs>
<clipPath id="clip0_133_2650">
<rect width="216" height="360" fill="white"/>
</clipPath>
</defs>
</svg>
