<svg width="245" height="312" viewBox="0 0 245 312" fill="none" xmlns="http://www.w3.org/2000/svg">
<path d="M90.8546 79.4831C91.0296 73.2966 89.3427 67.3804 88.6743 61.2733C87.7513 52.892 88.4356 44.0496 90.5204 35.8909C93.0189 26.0942 98.8276 12.751 106.323 4.30606C107.787 2.65207 110.27 2.28628 112.1 3.52677C114.949 5.48294 118.354 6.88247 120.98 9.1408C127.441 14.723 131.977 22.6113 134.221 30.7699C136.274 38.2447 141.319 53.0511 134.3 58.7605C125.245 66.1399 113.66 74.9029 102.265 78.179C99.0345 79.1015 93.2258 80.7077 90.1384 78.7516" fill="#FF5C46"/>
<path d="M90.8546 79.4831C91.0296 73.2966 89.3427 67.3804 88.6743 61.2733C87.7513 52.892 88.4356 44.0496 90.5204 35.8909C93.0189 26.0942 98.8276 12.751 106.323 4.30606C107.787 2.65207 110.27 2.28628 112.1 3.52677C114.949 5.48294 118.354 6.88247 120.98 9.1408C127.441 14.723 131.977 22.6113 134.221 30.7699C136.274 38.2447 141.319 53.0511 134.3 58.7605C125.245 66.1399 113.66 74.9029 102.265 78.179C99.0345 79.1015 93.2258 80.7077 90.1384 78.7516" stroke="black" stroke-miterlimit="10"/>
<path d="M120.472 151.305C117.267 158.336 112.815 162.272 107.061 167.478C98.2946 175.413 93.2142 186.919 92.1725 198.632C91.1308 210.344 94.9354 222.216 100.128 232.786C105.898 244.514 110.712 254.925 121.963 261.718C133.213 268.51 146.916 271.574 159.881 269.209C172.847 266.844 184.85 258.845 191.117 247.371C194.194 241.737 195.893 235.087 194.418 228.834C193.312 224.136 190.508 220.01 187.383 216.312C181.789 209.725 175.042 204.187 169.289 197.727C163.535 191.268 158.695 183.507 158.118 174.921C157.766 169.573 159.064 164.034 157.381 158.939C155.202 152.305 148.278 148.036 141.291 147.195C134.303 146.354 127.283 148.353 120.745 150.925" fill="#FF5C46"/>
<path d="M120.472 151.305C117.267 158.336 112.815 162.272 107.061 167.478C98.2946 175.413 93.2142 186.919 92.1725 198.632C91.1308 210.344 94.9354 222.216 100.128 232.786C105.898 244.514 110.712 254.925 121.963 261.718C133.213 268.51 146.916 271.574 159.881 269.209C172.847 266.844 184.85 258.845 191.117 247.371C194.194 241.737 195.893 235.087 194.418 228.834C193.312 224.136 190.508 220.01 187.383 216.312C181.789 209.725 175.042 204.187 169.289 197.727C163.535 191.268 158.695 183.507 158.118 174.921C157.766 169.573 159.064 164.034 157.381 158.939C155.202 152.305 148.278 148.036 141.291 147.195C134.303 146.354 127.283 148.353 120.745 150.925" stroke="black" stroke-miterlimit="10"/>
<path d="M97.3738 230.748L122.311 160.946L136.65 166.035L111.697 233.467L97.3738 230.748Z" fill="#D00F0F" stroke="black" stroke-miterlimit="10"/>
<path d="M112.492 233.865L136.014 164.286L149.557 169.375L126.004 236.568L112.492 233.865Z" fill="#D00F0F" stroke="black" stroke-miterlimit="10"/>
<path d="M135.44 165.504C136.408 162.127 134.076 158.497 130.232 157.396C126.387 156.296 122.486 158.142 121.518 161.52C120.55 164.898 122.882 168.528 126.727 169.628C130.571 170.728 134.473 168.882 135.44 165.504Z" fill="#D00F0F" stroke="black" stroke-miterlimit="10"/>
<path d="M143.143 174.385C147.142 174.385 150.384 171.537 150.384 168.023C150.384 164.51 147.142 161.662 143.143 161.662C139.144 161.662 135.902 164.51 135.902 168.023C135.902 171.537 139.144 174.385 143.143 174.385Z" fill="#D00F0F" stroke="black" stroke-miterlimit="10"/>
<path d="M122.029 150.225C124.193 147.76 120.111 147.163 117.797 149.488C116.523 150.768 115.356 152.193 114.217 153.597C105.073 164.866 95.6583 176.462 85.5093 188.995C82.4811 192.741 79.243 197.221 80.1574 202.028C80.6821 204.744 82.4661 206.991 84.19 209.098C86.0639 211.393 87.9378 213.702 89.8267 215.997C92.2103 218.916 94.6838 221.912 97.9519 223.66C101.22 225.408 105.537 225.642 108.356 223.176C109.87 221.85 110.784 219.93 111.654 218.073C113.108 214.936 111.339 213.718 108.671 211.611C107.816 210.94 106.722 210.675 105.807 210.097V210.097C102.479 207.962 97.7603 206.315 96.9465 202.446C96.8348 201.915 96.8146 201.368 96.8433 200.784C97.0113 197.367 97.9607 193.999 99.4837 190.936C101.778 186.321 104.856 180.852 107.69 176.16C111.092 170.528 114.435 164.84 117.375 158.953C119.06 155.58 120.58 152.604 121.157 151.478C121.321 151.159 121.792 150.495 122.029 150.225V150.225Z" fill="#FF5C46" stroke="black" stroke-miterlimit="10"/>
<path d="M159.906 157.547C160.814 167.264 161.577 177.013 162.198 186.762C162.294 188.32 162.389 189.895 162.103 191.437C161.721 193.505 160.654 195.397 159.524 197.179C155.466 203.556 150.358 209.186 145.838 215.229C143.276 218.681 140.284 222.625 135.987 222.831C133.536 222.959 131.165 221.734 129.383 220.048C128.444 219.158 127.648 218.14 126.916 217.058C125.834 215.452 126.232 213.257 127.791 212.096C134.205 207.341 141.475 202.284 145.931 195.7C150.228 189.338 152.249 183 152.843 174.579C153.089 171.101 152.797 166.875 152.542 163.025C152.269 158.895 151.995 153.909 155.979 155.032C157.888 155.571 159.883 156.294 160.657 156.306C160.679 156.306 160.697 156.306 160.718 156.306V156.306" fill="#FF5C46"/>
<path d="M159.906 157.547C160.814 167.264 161.577 177.013 162.198 186.762C162.294 188.32 162.389 189.895 162.103 191.437C161.721 193.505 160.654 195.397 159.524 197.179C155.466 203.556 150.358 209.186 145.838 215.229C143.276 218.681 140.284 222.625 135.987 222.831C133.536 222.959 131.165 221.734 129.383 220.048C128.444 219.158 127.648 218.14 126.916 217.058C125.834 215.452 126.232 213.257 127.791 212.096C134.205 207.341 141.475 202.284 145.931 195.7C150.228 189.338 152.249 183 152.843 174.579C153.089 171.101 152.797 166.875 152.542 163.025C152.269 158.895 151.995 153.909 155.979 155.032C157.888 155.571 159.883 156.294 160.657 156.306C160.679 156.306 160.697 156.306 160.718 156.306V156.306" stroke="black" stroke-miterlimit="10"/>
<path d="M177.667 65.6985C183.523 61.7225 189.109 57.2695 195.395 54.1523C201.681 51.0352 208.349 49.5879 214.89 47.9499C223.166 45.8665 232.969 43.6399 241.499 44.4828C241.515 44.4828 241.531 44.4828 241.547 44.4828C243.584 44.6737 244.793 47.1229 243.918 49.1744C243.186 50.8921 242.852 52.9436 242.231 54.9316C238.762 65.9529 232.81 76.7198 225.935 85.3873C220.667 92.0351 213.713 97.6809 205.676 99.16C200.217 100.178 195.825 98.7624 190.637 96.7426C181.614 93.212 178.892 84.7034 177.587 74.6523C177.269 72.219 176.601 68.7838 177.11 66.4936" fill="#FF5C46"/>
<path d="M177.667 65.6985C183.523 61.7225 189.109 57.2695 195.395 54.1523C201.681 51.0352 208.349 49.5879 214.89 47.9499C223.166 45.8665 232.969 43.6399 241.499 44.4828C241.515 44.4828 241.531 44.4828 241.547 44.4828C243.584 44.6737 244.793 47.1229 243.918 49.1744C243.186 50.8921 242.852 52.9436 242.231 54.9316C238.762 65.9529 232.81 76.7198 225.935 85.3873C220.667 92.0351 213.713 97.6809 205.676 99.16C200.217 100.178 195.825 98.7624 190.637 96.7426C181.614 93.212 178.892 84.7034 177.587 74.6523C177.269 72.219 176.601 68.7838 177.11 66.4936" stroke="black" stroke-miterlimit="10"/>
<path d="M124.932 54.2423C133.506 49.7747 143.203 47.5828 152.756 49.071C171.719 52.0253 187.633 61.3782 196.064 80.6504C201.323 92.6679 206.156 105.724 206.695 118.766C207.24 131.962 204.452 148.721 192.197 153.646V153.646C183.762 157.034 174.659 157.734 165.652 158.179C146.459 159.149 128.221 155.078 110.763 147.189C100.451 142.53 88.8334 137.043 81.1786 128.502C67.6197 113.394 77.1205 91.8284 89.645 79.7892C98.2706 71.4875 106.61 64.4421 117.049 58.5259C119.296 57.2552 122.015 55.7623 124.932 54.2423Z" fill="#FF5C46" stroke="black" stroke-miterlimit="10"/>
<path d="M173.465 126.928C185.067 126.928 194.472 117.529 194.472 105.935C194.472 94.3409 185.067 84.942 173.465 84.942C161.864 84.942 152.458 94.3409 152.458 105.935C152.458 117.529 161.864 126.928 173.465 126.928Z" fill="white" stroke="black" stroke-miterlimit="10"/>
<path d="M122.365 111.835C133.966 111.835 143.372 102.436 143.372 90.8423C143.372 79.2482 133.966 69.8493 122.365 69.8493C110.763 69.8493 101.358 79.2482 101.358 90.8423C101.358 102.436 110.763 111.835 122.365 111.835Z" fill="white" stroke="black" stroke-miterlimit="10"/>
<path d="M146.26 127.089C145.305 130.922 140.69 134.723 136.425 133.657C132.16 132.592 129.868 127.089 130.823 123.24C131.778 119.392 135.629 118.692 139.894 119.757C144.159 120.823 147.231 123.24 146.276 127.073L146.26 127.089Z" fill="black" stroke="black" stroke-miterlimit="10"/>
<path d="M123.871 70C119.656 73.9085 117 79.492 117 85.7083C117 96.7636 125.376 105.865 136.129 107C140.344 103.092 143 97.508 143 91.2918C143 80.2364 134.624 71.1353 123.871 70Z" fill="black"/>
<path d="M175.871 85C171.656 88.9085 169 94.492 169 100.708C169 111.764 177.376 120.865 188.129 122C192.344 118.092 195 112.508 195 106.292C195 95.2364 186.624 86.1353 175.871 85Z" fill="black"/>
<path d="M179 86L182 76" stroke="black"/>
<path d="M168.5 85.2803L166.679 75" stroke="black"/>
<path d="M187.341 92.1558L193.659 83.8441" stroke="black"/>
<path d="M129 71L132 61" stroke="black"/>
<path d="M118.5 70.2803L117 61" stroke="black"/>
<path d="M137.341 76.1558L143.659 67.8441" stroke="black"/>
<path d="M136 133.5C135.5 135 133.4 137.4 129 135" stroke="black"/>
<path d="M137.826 134.173C137.666 135.746 138.594 138.797 143.592 138.417" stroke="black"/>
<ellipse cx="11.056" cy="8.23062" rx="11.056" ry="8.23062" transform="matrix(0.996931 -0.078286 -0.0132322 0.999912 165.218 130.731)" fill="#FF6F92"/>
<ellipse cx="11.056" cy="8.23062" rx="11.056" ry="8.23062" transform="matrix(-0.881114 -0.472904 -0.390326 0.920677 119.908 117.457)" fill="#FF6F92"/>
<path fill-rule="evenodd" clip-rule="evenodd" d="M152.415 157.211C152.683 156.27 153.153 155.583 153.94 155.338L152.415 157.211ZM145.003 196.953C140.907 202.569 134.802 207.069 129.114 211.262C128.566 211.666 128.023 212.066 127.485 212.465C125.926 213.626 125.528 215.821 126.61 217.427C127.342 218.508 128.138 219.526 129.077 220.417C130.859 222.103 133.23 223.327 135.681 223.2C139.978 222.993 142.97 219.049 145.532 215.598C147.151 213.434 148.845 211.323 150.539 209.211C151.793 207.648 153.047 206.085 154.271 204.501L145.003 196.953Z" fill="black"/>
<path fill-rule="evenodd" clip-rule="evenodd" d="M86.5309 188.155C86.1912 188.574 85.8506 188.995 85.5093 189.416C82.4811 193.162 79.243 197.642 80.1574 202.449C80.6821 205.165 82.4661 207.412 84.19 209.519C84.7796 210.241 85.3692 210.964 85.9592 211.688C87.2446 213.266 88.5321 214.845 89.8267 216.418C92.2103 219.336 94.6838 222.333 97.9519 224.081C101.22 225.829 105.537 226.063 108.356 223.597C109.87 222.271 110.784 220.351 111.654 218.494C113.051 215.479 111.473 214.237 108.98 212.276C108.878 212.196 108.775 212.115 108.671 212.032C108.186 211.652 107.625 211.402 107.064 211.152C106.634 210.96 106.204 210.768 105.807 210.518C105.065 210.042 104.253 209.59 103.431 209.132C100.568 207.538 97.5787 205.873 96.9465 202.867C96.8348 202.336 96.8146 201.789 96.8433 201.205C96.9501 199.032 97.3729 196.879 98.0584 194.811L86.5309 188.155Z" fill="black"/>
<path d="M143.933 168.265C144.243 168.734 144.001 169.447 143.478 169.73C142.956 170.014 142.185 170.09 141.734 169.728C141.283 169.366 141.019 168.817 140.944 168.263C140.944 168.263 140.944 168.263 140.944 167.805C140.997 167.691 141.094 166.696 141.192 166.618C143.473 165.517 144.551 166.831 145.413 167.238C146.035 167.534 146.73 168.874 146.752 169.542C146.775 170.276 145.97 170.774 145.255 171.048C143.936 171.564 142.419 171.874 141.152 171.321C139.768 170.721 139.055 169.283 138.617 167.897C138.546 167.654 138.475 167.412 138.525 167.167C138.61 166.747 139.006 165.534 139.414 165.333C142.331 163.775 146.326 164.619 148.181 167.189" stroke="black" stroke-width="0.5" stroke-miterlimit="10"/>
<path d="M129.042 162.306C128.463 161.954 127.617 161.666 127.163 162.194C126.85 162.562 126.944 163.17 127.273 163.522C127.602 163.873 128.071 164.033 128.557 164.113C128.98 164.177 129.434 164.177 129.825 163.985C130.718 163.538 130.812 162.146 130.201 161.346C129.59 160.546 128.51 160.258 127.523 160.242C126.584 160.242 125.488 161.484 125.206 162.396C124.908 163.339 125.66 164.283 126.365 164.955C127.179 165.739 128.056 166.507 129.121 166.842C130.186 167.178 131.662 166.996 132.382 166.116C133.04 165.332 133.087 163.307 132.915 162.299C132.789 161.595 132.394 160.898 131.892 160.402C131.548 160.05 131.094 159.842 130.64 159.651C129.262 159.091 127.727 158.755 126.318 159.219C124.908 159.683 123.749 161.17 124.047 162.658" stroke="black" stroke-width="0.5" stroke-miterlimit="10"/>
<path d="M0.891182 301.822C12.0789 286.093 23.3303 270.268 37.0006 256.639C50.6551 242.994 66.9831 231.511 85.5391 226.167C102.17 221.38 119.85 221.698 137.069 223.448C149.308 224.688 161.625 226.66 173.004 231.336C184.383 236.012 194.87 243.63 201.188 254.19C206.869 263.7 208.763 276.121 203.512 285.87C199.979 292.438 193.708 297.114 187.152 300.692C169.964 310.092 149.514 313.368 130.258 309.789C111.638 306.322 94.658 296.828 76.3248 292.073C51.1325 285.552 23.6167 288.462 0.350098 300.136" fill="#FF5C46"/>
<path d="M0.891182 301.822C12.0789 286.093 23.3303 270.268 37.0006 256.639C50.6551 242.994 66.9831 231.511 85.5391 226.167C102.17 221.38 119.85 221.698 137.069 223.448C149.308 224.688 161.625 226.66 173.004 231.336C184.383 236.012 194.87 243.63 201.188 254.19C206.869 263.7 208.763 276.121 203.512 285.87C199.979 292.438 193.708 297.114 187.152 300.692C169.964 310.092 149.514 313.368 130.258 309.789C111.638 306.322 94.658 296.828 76.3248 292.073C51.1325 285.552 23.6167 288.462 0.350098 300.136" stroke="black" stroke-miterlimit="10"/>
<path d="M105.5 102.5L98.5 107" stroke="black"/>
<path d="M113.161 109.334L109.43 116.772" stroke="black"/>
<path d="M124.28 111.571L124.938 119.867" stroke="black"/>
<path d="M156.608 118.484L150.392 124.016" stroke="black"/>
<path d="M165.264 125.66L162.327 133.446" stroke="black"/>
<path d="M176.78 127.071L178 135" stroke="black"/>
</svg>
