<svg width="300" height="298" viewBox="0 0 300 298" fill="none" xmlns="http://www.w3.org/2000/svg">
<g clip-path="url(#clip0_133_2457)">
<path d="M74.5888 174.441C68.0338 171.021 59.1814 172.911 54.5989 178.711C50.0165 184.512 50.2228 193.558 55.0623 199.15C53.463 197.457 50.3757 198.126 48.9805 199.998C47.5854 201.87 47.5016 204.414 47.8645 206.709C48.8472 212.814 52.6898 218.387 58.0535 221.483C56.109 225.281 55.174 229.601 55.366 233.868C55.4557 235.913 56.0006 238.229 57.7981 239.227C59.5956 240.225 62.4777 238.354 61.5401 236.537C64.0029 240.966 66.9536 245.111 70.3219 248.89C72.9185 251.807 77.9494 250.471 78.3987 246.591L78.4193 246.519C77.9448 249.28 80.6984 251.866 83.5027 251.914C86.307 251.963 88.8478 250.026 90.3296 247.631C91.8114 245.235 92.4079 242.431 92.9879 239.684C94.183 234.013 95.3717 228.09 93.8349 222.5C92.8201 218.814 90.699 215.547 89.2996 212.001C87.9002 208.455 87.3463 204.195 89.4068 200.978C91.9488 197.007 97.8132 195.658 97.0288 189.187C96.7923 187.272 95.983 185.445 94.7415 183.979C92.1221 180.868 88.2129 179.314 84.3597 178.168C80.7671 177.096 77.0567 176.272 73.7699 174.458" fill="#FFF9EA"/>
<path d="M74.5888 174.441C68.0338 171.021 59.1814 172.911 54.5989 178.711C50.0165 184.512 50.2228 193.558 55.0623 199.15C53.463 197.457 50.3757 198.126 48.9805 199.998C47.5854 201.87 47.5016 204.414 47.8645 206.709C48.8472 212.814 52.6898 218.387 58.0535 221.483C56.109 225.281 55.174 229.601 55.366 233.868C55.4557 235.913 56.0006 238.229 57.7981 239.227C59.5956 240.225 62.4777 238.354 61.5401 236.537C64.0029 240.966 66.9536 245.111 70.3219 248.89C72.9185 251.807 77.9494 250.471 78.3987 246.591L78.4193 246.519C77.9448 249.28 80.6984 251.866 83.5027 251.914C86.307 251.963 88.8478 250.026 90.3296 247.631C91.8114 245.235 92.4079 242.431 92.9879 239.684C94.183 234.013 95.3717 228.09 93.8349 222.5C92.8201 218.814 90.699 215.547 89.2996 212.001C87.9002 208.455 87.3463 204.195 89.4068 200.978C91.9488 197.007 97.8132 195.658 97.0288 189.187C96.7923 187.272 95.983 185.445 94.7415 183.979C92.1221 180.868 88.2129 179.314 84.3597 178.168C80.7671 177.096 77.0567 176.272 73.7699 174.458" stroke="black" stroke-miterlimit="10"/>
<path d="M232.138 140.463C234.215 142.95 238.325 144.514 241.424 145.507C244.522 146.501 248.61 145.068 249.237 141.881C251.972 143.271 254.942 144.495 258.011 144.384C261.08 144.273 264.289 142.574 265.29 139.666C266.292 136.758 264.163 132.972 261.085 133.002C263.898 133.131 266.6 130.849 266.94 128.065C267.28 125.282 265.219 122.408 262.468 121.842C262.136 117.411 261.418 112.791 258.759 109.214C256.101 105.638 251 103.541 247.063 105.596C247.31 101.878 244.608 98.179 240.994 97.2892C237.381 96.3994 233.267 98.4194 231.748 101.822C230.496 98.5839 226.404 96.7906 223.177 98.0617C219.949 99.3328 218.18 103.447 219.47 106.664C218.648 104.551 215.728 103.702 213.768 104.865C211.808 106.028 211.083 108.734 211.923 110.836C212.764 112.939 214.979 114.338 217.231 114.511C213.117 117.737 211.629 123.888 213.792 128.654C215.955 133.42 221.573 136.337 226.705 135.359C226.301 138.641 227.281 142.068 229.371 144.621C230.283 145.758 231.601 146.791 233.053 146.642C234.504 146.492 233.289 142.795 232.294 141.729L232.146 140.434L232.138 140.463Z" fill="#FFF9EA" stroke="black" stroke-miterlimit="10"/>
<path d="M144.109 121.457L149.31 121.938C150.168 116.954 156.508 113.831 160.976 116.17C167.622 111.365 177.263 111.157 184.096 115.689C185.854 110.241 193.879 108.178 198.054 112.093C201.494 109.693 206.207 109.253 210.042 110.957C213.876 112.662 216.684 116.484 217.186 120.651C221.936 120.19 226.42 125.054 225.564 129.757C229.741 129.164 233.304 134.674 231.045 138.257C234.538 138.909 237.071 142.763 236.299 146.237C239.18 145.086 242.795 146.243 244.481 148.838C246.168 151.432 245.715 155.217 243.488 157.369C250.177 159.825 251.695 170.419 245.991 174.663C250.589 175.833 250.712 183.086 247.096 186.156C243.481 189.227 238.269 189.274 233.513 189.154C233 190.84 232.488 192.526 231.99 194.215C230.125 193.182 227.427 194.792 227.448 196.912C231.85 194.379 237.688 194.604 241.879 197.475C246.07 200.345 248.393 205.705 247.617 210.728C251.504 213.951 249.752 221.467 244.832 222.631C247.707 223.42 249.758 226.494 249.401 229.445C249.045 232.397 246.314 234.89 243.33 234.978C248.047 240.284 247.527 249.405 242.246 254.145C244.729 258.063 243.507 263.554 240.303 266.882C237.099 270.211 232.351 271.706 227.744 272.051C216.682 272.904 205.266 267.534 199.212 258.245C193.157 248.955 192.93 236.084 199.004 226.811C192.867 229.115 185.329 223.16 186.164 216.666C177.289 213.586 169.874 206.539 166.361 197.834C165.672 202.335 164.785 207.201 161.432 210.284C158.079 213.367 151.397 212.916 150.138 208.549C142.214 212.176 132.103 210.356 125.942 204.183C127.83 208.323 123.646 213.767 119.166 213.006C120.189 216.116 120.367 219.501 119.687 222.705C124.781 223.234 127.214 230.895 123.384 234.28C127.618 232.388 132.775 234.673 135.651 238.312C138.527 241.951 139.648 246.638 140.694 251.148C143.12 256.255 140.515 263.137 135.298 265.343C130.081 267.55 123.324 264.62 121.357 259.331C113.733 261.743 105.924 256.792 99.4514 252.096C95.0162 248.873 90.5521 245.643 86.6833 241.753C79.1257 234.164 74.0259 224.161 72.3279 213.594C69.654 208.698 73.9857 201.636 79.5591 201.801C77.4488 199.54 77.2218 195.78 79.0324 193.275C80.843 190.77 84.4947 189.823 87.3016 191.125C78.0978 183.489 72.5362 171.648 72.5458 159.705C72.5554 147.762 78.1259 135.918 87.3462 128.294C94.1891 122.637 102.685 119.362 111.144 116.656C116.794 114.854 122.623 113.245 128.554 113.528C134.485 113.811 140.568 116.251 143.937 121.126" fill="#FFF9EA"/>
<path d="M144.109 121.457L149.31 121.938C150.168 116.954 156.508 113.831 160.976 116.17C167.622 111.365 177.263 111.157 184.096 115.689C185.854 110.241 193.879 108.178 198.054 112.093C201.494 109.693 206.207 109.253 210.042 110.957C213.876 112.662 216.684 116.484 217.186 120.651C221.936 120.19 226.42 125.054 225.564 129.757C229.741 129.164 233.304 134.674 231.045 138.257C234.538 138.909 237.071 142.763 236.299 146.237C239.18 145.086 242.795 146.243 244.481 148.838C246.168 151.432 245.715 155.217 243.488 157.369C250.177 159.825 251.695 170.419 245.991 174.663C250.589 175.833 250.712 183.086 247.096 186.156C243.481 189.227 238.269 189.274 233.513 189.154C233 190.84 232.488 192.526 231.99 194.215C230.125 193.182 227.427 194.792 227.448 196.912C231.85 194.379 237.688 194.604 241.879 197.475C246.07 200.345 248.393 205.705 247.617 210.728C251.504 213.951 249.752 221.467 244.832 222.631C247.707 223.42 249.758 226.494 249.401 229.445C249.045 232.397 246.314 234.89 243.33 234.978C248.047 240.284 247.527 249.405 242.246 254.145C244.729 258.063 243.507 263.554 240.303 266.882C237.099 270.211 232.351 271.706 227.744 272.051C216.682 272.904 205.266 267.534 199.212 258.245C193.157 248.955 192.93 236.084 199.004 226.811C192.867 229.115 185.329 223.16 186.164 216.666C177.289 213.586 169.874 206.539 166.361 197.834C165.672 202.335 164.785 207.201 161.432 210.284C158.079 213.367 151.397 212.916 150.138 208.549C142.214 212.176 132.103 210.356 125.942 204.183C127.83 208.323 123.646 213.767 119.166 213.006C120.189 216.116 120.367 219.501 119.687 222.705C124.781 223.234 127.214 230.895 123.384 234.28C127.618 232.388 132.775 234.673 135.651 238.312C138.527 241.951 139.648 246.638 140.694 251.148C143.12 256.255 140.515 263.137 135.298 265.343C130.081 267.55 123.324 264.62 121.357 259.331C113.733 261.743 105.924 256.792 99.4514 252.096C95.0162 248.873 90.5521 245.643 86.6833 241.753C79.1257 234.164 74.0259 224.161 72.3279 213.594C69.654 208.698 73.9857 201.636 79.5591 201.801C77.4488 199.54 77.2218 195.78 79.0324 193.275C80.843 190.77 84.4947 189.823 87.3016 191.125C78.0978 183.489 72.5362 171.648 72.5458 159.705C72.5554 147.762 78.1259 135.918 87.3462 128.294C94.1891 122.637 102.685 119.362 111.144 116.656C116.794 114.854 122.623 113.245 128.554 113.528C134.485 113.811 140.568 116.251 143.937 121.126" stroke="black" stroke-miterlimit="10"/>
<path d="M65.975 51.463C63.138 52.4071 59.9442 50.541 58.4955 47.9359C57.0469 45.3308 56.9422 42.1853 57.0919 39.1908C57.5208 30.9371 59.6351 22.7572 63.2552 15.3356C63.7759 14.2786 64.3483 13.2051 65.2497 12.4602C67.4803 10.6229 71.0336 11.4486 73.1231 13.4538C75.2126 15.4589 76.2333 18.302 77.2953 21.0004C78.3573 23.6987 79.6282 26.488 82.0216 28.1414C83.0529 31.4416 82.376 35.0216 80.7663 38.085C77.7803 43.7775 71.2402 46.452 66.4276 50.6997" fill="#FFF9EA"/>
<path d="M65.975 51.463C63.138 52.4071 59.9442 50.541 58.4955 47.9359C57.0469 45.3308 56.9422 42.1853 57.0919 39.1908C57.5208 30.9371 59.6351 22.7572 63.2552 15.3356C63.7759 14.2786 64.3483 13.2051 65.2497 12.4602C67.4803 10.6229 71.0336 11.4486 73.1231 13.4538C75.2126 15.4589 76.2333 18.302 77.2953 21.0004C78.3573 23.6987 79.6282 26.488 82.0216 28.1414C83.0529 31.4416 82.376 35.0216 80.7663 38.085C77.7803 43.7775 71.2402 46.452 66.4276 50.6997" stroke="black" stroke-miterlimit="10"/>
<path d="M122.433 123.461C123.703 125.921 126.808 127.277 129.473 126.55C132.139 125.823 134.125 123.086 133.961 120.315C135.719 123.04 139.808 123.909 142.513 122.113C145.217 120.317 146.013 116.207 144.18 113.524L147.853 114.258C149.897 114.669 151.856 113.287 152.162 111.229L152.787 107.117C157.513 109.045 163.468 107.268 166.362 103.052C169.255 98.8365 168.793 92.6615 165.303 88.926C166.243 86.6735 165.02 83.7726 162.755 82.876C182.995 82.6692 201.792 66.0035 204.419 45.9301C190.736 33.7447 169.785 30.461 153.031 37.8776C153.189 34.1964 147.592 31.9735 145.184 34.7622C146.593 30.4829 144.446 25.3302 140.421 23.3052C136.395 21.2802 130.98 22.6473 128.392 26.3398C126.706 23.4163 124.628 20.7101 122.241 18.3225C117.848 13.9069 110.664 14.065 106.515 18.6742L103.289 22.2471C102.475 19.0088 98.8093 16.8203 95.5607 17.6158C92.3122 18.4112 90.1091 22.0725 90.8901 25.3169C88.4203 23.9861 85.091 24.4611 83.1003 26.4451C81.1096 28.4292 80.6126 31.7631 81.9413 34.24C81.5686 33.1317 81.2062 32.042 80.8335 30.9337C73.6736 45.1109 58.1034 55.292 56.1887 71.0594C54.9706 81.0919 53.681 89.475 58.4823 98.1091C63.5776 107.25 68.3946 115.853 78.2917 122.735C80.9732 125.849 88.2162 131.611 92.148 132.811C96.0798 134.01 100.807 132.478 102.096 128.728C102.492 132.004 106.1 134.505 109.315 133.716C112.531 132.926 114.587 129.067 113.436 125.967L118.098 129.818C119.933 131.343 122.901 130.217 122.986 127.831C123.003 127.225 122.847 126.617 122.438 126.077L122.404 123.453L122.433 123.461Z" fill="#FFF9EA" stroke="black" stroke-miterlimit="10"/>
<path d="M92.4324 121.85C92.1311 123.345 90.6135 124.274 89.1682 124.786C86.2113 125.821 82.917 125.899 79.8994 125.007" stroke="black" stroke-miterlimit="10"/>
<path d="M177.898 54.0519C176.727 57.5535 173.682 60.3797 170.094 61.2663C166.506 62.1529 162.49 61.0853 159.823 58.5241" stroke="black" stroke-miterlimit="10"/>
<path d="M70.9739 113.107C70.7943 114.76 74.3167 120.568 77.6232 120.927C80.9297 121.286 83.7558 120.237 83.9353 118.584C84.1149 116.931 82.3521 114.229 79.0456 113.87C75.7391 113.51 71.1535 111.454 70.9739 113.107Z" fill="black"/>
<path d="M84.9947 147.875C100.422 152.813 127.642 142.985 139.662 137.308C139.887 137.201 140.089 137.07 140.281 136.911L141.885 135.576C143.691 134.074 146.17 135.202 145.485 137.449C144.838 139.569 143.597 141.859 141.371 143.712C135.745 148.392 119.097 154.536 108.878 155.331C98.6592 156.126 59.7918 147.824 57.0358 144.511C54.2797 141.199 65.5322 141.646 84.9947 147.875Z" fill="#734F62" stroke="black"/>
<path d="M80.2544 140.473C95.5325 145.363 125.063 138.999 137.356 133.42C137.814 133.212 138.192 132.883 138.478 132.47C139.973 130.311 141.57 131.015 139.907 133.046C139.031 134.116 137.943 135.217 136.63 136.309C131.005 140.99 112.265 144.62 102.046 145.414C68.075 147.59 52.7873 137.771 48.2236 131.147C47.4754 130.061 47.8265 128.619 48.6597 127.597C50.9815 124.749 53.3958 120.932 58.7329 125.243C60.9643 127.045 61.4696 128.317 61.1042 129.192C60.5382 130.548 59.1836 127.815 57.754 127.475C55.1022 126.845 47.8408 130.05 50.7709 131.867C52.8737 133.171 55.2214 134.119 56.4266 134.535C56.6702 134.619 56.9241 134.661 57.1811 134.679C61.1445 134.962 68.9132 136.843 80.2544 140.473Z" fill="#734F62" stroke="black"/>
<path d="M127.119 151.443C112.56 149.466 83.632 146.727 68.7908 148.91C66.6601 149.223 62.0039 149.842 59.8548 149.982C57.3237 150.148 55.6555 150.871 61.1535 153.722C71.1305 158.895 71.9719 153.94 70.5773 152.264C69.1827 150.587 68.2742 152.052 67.4361 152.75C67.0831 153.043 67.5142 153.209 68.1715 153.296C69.3314 153.451 69.7476 153.309 69.0043 154.213C68.949 154.28 68.8911 154.351 68.8307 154.426C67.9587 155.506 66.8977 154.92 66.0369 153.964C65.1489 152.979 65.4074 151.421 66.5646 150.773C69.3561 149.209 71.8741 150.275 73.4933 151.662C74.3648 152.409 74.4213 153.679 73.7432 154.605C72.3429 156.516 70.0738 158.94 68.4083 159.032C65.6681 159.185 44.8312 153.781 55.7195 147.228C62.004 143.478 89.6409 146.032 102.793 142.584C112.707 139.984 140.354 145.891 142.562 149.591C144.771 153.292 142.489 153.529 127.119 151.443Z" fill="#734F62" stroke="black"/>
<path d="M91.2717 153.151C85.6184 144.819 92.6031 141.375 96.8021 140.695C94.4225 142.024 94.0024 143.508 90.6711 145.369C87.3397 147.23 92.1678 151.401 93.0212 154.047C93.8745 156.692 98.3251 157.952 100.495 157.365C102.664 156.777 102.805 149.206 103.225 147.722C103.645 146.238 102.526 143.117 101.994 142.165C101.463 141.214 99.4606 145.454 97.557 146.518C96.0341 147.368 97.7058 149.765 98.7321 150.856L99.9497 150.801C98.7451 156.469 98.6336 154.034 96.5068 150.226C94.3799 146.419 96.4936 144.614 101.463 141.214C105.438 138.493 104.06 149.962 102.874 156.036C101.362 158.545 96.925 161.482 91.2717 153.151Z" fill="#FFF9EA" stroke="#FFF9EA"/>
<ellipse cx="8.92293" cy="6.32041" rx="8.92293" ry="6.32041" transform="matrix(-0.926849 0.375433 0.375433 0.926849 124.925 107.244)" fill="#FF6F92"/>
<ellipse cx="8.92293" cy="6.32041" rx="8.92293" ry="6.32041" transform="matrix(-0.698388 -0.71572 -0.71572 0.698388 74.0669 106.933)" fill="#FF6F92"/>
<path d="M114.207 98.985L113.496 105.949" stroke="black" stroke-miterlimit="10"/>
<path d="M124.562 97.022L127.932 103.397" stroke="black" stroke-miterlimit="10"/>
<path d="M105.559 96.0858L100.97 101.648" stroke="black" stroke-miterlimit="10"/>
<path fill-rule="evenodd" clip-rule="evenodd" d="M130.392 91.5863C128.139 97.1979 121.536 100.51 114.302 99.7709C107.067 99.0318 101.27 94.4529 100.199 88.5017L101.244 88.6085C102.361 93.891 107.592 98.0802 114.403 98.776C121.214 99.4719 127.184 96.427 129.347 91.4795L130.392 91.5863Z" fill="black"/>
<path d="M72.0965 90.9639L70.8645 97.8546" stroke="black" stroke-miterlimit="10"/>
<path d="M82.6443 89.7864L85.5259 96.3967" stroke="black" stroke-miterlimit="10"/>
<path d="M63.765 87.4268L58.7714 92.6291" stroke="black" stroke-miterlimit="10"/>
<path fill-rule="evenodd" clip-rule="evenodd" d="M88.8655 84.8035C86.1981 90.2302 79.3646 93.0373 72.2063 91.7575C65.0481 90.4777 59.6106 85.4766 58.9888 79.4619L60.0229 79.6467C60.7407 84.9982 65.6427 89.5681 72.3823 90.7731C79.122 91.9781 85.3038 89.3898 87.8314 84.6186L88.8655 84.8035Z" fill="black"/>
</g>
<defs>
<clipPath id="clip0_133_2457">
<rect width="243.071" height="239.593" fill="white" transform="matrix(-0.961636 -0.274328 -0.274328 0.961636 299.606 66.6812)"/>
</clipPath>
</defs>
</svg>
