<svg width="300" height="298" viewBox="0 0 300 298" fill="none" xmlns="http://www.w3.org/2000/svg">
<g clip-path="url(#clip0_127_728)">
<path d="M74.455 175.119C67.9001 171.7 59.0476 173.589 54.4651 179.39C49.8827 185.19 50.0891 194.236 54.9285 199.828C53.3292 198.135 50.2419 198.804 48.8467 200.676C47.4516 202.548 47.3678 205.092 47.7307 207.387C48.7134 213.492 52.556 219.066 57.9197 222.161C55.9752 225.959 55.0402 230.28 55.2322 234.546C55.3219 236.591 55.8668 238.907 57.6643 239.905C59.4618 240.903 62.3439 239.033 61.4063 237.215C63.8691 241.644 66.8198 245.789 70.1881 249.568C72.7847 252.485 77.8156 251.149 78.2649 247.269L78.2855 247.197C77.811 249.958 80.5646 252.544 83.3689 252.592C86.1732 252.641 88.714 250.704 90.1958 248.309C91.6776 245.913 92.2741 243.109 92.8541 240.362C94.0492 234.691 95.2379 228.768 93.7012 223.179C92.6863 219.492 90.5653 216.225 89.1658 212.679C87.7664 209.133 87.2125 204.873 89.273 201.657C91.815 197.685 97.6794 196.336 96.8951 189.866C96.6585 187.951 95.8492 186.123 94.6077 184.657C91.9883 181.546 88.0791 179.992 84.2259 178.846C80.6333 177.774 76.9229 176.951 73.6361 175.136" fill="#FFF9EA"/>
<path d="M74.455 175.119C67.9001 171.7 59.0476 173.589 54.4651 179.39C49.8827 185.19 50.0891 194.236 54.9285 199.828C53.3292 198.135 50.2419 198.804 48.8467 200.676C47.4516 202.548 47.3678 205.092 47.7307 207.387C48.7134 213.492 52.556 219.066 57.9197 222.161C55.9752 225.959 55.0402 230.28 55.2322 234.546C55.3219 236.591 55.8668 238.907 57.6643 239.905C59.4618 240.903 62.3439 239.033 61.4063 237.215C63.8691 241.644 66.8198 245.789 70.1881 249.568C72.7847 252.485 77.8156 251.149 78.2649 247.269L78.2855 247.197C77.811 249.958 80.5646 252.544 83.3689 252.592C86.1732 252.641 88.714 250.704 90.1958 248.309C91.6776 245.913 92.2741 243.109 92.8541 240.362C94.0492 234.691 95.2379 228.768 93.7012 223.179C92.6863 219.492 90.5653 216.225 89.1658 212.679C87.7664 209.133 87.2125 204.873 89.273 201.657C91.815 197.685 97.6794 196.336 96.8951 189.866C96.6585 187.951 95.8492 186.123 94.6077 184.657C91.9883 181.546 88.0791 179.992 84.2259 178.846C80.6333 177.774 76.9229 176.951 73.6361 175.136" stroke="black" stroke-miterlimit="10"/>
<path d="M232.004 141.141C234.082 143.628 238.191 145.192 241.29 146.186C244.388 147.179 248.476 145.746 249.103 142.559C251.838 143.95 254.808 145.173 257.877 145.062C260.946 144.951 264.155 143.252 265.157 140.344C266.158 137.436 264.029 133.65 260.952 133.681C263.764 133.81 266.466 131.528 266.806 128.744C267.146 125.96 265.085 123.086 262.335 122.521C262.002 118.089 261.285 113.47 258.626 109.893C255.967 106.316 250.866 104.219 246.93 106.275C247.176 102.556 244.474 98.8575 240.861 97.9677C237.247 97.0778 233.133 99.0979 231.614 102.5C230.362 99.2624 226.27 97.469 223.043 98.7401C219.815 100.011 218.047 104.125 219.336 107.343C218.514 105.229 215.594 104.381 213.634 105.544C211.674 106.707 210.949 109.412 211.79 111.515C212.63 113.618 214.846 115.017 217.098 115.19C212.984 118.415 211.495 124.566 213.658 129.332C215.821 134.098 221.439 137.016 226.572 136.038C226.168 139.32 227.147 142.746 229.237 145.299C230.149 146.436 231.467 147.47 232.919 147.32C234.371 147.171 233.155 143.474 232.16 142.407L232.013 141.112L232.004 141.141Z" fill="#FFF9EA" stroke="black" stroke-miterlimit="10"/>
<path d="M143.975 122.135L149.176 122.617C150.035 117.632 156.374 114.509 160.842 116.848C167.488 112.044 177.13 111.835 183.962 116.367C185.72 110.919 193.745 108.856 197.92 112.772C201.36 110.371 206.073 109.931 209.908 111.635C213.743 113.34 216.55 117.163 217.053 121.33C221.803 120.868 226.286 125.733 225.43 130.436C229.607 129.843 233.17 135.352 230.911 138.935C234.405 139.587 236.938 143.441 236.165 146.916C239.046 145.765 242.661 146.921 244.348 149.516C246.034 152.111 245.581 155.895 243.354 158.047C250.043 160.503 251.562 171.097 245.858 175.341C250.455 176.512 250.578 183.764 246.962 186.835C243.347 189.905 238.135 189.953 233.379 189.833C232.867 191.518 232.354 193.204 231.857 194.894C229.991 193.86 227.293 195.47 227.314 197.59C231.716 195.057 237.554 195.282 241.745 198.153C245.936 201.024 248.259 206.383 247.483 211.407C251.37 214.629 249.618 222.145 244.698 223.309C247.573 224.098 249.624 227.172 249.267 230.124C248.911 233.075 246.18 235.568 243.196 235.656C247.913 240.963 247.394 250.083 242.112 254.823C244.595 258.741 243.373 264.232 240.169 267.561C236.965 270.89 232.217 272.385 227.61 272.73C216.548 273.582 205.133 268.212 199.078 258.923C193.023 249.634 192.796 236.762 198.87 227.489C192.734 229.793 185.195 223.838 186.03 217.344C177.155 214.265 169.74 207.218 166.227 198.513C165.538 203.013 164.651 207.879 161.298 210.962C157.945 214.045 151.263 213.595 150.004 209.228C142.081 212.854 131.969 211.034 125.808 204.861C127.696 209.001 123.512 214.446 119.033 213.684C120.056 216.794 120.233 220.18 119.554 223.383C124.647 223.913 127.08 231.574 123.25 234.959C127.484 233.067 132.641 235.352 135.517 238.99C138.393 242.629 139.514 247.317 140.56 251.827C142.986 256.934 140.381 263.815 135.164 266.022C129.947 268.228 123.19 265.299 121.223 260.009C113.599 262.422 105.79 257.47 99.3176 252.774C94.8824 249.552 90.4183 246.321 86.5495 242.431C78.9919 234.842 73.8921 224.839 72.1941 214.272C69.5202 209.376 73.8519 202.314 79.4253 202.479C77.315 200.218 77.0881 196.458 78.8986 193.953C80.7092 191.448 84.361 190.501 87.1678 191.803C77.964 184.168 72.4024 172.326 72.412 160.383C72.4216 148.441 77.9921 136.597 87.2124 128.972C94.0553 123.315 102.551 120.04 111.011 117.334C116.66 115.533 122.489 113.923 128.42 114.206C134.351 114.489 140.434 116.929 143.803 121.804" fill="#FFF9EA"/>
<path d="M143.975 122.135L149.176 122.617C150.035 117.632 156.374 114.509 160.842 116.848C167.488 112.044 177.13 111.835 183.962 116.367C185.72 110.919 193.745 108.856 197.92 112.772C201.36 110.371 206.073 109.931 209.908 111.635C213.743 113.34 216.55 117.163 217.053 121.33C221.803 120.868 226.286 125.733 225.43 130.436C229.607 129.843 233.17 135.352 230.911 138.935C234.405 139.587 236.938 143.441 236.165 146.916C239.046 145.765 242.661 146.921 244.348 149.516C246.034 152.111 245.581 155.895 243.354 158.047C250.043 160.503 251.562 171.097 245.858 175.341C250.455 176.512 250.578 183.764 246.962 186.835C243.347 189.905 238.135 189.953 233.379 189.833C232.867 191.518 232.354 193.204 231.857 194.894C229.991 193.86 227.293 195.47 227.314 197.59C231.716 195.057 237.554 195.282 241.745 198.153C245.936 201.024 248.259 206.383 247.483 211.407C251.37 214.629 249.618 222.145 244.698 223.309C247.573 224.098 249.624 227.172 249.267 230.124C248.911 233.075 246.18 235.568 243.196 235.656C247.913 240.963 247.394 250.083 242.112 254.823C244.595 258.741 243.373 264.232 240.169 267.561C236.965 270.89 232.217 272.385 227.61 272.73C216.548 273.582 205.133 268.212 199.078 258.923C193.023 249.634 192.796 236.762 198.87 227.489C192.734 229.793 185.195 223.838 186.03 217.344C177.155 214.265 169.74 207.218 166.227 198.513C165.538 203.013 164.651 207.879 161.298 210.962C157.945 214.045 151.263 213.595 150.004 209.228C142.081 212.854 131.969 211.034 125.808 204.861C127.696 209.001 123.512 214.446 119.033 213.684C120.056 216.794 120.233 220.18 119.554 223.383C124.647 223.913 127.08 231.574 123.25 234.959C127.484 233.067 132.641 235.352 135.517 238.99C138.393 242.629 139.514 247.317 140.56 251.827C142.986 256.934 140.381 263.815 135.164 266.022C129.947 268.228 123.19 265.299 121.223 260.009C113.599 262.422 105.79 257.47 99.3176 252.774C94.8824 249.552 90.4183 246.321 86.5495 242.431C78.9919 234.842 73.8921 224.839 72.1941 214.272C69.5202 209.376 73.8519 202.314 79.4253 202.479C77.315 200.218 77.0881 196.458 78.8986 193.953C80.7092 191.448 84.361 190.501 87.1678 191.803C77.964 184.168 72.4024 172.326 72.412 160.383C72.4216 148.441 77.9921 136.597 87.2124 128.972C94.0553 123.315 102.551 120.04 111.011 117.334C116.66 115.533 122.489 113.923 128.42 114.206C134.351 114.489 140.434 116.929 143.803 121.804" stroke="black" stroke-miterlimit="10"/>
<path d="M65.8412 52.1413C63.0042 53.0855 59.8104 51.2194 58.3618 48.6142C56.9131 46.0091 56.8084 42.8637 56.9581 39.8691C57.387 31.6154 59.5013 23.4355 63.1214 16.0139C63.6421 14.957 64.2145 13.8834 65.1159 13.1385C67.3466 11.3012 70.8998 12.127 72.9893 14.1321C75.0788 16.1373 76.0995 18.9804 77.1615 21.6787C78.2235 24.3771 79.4945 27.1663 81.8878 28.8198C82.9191 32.1199 82.2422 35.7 80.6325 38.7634C77.6465 44.4558 71.1064 47.1304 66.2938 51.378" fill="#FFF9EA"/>
<path d="M65.8412 52.1413C63.0042 53.0855 59.8104 51.2194 58.3618 48.6142C56.9131 46.0091 56.8084 42.8637 56.9581 39.8691C57.387 31.6154 59.5013 23.4355 63.1214 16.0139C63.6421 14.957 64.2145 13.8834 65.1159 13.1385C67.3466 11.3012 70.8998 12.127 72.9893 14.1321C75.0788 16.1373 76.0995 18.9804 77.1615 21.6787C78.2235 24.3771 79.4945 27.1663 81.8878 28.8198C82.9191 32.1199 82.2422 35.7 80.6325 38.7634C77.6465 44.4558 71.1064 47.1304 66.2938 51.378" stroke="black" stroke-miterlimit="10"/>
<path d="M122.299 124.139C123.57 126.6 126.674 127.955 129.34 127.228C132.005 126.501 133.991 123.764 133.827 120.993C135.586 123.718 139.675 124.587 142.379 122.791C145.083 120.995 145.88 116.885 144.046 114.202L147.719 114.937C149.763 115.347 151.723 113.965 152.028 111.907L152.653 107.796C157.379 109.723 163.334 107.947 166.228 103.731C169.121 99.5149 168.66 93.3399 165.169 89.6044C166.109 87.3519 164.886 84.451 162.621 83.5544C182.861 83.3476 201.659 66.6819 204.285 46.6086C190.602 34.4231 169.652 31.1394 152.897 38.556C153.055 34.8748 147.458 32.6519 145.05 35.4406C146.459 31.1613 144.312 26.0086 140.287 23.9836C136.262 21.9586 130.846 23.3257 128.258 27.0182C126.572 24.0947 124.494 21.3885 122.107 19.0009C117.715 14.5853 110.53 14.7434 106.382 19.3527L103.155 22.9255C102.341 19.6873 98.6755 17.4987 95.4269 18.2942C92.1784 19.0896 89.9753 22.7509 90.7563 25.9953C88.2865 24.6645 84.9572 25.1395 82.9665 27.1235C80.9758 29.1076 80.4788 32.4415 81.8075 34.9184C81.4348 33.8101 81.0724 32.7204 80.6997 31.6121C73.5398 45.7893 57.9696 55.9704 56.0549 71.7378C54.8368 81.7703 53.5472 90.1534 58.3485 98.7875C63.4438 107.928 68.2608 116.531 78.1579 123.414C80.8394 126.527 88.0824 132.289 92.0142 133.489C95.946 134.689 100.673 133.157 101.962 129.407C102.358 132.682 105.966 135.183 109.181 134.394C112.397 133.605 114.453 129.745 113.302 126.645L117.965 130.496C119.8 132.022 122.767 130.895 122.853 128.509C122.869 127.903 122.714 127.295 122.304 126.755L122.27 124.131L122.299 124.139Z" fill="#FFF9EA" stroke="black" stroke-miterlimit="10"/>
<path d="M92.2986 122.528C91.9973 124.024 90.4798 124.953 89.0344 125.464C86.0776 126.499 82.7832 126.577 79.7656 125.685" stroke="black" stroke-miterlimit="10"/>
<path d="M112.502 107.574C104.906 105.407 100.504 97.4922 102.671 89.8961C104.838 82.3 112.753 77.8988 120.349 80.0657C127.945 82.2327 132.346 90.1473 130.179 97.7434C128.012 105.34 120.098 109.741 112.502 107.574Z" fill="white" stroke="black" stroke-miterlimit="10"/>
<path d="M127.767 85.3445L136.109 78.7689" stroke="black" stroke-miterlimit="10"/>
<path d="M120.405 80.2069L123.606 70.0826" stroke="black" stroke-miterlimit="10"/>
<path d="M112.646 80.465L110.257 70.1238" stroke="black" stroke-miterlimit="10"/>
<path d="M83.014 77.8537L90.0068 69.86" stroke="black" stroke-miterlimit="10"/>
<path d="M75.3459 73.2865L76.632 62.7411" stroke="black" stroke-miterlimit="10"/>
<path d="M67.0745 74.8409L62.8207 65.1105" stroke="black" stroke-miterlimit="10"/>
<path d="M112.666 103.286C110.885 104.202 109.012 104.708 107.135 104.844C105.687 103.641 104.458 102.14 103.542 100.36C99.9267 93.331 102.69 84.7143 109.719 81.0989C111.499 80.183 113.372 79.6768 115.249 79.5409C116.697 80.7431 117.927 82.2441 118.842 84.0247C122.458 91.0535 119.695 99.6703 112.666 103.286Z" fill="black"/>
<path d="M69.0052 101.432C61.409 99.2647 57.0078 91.3502 59.1748 83.754C61.3418 76.1579 69.2563 71.7567 76.8524 73.9237C84.4486 76.0906 88.8498 84.0052 86.6828 91.6013C84.5158 99.1974 76.6013 103.599 69.0052 101.432Z" fill="white" stroke="black" stroke-miterlimit="10"/>
<path d="M177.764 54.7302C176.593 58.2319 173.548 61.0581 169.96 61.9446C166.372 62.8312 162.356 61.7637 159.689 59.2025" stroke="black" stroke-miterlimit="10"/>
<path d="M70.8401 113.785C70.6605 115.438 74.1829 121.246 77.4894 121.606C80.7959 121.965 83.622 120.916 83.8016 119.262C83.9811 117.609 82.2183 114.907 78.9118 114.548C75.6053 114.189 71.0197 112.132 70.8401 113.785Z" fill="black"/>
<path d="M84.8609 148.553C100.288 153.491 127.508 143.664 139.528 137.986C139.753 137.88 139.955 137.749 140.147 137.589L141.751 136.254C143.557 134.752 146.036 135.881 145.351 138.128C144.705 140.247 143.464 142.537 141.237 144.39C135.611 149.071 118.963 155.215 108.744 156.009C98.5254 156.804 59.658 148.502 56.902 145.189C54.146 141.877 65.3984 142.325 84.8609 148.553Z" fill="#734F62" stroke="black"/>
<path d="M80.1206 141.151C95.3987 146.041 124.929 139.678 137.222 134.098C137.68 133.89 138.058 133.562 138.344 133.148C139.839 130.99 141.436 131.693 139.773 133.725C138.898 134.794 137.809 135.896 136.497 136.988C130.871 141.668 112.131 145.298 101.912 146.093C67.9413 148.269 52.6535 138.449 48.0898 131.825C47.3416 130.739 47.6927 129.298 48.5259 128.276C50.8477 125.428 53.262 121.61 58.5991 125.921C60.8306 127.723 61.3358 128.995 60.9704 129.871C60.4044 131.227 59.0498 128.494 57.6202 128.154C54.9684 127.524 47.707 130.729 50.6371 132.546C52.7399 133.85 55.0876 134.798 56.2928 135.213C56.5364 135.297 56.7903 135.34 57.0473 135.358C61.0107 135.64 68.7794 137.522 80.1206 141.151Z" fill="#734F62" stroke="black"/>
<path d="M126.985 152.121C112.426 150.145 83.4982 147.406 68.657 149.588C66.5263 149.901 61.8701 150.521 59.7211 150.661C57.1899 150.826 55.5217 151.55 61.0198 154.4C70.9967 159.573 71.8382 154.618 70.4435 152.942C69.0489 151.266 68.1404 152.731 67.3023 153.428C66.9493 153.722 67.3805 153.887 68.0377 153.975C69.1976 154.129 69.6139 153.987 68.8705 154.891C68.8152 154.959 68.7573 155.03 68.6969 155.104C67.8249 156.184 66.7639 155.598 65.9031 154.643C65.0151 153.657 65.2736 152.1 66.4308 151.451C69.2223 149.887 71.7403 150.954 73.3595 152.341C74.2311 153.087 74.2875 154.358 73.6094 155.283C72.2091 157.195 69.94 159.618 68.2746 159.711C65.5343 159.863 44.6974 154.459 55.5858 147.906C61.8702 144.156 89.5072 146.71 102.659 143.262C112.573 140.662 140.221 146.569 142.429 150.27C144.637 153.97 142.355 154.207 126.985 152.121Z" fill="#734F62" stroke="black"/>
<path d="M91.1379 153.829C85.4846 145.498 92.4693 142.054 96.6683 141.373C94.2887 142.703 93.8687 144.186 90.5373 146.047C87.2059 147.908 92.034 152.08 92.8874 154.725C93.7407 157.371 98.1913 158.631 100.361 158.043C102.53 157.456 102.671 149.884 103.092 148.4C103.512 146.917 102.392 143.796 101.861 142.844C101.329 141.892 99.3268 146.133 97.4232 147.196C95.9003 148.047 97.572 150.443 98.5983 151.535L99.8159 151.479C98.6114 157.147 98.4998 154.712 96.373 150.905C94.2461 147.097 96.3598 145.292 101.329 141.892C105.304 139.172 103.926 150.64 102.74 156.714C101.228 159.224 96.7912 162.161 91.1379 153.829Z" fill="#FFF9EA" stroke="#FFF9EA"/>
<ellipse cx="8.92293" cy="6.32041" rx="8.92293" ry="6.32041" transform="matrix(-0.926849 0.375433 0.375433 0.926849 124.791 107.922)" fill="#FF6F92"/>
<ellipse cx="8.92293" cy="6.32041" rx="8.92293" ry="6.32041" transform="matrix(-0.698388 -0.71572 -0.71572 0.698388 73.9331 107.612)" fill="#FF6F92"/>
<path d="M122.606 107L124.606 112" stroke="black"/>
<path d="M115.658 107.808L115.555 113.192" stroke="black"/>
<path d="M110.208 106.453L107.217 110.931" stroke="black"/>
<path d="M78.6064 100.547L80.6064 105.547" stroke="black"/>
<path d="M71.6581 101.355L71.5547 106.739" stroke="black"/>
<path d="M66.2081 100L63.2167 104.478" stroke="black"/>
<path d="M69.6657 97.2856C67.8851 98.2015 66.0122 98.7077 64.1351 98.8436C62.6872 97.6414 61.458 96.1405 60.5421 94.3598C56.9267 87.331 59.69 78.7143 66.7188 75.0989C68.4995 74.183 70.3723 73.6768 72.2494 73.5409C73.6974 74.7431 74.9265 76.2441 75.8424 78.0247C79.4578 85.0535 76.6945 93.6703 69.6657 97.2856Z" fill="black"/>
</g>
<defs>
<clipPath id="clip0_127_728">
<rect width="243.071" height="239.593" fill="white" transform="matrix(-0.961636 -0.274328 -0.274328 0.961636 299.473 67.3596)"/>
</clipPath>
</defs>
</svg>
