<svg width="300" height="298" viewBox="0 0 300 298" fill="none" xmlns="http://www.w3.org/2000/svg">
<g clip-path="url(#clip0_133_2383)">
<path d="M74.5888 174.441C68.0338 171.021 59.1814 172.911 54.5989 178.711C50.0165 184.512 50.2228 193.557 55.0623 199.149C53.463 197.456 50.3757 198.126 48.9805 199.998C47.5854 201.87 47.5016 204.414 47.8645 206.709C48.8472 212.813 52.6898 218.387 58.0535 221.483C56.109 225.281 55.174 229.601 55.366 233.867C55.4557 235.913 56.0006 238.229 57.7981 239.227C59.5956 240.225 62.4777 238.354 61.5401 236.537C64.0029 240.966 66.9536 245.111 70.3219 248.89C72.9185 251.807 77.9494 250.471 78.3987 246.591L78.4193 246.519C77.9448 249.28 80.6984 251.866 83.5027 251.914C86.307 251.962 88.8478 250.026 90.3296 247.63C91.8114 245.235 92.4079 242.43 92.9879 239.684C94.183 234.013 95.3717 228.09 93.8349 222.5C92.8201 218.813 90.699 215.547 89.2996 212.001C87.9002 208.455 87.3463 204.195 89.4068 200.978C91.9488 197.006 97.8132 195.658 97.0288 189.187C96.7923 187.272 95.983 185.444 94.7415 183.979C92.1221 180.867 88.2129 179.314 84.3597 178.168C80.7671 177.096 77.0567 176.272 73.7699 174.458" fill="#FFF9EA"/>
<path d="M74.5888 174.441C68.0338 171.021 59.1814 172.911 54.5989 178.711C50.0165 184.512 50.2228 193.557 55.0623 199.149C53.463 197.456 50.3757 198.126 48.9805 199.998C47.5854 201.87 47.5016 204.414 47.8645 206.709C48.8472 212.813 52.6898 218.387 58.0535 221.483C56.109 225.281 55.174 229.601 55.366 233.867C55.4557 235.913 56.0006 238.229 57.7981 239.227C59.5956 240.225 62.4777 238.354 61.5401 236.537C64.0029 240.966 66.9536 245.111 70.3219 248.89C72.9185 251.807 77.9494 250.471 78.3987 246.591L78.4193 246.519C77.9448 249.28 80.6984 251.866 83.5027 251.914C86.307 251.962 88.8478 250.026 90.3296 247.63C91.8114 245.235 92.4079 242.43 92.9879 239.684C94.183 234.013 95.3717 228.09 93.8349 222.5C92.8201 218.813 90.699 215.547 89.2996 212.001C87.9002 208.455 87.3463 204.195 89.4068 200.978C91.9488 197.006 97.8132 195.658 97.0288 189.187C96.7923 187.272 95.983 185.444 94.7415 183.979C92.1221 180.867 88.2129 179.314 84.3597 178.168C80.7671 177.096 77.0567 176.272 73.7699 174.458" stroke="black" stroke-miterlimit="10"/>
<path d="M232.138 140.463C234.215 142.95 238.325 144.514 241.424 145.507C244.522 146.501 248.61 145.068 249.237 141.881C251.972 143.271 254.942 144.495 258.011 144.384C261.08 144.273 264.289 142.574 265.29 139.666C266.292 136.758 264.163 132.972 261.085 133.002C263.898 133.131 266.6 130.849 266.94 128.065C267.28 125.282 265.219 122.408 262.468 121.842C262.136 117.411 261.418 112.791 258.759 109.214C256.101 105.638 251 103.541 247.063 105.596C247.31 101.878 244.608 98.179 240.994 97.2892C237.381 96.3994 233.267 98.4194 231.748 101.822C230.496 98.5839 226.404 96.7906 223.177 98.0617C219.949 99.3328 218.18 103.447 219.47 106.664C218.648 104.551 215.728 103.702 213.768 104.865C211.808 106.028 211.083 108.734 211.923 110.836C212.764 112.939 214.979 114.338 217.231 114.511C213.117 117.737 211.629 123.888 213.792 128.654C215.955 133.42 221.573 136.337 226.705 135.359C226.301 138.641 227.281 142.068 229.371 144.621C230.283 145.758 231.601 146.791 233.053 146.642C234.504 146.492 233.289 142.795 232.294 141.729L232.146 140.434L232.138 140.463Z" fill="#FFF9EA" stroke="black" stroke-miterlimit="10"/>
<path d="M144.109 121.457L149.31 121.938C150.168 116.954 156.508 113.831 160.976 116.17C167.622 111.365 177.263 111.157 184.096 115.689C185.854 110.241 193.879 108.178 198.054 112.093C201.494 109.693 206.207 109.253 210.042 110.957C213.876 112.662 216.684 116.484 217.186 120.651C221.936 120.19 226.42 125.054 225.564 129.757C229.741 129.164 233.304 134.674 231.045 138.257C234.538 138.909 237.071 142.763 236.299 146.237C239.18 145.086 242.795 146.243 244.481 148.838C246.168 151.432 245.715 155.217 243.488 157.369C250.177 159.825 251.695 170.419 245.991 174.663C250.589 175.833 250.712 183.086 247.096 186.156C243.481 189.227 238.269 189.274 233.513 189.154C233 190.84 232.488 192.526 231.99 194.215C230.125 193.182 227.427 194.792 227.448 196.912C231.85 194.379 237.688 194.604 241.879 197.475C246.07 200.345 248.393 205.705 247.617 210.728C251.504 213.951 249.752 221.467 244.832 222.631C247.707 223.42 249.758 226.494 249.401 229.445C249.045 232.397 246.314 234.89 243.33 234.978C248.047 240.284 247.527 249.405 242.246 254.145C244.729 258.063 243.507 263.554 240.303 266.882C237.099 270.211 232.351 271.706 227.744 272.051C216.682 272.904 205.266 267.534 199.212 258.245C193.157 248.955 192.93 236.084 199.004 226.811C192.867 229.115 185.329 223.16 186.164 216.666C177.289 213.586 169.874 206.539 166.361 197.834C165.672 202.335 164.785 207.201 161.432 210.284C158.079 213.367 151.397 212.916 150.138 208.549C142.214 212.176 132.103 210.356 125.942 204.183C127.83 208.323 123.646 213.767 119.166 213.006C120.189 216.116 120.367 219.501 119.687 222.705C124.781 223.234 127.214 230.895 123.384 234.28C127.618 232.388 132.775 234.673 135.651 238.312C138.527 241.951 139.648 246.638 140.694 251.148C143.12 256.255 140.515 263.137 135.298 265.343C130.081 267.55 123.324 264.62 121.357 259.331C113.733 261.743 105.924 256.792 99.4514 252.096C95.0162 248.873 90.5521 245.643 86.6833 241.753C79.1257 234.164 74.0259 224.161 72.3279 213.594C69.654 208.698 73.9857 201.636 79.5591 201.801C77.4488 199.54 77.2218 195.78 79.0324 193.275C80.843 190.77 84.4947 189.823 87.3016 191.125C78.0978 183.489 72.5362 171.648 72.5458 159.705C72.5554 147.762 78.1259 135.918 87.3462 128.294C94.1891 122.637 102.685 119.362 111.144 116.656C116.794 114.854 122.623 113.245 128.554 113.528C134.485 113.811 140.568 116.251 143.937 121.126" fill="#FFF9EA"/>
<path d="M144.109 121.457L149.31 121.938C150.168 116.954 156.508 113.831 160.976 116.17C167.622 111.365 177.263 111.157 184.096 115.689C185.854 110.241 193.879 108.178 198.054 112.093C201.494 109.693 206.207 109.253 210.042 110.957C213.876 112.662 216.684 116.484 217.186 120.651C221.936 120.19 226.42 125.054 225.564 129.757C229.741 129.164 233.304 134.674 231.045 138.257C234.538 138.909 237.071 142.763 236.299 146.237C239.18 145.086 242.795 146.243 244.481 148.838C246.168 151.432 245.715 155.217 243.488 157.369C250.177 159.825 251.695 170.419 245.991 174.663C250.589 175.833 250.712 183.086 247.096 186.156C243.481 189.227 238.269 189.274 233.513 189.154C233 190.84 232.488 192.526 231.99 194.215C230.125 193.182 227.427 194.792 227.448 196.912C231.85 194.379 237.688 194.604 241.879 197.475C246.07 200.345 248.393 205.705 247.617 210.728C251.504 213.951 249.752 221.467 244.832 222.631C247.707 223.42 249.758 226.494 249.401 229.445C249.045 232.397 246.314 234.89 243.33 234.978C248.047 240.284 247.527 249.405 242.246 254.145C244.729 258.063 243.507 263.554 240.303 266.882C237.099 270.211 232.351 271.706 227.744 272.051C216.682 272.904 205.266 267.534 199.212 258.245C193.157 248.955 192.93 236.084 199.004 226.811C192.867 229.115 185.329 223.16 186.164 216.666C177.289 213.586 169.874 206.539 166.361 197.834C165.672 202.335 164.785 207.201 161.432 210.284C158.079 213.367 151.397 212.916 150.138 208.549C142.214 212.176 132.103 210.356 125.942 204.183C127.83 208.323 123.646 213.767 119.166 213.006C120.189 216.116 120.367 219.501 119.687 222.705C124.781 223.234 127.214 230.895 123.384 234.28C127.618 232.388 132.775 234.673 135.651 238.312C138.527 241.951 139.648 246.638 140.694 251.148C143.12 256.255 140.515 263.137 135.298 265.343C130.081 267.55 123.324 264.62 121.357 259.331C113.733 261.743 105.924 256.792 99.4514 252.096C95.0162 248.873 90.5521 245.643 86.6833 241.753C79.1257 234.164 74.0259 224.161 72.3279 213.594C69.654 208.698 73.9857 201.636 79.5591 201.801C77.4488 199.54 77.2218 195.78 79.0324 193.275C80.843 190.77 84.4947 189.823 87.3016 191.125C78.0978 183.489 72.5362 171.648 72.5458 159.705C72.5554 147.762 78.1259 135.918 87.3462 128.294C94.1891 122.637 102.685 119.362 111.144 116.656C116.794 114.854 122.623 113.245 128.554 113.528C134.485 113.811 140.568 116.251 143.937 121.126" stroke="black" stroke-miterlimit="10"/>
<path d="M65.975 51.463C63.138 52.4071 59.9442 50.541 58.4955 47.9359C57.0469 45.3308 56.9422 42.1853 57.0919 39.1908C57.5208 30.9371 59.6351 22.7572 63.2552 15.3356C63.7759 14.2786 64.3483 13.2051 65.2497 12.4602C67.4803 10.6229 71.0336 11.4486 73.1231 13.4538C75.2126 15.4589 76.2333 18.302 77.2953 21.0004C78.3573 23.6987 79.6282 26.488 82.0216 28.1414C83.0529 31.4416 82.376 35.0216 80.7663 38.085C77.7803 43.7775 71.2402 46.452 66.4276 50.6997" fill="#FFF9EA"/>
<path d="M65.975 51.463C63.138 52.4071 59.9442 50.541 58.4955 47.9359C57.0469 45.3308 56.9422 42.1853 57.0919 39.1908C57.5208 30.9371 59.6351 22.7572 63.2552 15.3356C63.7759 14.2786 64.3483 13.2051 65.2497 12.4602C67.4803 10.6229 71.0336 11.4486 73.1231 13.4538C75.2126 15.4589 76.2333 18.302 77.2953 21.0004C78.3573 23.6987 79.6282 26.488 82.0216 28.1414C83.0529 31.4416 82.376 35.0216 80.7663 38.085C77.7803 43.7775 71.2402 46.452 66.4276 50.6997" stroke="black" stroke-miterlimit="10"/>
<path d="M122.433 123.461C123.703 125.921 126.808 127.277 129.473 126.55C132.139 125.823 134.125 123.086 133.961 120.315C135.719 123.04 139.808 123.909 142.513 122.113C145.217 120.317 146.013 116.207 144.18 113.524L147.853 114.258C149.897 114.669 151.856 113.287 152.162 111.229L152.787 107.117C157.513 109.045 163.468 107.268 166.362 103.052C169.255 98.8365 168.793 92.6615 165.303 88.926C166.243 86.6735 165.02 83.7726 162.755 82.876C182.995 82.6692 201.792 66.0035 204.419 45.9301C190.736 33.7447 169.785 30.461 153.031 37.8776C153.189 34.1964 147.592 31.9735 145.184 34.7622C146.593 30.4829 144.446 25.3302 140.421 23.3052C136.395 21.2802 130.98 22.6473 128.392 26.3398C126.706 23.4163 124.628 20.7101 122.241 18.3225C117.848 13.9069 110.664 14.065 106.515 18.6742L103.289 22.2471C102.475 19.0088 98.8093 16.8203 95.5607 17.6158C92.3122 18.4112 90.1091 22.0725 90.8901 25.3169C88.4203 23.9861 85.091 24.4611 83.1003 26.4451C81.1096 28.4292 80.6126 31.7631 81.9413 34.24C81.5686 33.1317 81.2062 32.042 80.8335 30.9337C73.6736 45.1109 58.1034 55.292 56.1887 71.0594C54.9706 81.0919 53.681 89.475 58.4823 98.1091C63.5776 107.25 68.3946 115.853 78.2917 122.735C80.9732 125.849 88.2162 131.611 92.148 132.811C96.0798 134.01 100.807 132.478 102.096 128.728C102.492 132.004 106.1 134.505 109.315 133.716C112.531 132.926 114.587 129.067 113.436 125.967L118.098 129.818C119.933 131.343 122.901 130.217 122.986 127.831C123.003 127.225 122.847 126.617 122.438 126.077L122.404 123.453L122.433 123.461Z" fill="#FFF9EA" stroke="black" stroke-miterlimit="10"/>
<path d="M92.4324 121.85C92.1311 123.345 90.6135 124.274 89.1682 124.786C86.2113 125.821 82.917 125.899 79.8994 125.007" stroke="black" stroke-miterlimit="10"/>
<path d="M115.427 99.4435C107.528 99.3707 101.146 97.0468 101.171 94.2529C101.197 91.459 107.621 89.253 115.52 89.3258C123.419 89.3985 129.801 91.7224 129.776 94.5164C129.75 97.3103 123.326 99.5162 115.427 99.4435Z" fill="white" stroke="black" stroke-miterlimit="10"/>
<path fill-rule="evenodd" clip-rule="evenodd" d="M111.278 99.189C105.41 98.5058 101.151 96.5364 101.172 94.253C101.197 91.4591 107.621 89.2531 115.52 89.3259C116.183 89.332 116.836 89.354 117.475 89.3908C117.257 93.4681 114.852 97.0285 111.278 99.189Z" fill="black"/>
<path d="M111.278 99.189L111.537 99.6169L111.391 99.7055L111.221 99.6857L111.278 99.189ZM101.172 94.253L101.672 94.2576L101.672 94.2576L101.172 94.253ZM115.52 89.3259L115.516 89.8259L115.516 89.8259L115.52 89.3259ZM117.475 89.3908L117.503 88.8916L118 88.9202L117.974 89.4174L117.475 89.3908ZM111.221 99.6857C108.252 99.3401 105.662 98.6667 103.8 97.7717C102.87 97.3246 102.098 96.811 101.553 96.2349C101.007 95.6565 100.665 94.9867 100.672 94.2484L101.672 94.2576C101.668 94.661 101.851 95.0937 102.28 95.548C102.712 96.0048 103.367 96.4543 104.233 96.8704C105.962 97.7018 108.436 98.3547 111.336 98.6924L111.221 99.6857ZM100.672 94.2484C100.68 93.3437 101.207 92.5557 101.996 91.9077C102.789 91.2575 103.902 90.698 105.231 90.2416C107.894 89.3271 111.534 88.7892 115.525 88.8259L115.516 89.8259C111.608 89.7899 108.086 90.3186 105.556 91.1873C104.289 91.6225 103.297 92.1338 102.631 92.6807C101.962 93.2299 101.676 93.7654 101.672 94.2576L100.672 94.2484ZM115.525 88.8259C116.196 88.8321 116.856 88.8543 117.503 88.8916L117.446 89.8899C116.815 89.8536 116.171 89.8319 115.516 89.8259L115.525 88.8259ZM117.974 89.4174C117.746 93.6834 115.231 97.3836 111.537 99.6169L111.02 98.7612C114.473 96.6735 116.768 93.2529 116.975 89.3641L117.974 89.4174Z" fill="black"/>
<path d="M125.391 90.7704L131.383 82" stroke="black" stroke-miterlimit="10"/>
<path d="M118.282 89.5688L119.322 79.0015" stroke="black" stroke-miterlimit="10"/>
<path d="M109.618 89.7349L105.67 79.8828" stroke="black" stroke-miterlimit="10"/>
<path d="M71.427 92.463C63.5281 92.3903 57.1457 90.0664 57.1715 87.2725C57.1972 84.4785 63.6213 82.2726 71.5202 82.3453C79.419 82.4181 85.8014 84.742 85.7757 87.5359C85.7499 90.3298 79.3258 92.5358 71.427 92.463Z" fill="white" stroke="black" stroke-miterlimit="10"/>
<path fill-rule="evenodd" clip-rule="evenodd" d="M67.2784 92.2086C61.4095 91.5253 57.1505 89.5559 57.1716 87.2725C57.1973 84.4786 63.6214 82.2727 71.5203 82.3454C72.1834 82.3515 72.8358 82.3735 73.4747 82.4103C73.2568 86.4877 70.8518 90.0481 67.2784 92.2086Z" fill="black"/>
<path d="M67.2784 92.2086L67.5371 92.6364L67.3906 92.725L67.2206 92.7052L67.2784 92.2086ZM57.1716 87.2725L57.6715 87.2772L57.6715 87.2772L57.1716 87.2725ZM71.5203 82.3454L71.5157 82.8454L71.5157 82.8454L71.5203 82.3454ZM73.4747 82.4103L73.5034 81.9111L74.0005 81.9397L73.9739 82.437L73.4747 82.4103ZM67.2206 92.7052C64.2522 92.3596 61.6616 91.6862 59.7996 90.7912C58.8695 90.3441 58.0976 89.8305 57.5532 89.2544C57.0065 88.676 56.6648 88.0062 56.6716 87.2679L57.6715 87.2772C57.6678 87.6805 57.8506 88.1132 58.28 88.5676C58.7116 89.0243 59.3673 89.4739 60.2329 89.8899C61.9624 90.7213 64.4357 91.3742 67.3362 91.7119L67.2206 92.7052ZM56.6716 87.2679C56.6799 86.3632 57.2069 85.5753 57.9964 84.9273C58.7887 84.277 59.9018 83.7176 61.2311 83.2611C63.8943 82.3466 67.5341 81.8087 71.5249 81.8454L71.5157 82.8454C67.6076 82.8094 64.0859 83.3381 61.5559 84.2069C60.2886 84.642 59.2972 85.1534 58.6308 85.7003C57.9618 86.2494 57.6761 86.7849 57.6715 87.2772L56.6716 87.2679ZM71.5249 81.8454C72.196 81.8516 72.8565 81.8739 73.5034 81.9111L73.4459 82.9095C72.8151 82.8731 72.1708 82.8514 71.5157 82.8454L71.5249 81.8454ZM73.9739 82.437C73.7461 86.7029 71.231 90.4031 67.5371 92.6364L67.0197 91.7807C70.4726 89.693 72.7676 86.2724 72.9754 82.3836L73.9739 82.437Z" fill="black"/>
<path d="M81.3906 83.79L87.3826 75.0195" stroke="black" stroke-miterlimit="10"/>
<path d="M74.2816 82.5883L75.322 72.021" stroke="black" stroke-miterlimit="10"/>
<path d="M65.6177 82.7544L61.67 72.9024" stroke="black" stroke-miterlimit="10"/>
<path d="M177.898 54.0519C176.727 57.5535 173.682 60.3797 170.094 61.2663C166.506 62.1529 162.49 61.0853 159.823 58.5241" stroke="black" stroke-miterlimit="10"/>
<path d="M70.9739 113.107C70.7943 114.76 74.3167 120.568 77.6232 120.927C80.9297 121.286 83.7558 120.237 83.9353 118.584C84.1149 116.931 82.3521 114.229 79.0456 113.87C75.7391 113.51 71.1535 111.454 70.9739 113.107Z" fill="black"/>
<path d="M84.9947 147.875C100.422 152.813 127.642 142.985 139.662 137.308C139.887 137.201 140.089 137.07 140.281 136.911L141.885 135.576C143.691 134.074 146.17 135.202 145.485 137.449C144.838 139.569 143.597 141.859 141.371 143.712C135.745 148.392 119.097 154.536 108.878 155.331C98.6592 156.126 59.7918 147.824 57.0358 144.511C54.2797 141.199 65.5322 141.646 84.9947 147.875Z" fill="#734F62" stroke="black"/>
<path d="M80.2544 140.473C95.5325 145.363 125.063 138.999 137.356 133.42C137.814 133.212 138.192 132.883 138.478 132.47C139.973 130.311 141.57 131.015 139.907 133.046C139.031 134.116 137.943 135.217 136.63 136.309C131.005 140.99 112.265 144.62 102.046 145.414C68.075 147.59 52.7873 137.771 48.2236 131.147C47.4754 130.061 47.8265 128.619 48.6597 127.597C50.9815 124.749 53.3958 120.932 58.7329 125.243C60.9643 127.045 61.4696 128.317 61.1042 129.192C60.5382 130.548 59.1836 127.815 57.754 127.475C55.1022 126.845 47.8408 130.05 50.7709 131.867C52.8737 133.171 55.2214 134.119 56.4266 134.535C56.6702 134.619 56.9241 134.661 57.1811 134.679C61.1445 134.962 68.9132 136.843 80.2544 140.473Z" fill="#734F62" stroke="black"/>
<path d="M127.119 151.443C112.56 149.466 83.632 146.727 68.7908 148.909C66.6601 149.223 62.0039 149.842 59.8548 149.982C57.3237 150.148 55.6555 150.871 61.1535 153.722C71.1305 158.895 71.9719 153.94 70.5773 152.263C69.1827 150.587 68.2742 152.052 67.4361 152.75C67.0831 153.043 67.5142 153.209 68.1715 153.296C69.3314 153.45 69.7476 153.309 69.0043 154.213C68.949 154.28 68.8911 154.351 68.8307 154.426C67.9587 155.505 66.8977 154.919 66.0369 153.964C65.1489 152.979 65.4074 151.421 66.5646 150.773C69.3561 149.209 71.8741 150.275 73.4933 151.662C74.3648 152.408 74.4213 153.679 73.7432 154.605C72.3429 156.516 70.0738 158.939 68.4083 159.032C65.6681 159.185 44.8312 153.781 55.7195 147.227C62.004 143.477 89.6409 146.032 102.793 142.584C112.707 139.984 140.354 145.891 142.562 149.591C144.771 153.292 142.489 153.529 127.119 151.443Z" fill="#734F62" stroke="black"/>
<path d="M91.2717 153.151C85.6184 144.819 92.6031 141.376 96.8021 140.695C94.4225 142.024 94.0024 143.508 90.6711 145.369C87.3397 147.23 92.1678 151.401 93.0212 154.047C93.8745 156.692 98.3251 157.953 100.495 157.365C102.664 156.778 102.805 149.206 103.225 147.722C103.645 146.239 102.526 143.117 101.994 142.165C101.463 141.214 99.4606 145.454 97.557 146.518C96.0341 147.368 97.7058 149.765 98.7321 150.857L99.9497 150.801C98.7451 156.469 98.6336 154.034 96.5068 150.226C94.3799 146.419 96.4936 144.614 101.463 141.214C105.438 138.493 104.06 149.962 102.874 156.036C101.362 158.546 96.925 161.482 91.2717 153.151Z" fill="#FFF9EA" stroke="#FFF9EA"/>
<ellipse cx="8.92293" cy="6.32041" rx="8.92293" ry="6.32041" transform="matrix(-0.926849 0.375433 0.375433 0.926849 124.925 107.244)" fill="#FF6F92"/>
<ellipse cx="8.92293" cy="6.32041" rx="8.92293" ry="6.32041" transform="matrix(-0.698388 -0.71572 -0.71572 0.698388 74.0669 106.933)" fill="#FF6F92"/>
</g>
<defs>
<clipPath id="clip0_133_2383">
<rect width="243.071" height="239.593" fill="white" transform="matrix(-0.961636 -0.274328 -0.274328 0.961636 299.606 66.6812)"/>
</clipPath>
</defs>
</svg>
